<?xml version="1.0" standalone="no"?>
<!DOCTYPE svg PUBLIC "-//W3C//DTD SVG 1.1//EN" "http://www.w3.org/Graphics/SVG/1.1/DTD/svg11.dtd" >
<svg xmlns="http://www.w3.org/2000/svg">
<metadata>Generated by IcoMoon</metadata>
<defs>
<font id="amicons" horiz-adv-x="1024">
<font-face units-per-em="1024" ascent="960" descent="-64" />
<missing-glyph horiz-adv-x="1024" />
<glyph unicode="&#x20;" horiz-adv-x="512" d="" />
<glyph unicode="&#xe018;" glyph-name="layout-empty" d="M0-64h1024v1024h-1024zM32 928h960v-960h-960z" />
<glyph unicode="&#xe019;" glyph-name="layout-1" d="M496 960h-496v-1024h1024v1024zM496-32h-464v960h464zM992 928v-960h-464v960z" />
<glyph unicode="&#xe01a;" glyph-name="layout-2" d="M672 960h-672v-1024h1024v1024zM320-32h-288v960h288zM672-32h-320v960h320zM992 928v-960h-288v960z" />
<glyph unicode="&#xe01b;" glyph-name="layout-3" d="M496 960h-496v-1024h1024v1024zM32 928h464v-464h-464zM496-32h-464v464h464zM992-32h-464v464h464zM992 928v-464h-464v464z" />
<glyph unicode="&#xe01c;" glyph-name="layout-4" d="M736 960h-736v-1024h1024v1024zM240-32h-208v960h208zM496-32h-224v960h224zM736-32h-208v960h208zM992 928v-960h-224v960z" />
<glyph unicode="&#xe01d;" glyph-name="layout-5" d="M0 720v-784h1024v1024h-1024zM992-32h-960v224h960zM992 224h-960v208h960zM992 464h-960v224h960zM32 928h960v-208h-960z" />
<glyph unicode="&#xe01e;" glyph-name="layout-6" d="M496 960h-496v-1024h1024v1024zM32 928h464v-224h-464zM32 672h464v-208h-464zM32 432h464v-224h-464zM496-32h-464v208h464zM992-32h-464v208h464zM992 208h-464v224h464zM992 464h-464v208h464zM992 928v-224h-464v224z" />
<glyph unicode="&#xe01f;" glyph-name="layout-7" d="M0 736v-800h1024v1024h-1024zM992-32h-960v736h960zM32 928h960v-192h-960z" />
<glyph unicode="&#xe020;" glyph-name="layout-8" d="M0 736v-800h1024v1024h-1024zM496-32h-464v736h464zM992-32h-464v736h464zM32 928h960v-192h-960z" />
<glyph unicode="&#xe021;" glyph-name="layout-9" d="M0 736v-800h1024v1024h-1024zM320-32h-288v736h288zM672-32h-320v736h320zM992-32h-288v736h288zM32 928h960v-192h-960z" />
<glyph unicode="&#xe022;" glyph-name="layout-10" d="M0 736v-800h1024v1024h-1024zM32 704h464v-352h-464zM496-32h-464v352h464zM992-32h-464v352h464zM992 352h-464v352h464zM32 928h960v-192h-960z" />
<glyph unicode="&#xe023;" glyph-name="layout-11" d="M0 736v-800h1024v1024h-1024zM240-32h-208v736h208zM496-32h-224v736h224zM736-32h-208v736h208zM992-32h-224v736h224zM32 928h960v-192h-960z" />
<glyph unicode="&#xe024;" glyph-name="layout-12" d="M0 736v-800h1024v1024h-1024zM32 704h304v-736h-304zM368-32v368h624v-368zM992 368h-624v336h624zM32 928h960v-192h-960z" />
<glyph unicode="&#xe025;" glyph-name="layout-13" d="M0 736v-800h1024v1024h-1024zM656 368h-624v336h624zM32 336h624v-368h-624zM992-32h-304v736h304zM32 928h960v-192h-960z" />
<glyph unicode="&#xe026;" glyph-name="layout-14" d="M0 736v-800h1024v1024h-1024zM496-32h-464v736h464zM736-32h-208v736h208zM992-32h-224v736h224zM32 928h960v-192h-960z" />
<glyph unicode="&#xe027;" glyph-name="layout-15" d="M0 736v-800h1024v1024h-1024zM496-32h-464v736h464zM736-32h-208v736h208zM992-32h-224v736h224zM32 928h960v-192h-960z" />
<glyph unicode="&#xe028;" glyph-name="layout-16" d="M0 736v-800h1024v1024h-1024zM32 704h304v-736h-304zM992-32h-624v736h624zM32 928h960v-192h-960z" />
<glyph unicode="&#xe029;" glyph-name="layout-17" d="M0 736v-800h1024v1024h-1024zM32 704h624v-736h-624zM992-32h-304v736h304zM32 928h960v-192h-960z" />
<glyph unicode="&#xe02a;" glyph-name="layout-18" d="M320 960h-320v-1024h1024v1024zM320-32h-288v960h288zM992 928v-960h-640v960z" />
<glyph unicode="&#xe02b;" glyph-name="layout-19" d="M672 960h-672v-1024h1024v1024zM672-32h-640v960h640zM992 928v-960h-288v960z" />
<glyph unicode="&#xe03b;" glyph-name="uniE03B" d="M672 960h-672v-672h352v-352h672v672h-352zM32 928h608v-320h-288v-288h-320zM640 576v-256h-256v256zM992-32h-608v320h288v288h320z" />
<glyph unicode="&#xe03c;" glyph-name="uniE03C" d="M672 576h48v32h-48v48h-32v-48h-288v-288h-48v-32h48v-48h32v48h288zM384 320v256h256v-256zM272 960h64v-32h-64zM32 928h16v32h-48v-48h32zM368 960h64v-32h-64zM112 320h64v-32h-64zM176 960h64v-32h-64zM208 320h64v-32h-64zM0 688h32v-64h-32zM80 960h64v-32h-64zM0 880h32v-64h-32zM16 320h64v-32h-64zM0 784h32v-64h-32zM0 592h32v-64h-32zM560 960h64v-32h-64zM640 752h32v-64h-32zM464 960h64v-32h-64zM0 400h32v-64h-32zM640 848h32v-64h-32zM0 496h32v-64h-32zM640 944h32v-64h-32zM1024-16h-32v-16h-16v-32h48zM992 80h32v-64h-32zM944 608h64v-32h-64zM992 368h32v-64h-32zM992 272h32v-64h-32zM992 176h32v-64h-32zM496-32h64v-32h-64zM592-32h64v-32h-64zM400-32h64v-32h-64zM992 464h32v-64h-32zM352 208h32v-64h-32zM688-32h64v-32h-64zM352 16h32v-64h-32zM880-32h64v-32h-64zM992 560h32v-64h-32zM784-32h64v-32h-64zM752 608h64v-32h-64zM848 608h64v-32h-64zM352 112h32v-64h-32z" />
<glyph unicode="&#xe03d;" glyph-name="uniE03D" d="M800 608h64v-32h-64zM896 608h48v-32h-48zM720 608h48v-32h-48zM1024 608h-48v-32h16v-16h32zM992 80h32v-64h-32zM992 160h32v-48h-32zM992 352h32v-64h-32zM992 432h32v-48h-32zM992 528h32v-64h-32zM992 256h32v-64h-32zM992-32h-16v-32h48v48h-32zM432-32h64v-32h-64zM528-32h48v-32h-48zM608-32h64v-32h-64zM880-32h64v-32h-64zM704-32h64v-32h-64zM800-32h48v-32h-48zM352-64h48v32h-16v16h-32zM352 160h32v-64h-32zM352 64h32v-48h-32zM352 240h32v-48h-32zM352 272h32v304h304v32h-16v352h-672v-672h352zM32 928h608v-320h-288v-288h-320z" />
<glyph unicode="&#xe03e;" glyph-name="uniE03E" d="M640 432h32v-64h-32zM640 528h32v-64h-32zM640 320h-16v-32h48v48h-32zM528 320h64v-32h-64zM432 320h64v-32h-64zM672 960h-672v-672h352v-352h672v672h-352zM992-32h-608v320h16v32h-16v16h-32v-16h-320v608h608v-320h-16v-32h16v-16h32v16h320zM352 528h32v-64h-32zM352 432h32v-64h-32zM352 560h32v16h16v32h-48zM528 608h64v-32h-64zM432 608h64v-32h-64z" />
<glyph unicode="&#xe189;" glyph-name="setting" d="M850 636l100 100-150 150-100-100-76 26v148h-224v-148l-76-26-100 100-150-150 100-100-26-76h-148v-224h148l26-76-100-100 150-150 100 100 76-26v-148h224v148l76 26 100-100 150 150-100 100 26 76h148v224h-148zM992 368h-140l-38-116 92-92-106-106-92 92-116-38v-140h-160v140l-116 38-92-92-106 106 92 92-38 116h-140v160h140l38 116-92 92 106 106 92-92 116 38v140h160v-140l116-38 92 92 106-106-92-92 38-116h140zM512 560c-62 0-112-50-112-112s50-112 112-112c62 0 112 50 112 112s-50 112-112 112zM512 368c-44 0-80 36-80 80s36 80 80 80c44 0 80-36 80-80s-36-80-80-80z" />
<glyph unicode="&#xe18b;" glyph-name="map-to" d="M592 656c0 44-36 80-80 80s-80-36-80-80c0-44 36-80 80-80s80 36 80 80zM464 656c0 26 22 48 48 48s48-22 48-48c0-26-22-48-48-48s-48 22-48 48zM512 182l12 16c8 10 212 262 212 426 0 132-102 240-224 240-124 0-224-108-224-240 0-164 202-416 212-426zM512 832c106 0 192-94 192-208 0-130-148-332-192-390-44 58-192 260-192 390 0 114 86 208 192 208zM688 384v-32h134l158-288h-936l158 288h134v32h-154l-194-352h1048l-194 352z" />
<glyph unicode="&#xe1a6;" glyph-name="uniE1A6" d="M576 832h144v-32h-144zM304 704h416v-32h-416zM304 576h416v-32h-416zM864 960h-704v-338l-160-68v-618h1024v618l-160 68zM832 928v-476l-320-200-320 200v476zM160 472l-110 70 110 46zM32-32v548l480-302 480 302v-548zM974 542l-110-70v116z" />
<glyph unicode="&#xe1b0;" glyph-name="uniE1B0" d="M48-32h672v960h-672v-80h-48v-32h48v-96h-48v-32h48v-96h-48v-32h48v-96h-48v-32h48v-96h-48v-32h48v-96h-48v-32h48v-96h-48v-32h48zM688 0h-128v896h128zM80 176h48v32h-48v96h48v32h-48v96h48v32h-48v96h48v32h-48v96h48v32h-48v96h48v32h-48v48h448v-896h-448v48h48v32h-48zM864 92l80-160 80 160v868h-160zM944 4l-48 96v668h96v-668zM992 928v-128h-96v128z" />
<glyph unicode="&#xe1e5;" glyph-name="uniE1E5" d="M96 576h832v-32h-832zM96 448h832v-32h-832zM96 320h832v-32h-832zM1024 864h-1024v-832h1024zM992 832v-96h-960v96zM32 64v640h960v-640zM96 800h64v-32h-64zM224 800h64v-32h-64zM352 800h64v-32h-64z" />
<glyph unicode="&#xe3e0;" glyph-name="uniE3E0" d="M848 880h-128v-64h-416v64h-128v-64h-176v-800h1024v800h-176zM752 848h64v-96h-64zM208 848h64v-96h-64zM32 48v608h960v-608zM992 784v-96h-960v96h144v-64h128v64h416v-64h128v64zM144 400h192v192h-192zM176 560h128v-128h-128zM144 112h192v192h-192zM176 272h128v-128h-128zM688 400h192v192h-192zM720 560h128v-128h-128zM688 112h192v192h-192zM720 272h128v-128h-128zM416 400h192v192h-192zM448 560h128v-128h-128zM416 112h192v192h-192zM448 272h128v-128h-128z" />
<glyph unicode="&#xe42c;" glyph-name="uniE42C" d="M128 960v-32c256 0 498-114 664-310 130-156 200-352 200-554h32c0 210-74 414-208 574-170 204-416 322-688 322zM812 64h32c0 394-316 716-716 716v-32c384 0 684-308 684-684zM128 598v-32c272 0 504-224 504-502h32c0 294-248 534-536 534zM484 64c0 196-164 354-356 354v-32c176 0 324-144 324-322zM258 64c0 72-58 128-130 128-70 0-128-56-128-128s58-128 128-128c72 0 130 56 130 128zM32 64c0 54 44 96 96 96 54 0 98-42 98-96s-44-96-98-96c-52 0-96 42-96 96z" />
<glyph unicode="&#xe667;" glyph-name="gis-pan" d="M794.516 639.988h-90.516l128.008-128-320.008 0.012v325.492l128-128.004v90.512l-160 160-160-160v-90.512l128 128.004c0-128.616 0-205.216 0-325.492h-325.484l128 127.988h-90.516l-160-160 160-160h90.508l-128 128 325.492 0.012v-320.004l-128 128.004v-90.512l160-160 160 160v90.512l-128-128.004c0 74.36 0 233.547 0 320.004l320.008-0.012-128.008-128h90.516l160 160-160 160z" />
<glyph unicode="&#xe66e;" glyph-name="gis-rotate" d="M959.996 128.004h-155.262c95.129 87.68 155.262 212.68 155.262 351.945 0.004 264.715-215.309 480.051-480 480.051-264.688 0-480.004-215.34-480.008-480.055 0-151.789 71.031-287.094 181.383-375.105l35.969 52.895c-93.496 76.332-153.352 192.367-153.348 322.199 0 229.437 186.629 416.066 416.004 416.066s416-186.625 416-416.063c0-117.551-49.281-223.543-127.996-299.195v139.258h-64v-256l256 0.004-0.004 64zM448 512h64v-64h-64v64z" />
<glyph unicode="&#xe680;" glyph-name="gis-compass2" d="M512 960l-192-512 192-512 192 512zM396.8 384h230.4l-115.2-332.8z" />
<glyph unicode="&#xe900;" glyph-name="cj-attention" d="M873.669 875.225c-190.217 94.99-361.415-145.638-361.415-145.638s-171.198 240.628-361.363 145.638c-190.217-95.017-228.282-357.842 50.674-608.085 278.982-250.217 310.689-262.878 310.689-262.878s31.733 12.662 310.689 262.878c278.955 250.243 240.917 513.069 50.726 608.085z" />
<glyph unicode="&#xe901;" glyph-name="cj-cropmodel" d="M185.895 374.134c0 0 289.512-99.015 331.879-115.299 68.705-26.429 86.564 0 86.564 0s377.612 457.742 389.595 475.602c14.609 21.791-14.413 43.237-14.413 43.237l-447.317 115.299c0 0-8.421 2.396-28.858 0-20.437-2.405-28.857-14.413-28.857-14.413s-367.943-404.746-404.023-461.188c-36.064-56.452-43.287-115.3-43.287-115.3-6.008-146.52 144.288-187.361 144.288-187.361l432.873-129.712 389.595 461.197v144.124c-30.072 30.023-57.715 0-57.715 0v-115.299l-360.738-417.959c0 0-393.707 133.832-432.873 144.124-39.167 10.292-43.287 72.062-43.287 72.062-12.36 113.231 86.574 100.886 86.574 100.886zM432.974 704.906l41.514 43.943c18.467 14.502 27.873 4.038 43.287 0l259.71-72.063c22.653-7.641 32.929-8.921 14.446-28.825l-28.858-28.825c-31.090-31.607-42.317-18.45-57.715-14.413l-251.798 64.987c-28.038 9.449-39.070 12.592-20.586 35.196z" />
<glyph unicode="&#xe902;" glyph-name="cj-water" d="M148.607 335.384c0-153.596 124.476-278.075 278.075-278.075 153.602 0 278.077 124.476 278.077 278.075 0 153.579-158.904 312.087-278.077 482.339-113.5-167.43-278.075-328.761-278.075-482.339zM770.635 760.055c-16.152 21.020-32.867 42.754-48.107 64.546l-9.986 14.27-9.768-14.414c-15.809-23.282-33.696-46.759-51.057-69.438-15.33-20.141-31.239-40.922-45.302-61.219-3.774-5.439-2.425-12.91 3.015-16.69 5.453-3.784 12.928-2.424 16.713 3.011 13.744 19.838 28.759 39.506 44.674 60.324 14.055 18.41 28.503 37.356 42.010 56.445 12.683-17.459 25.896-34.682 38.781-51.447 51.186-66.579 99.513-129.462 99.513-188.597 0-53.247-31.449-102.348-80.162-125.067-5.992-2.83-8.571-9.965-5.78-15.971 1.364-2.88 3.757-5.085 6.693-6.172l0.083-0.027c1.216-0.456 2.62-0.719 4.086-0.719 1.846 0 3.595 0.418 5.157 1.165l-0.072-0.031c57.098 26.681 93.968 84.302 93.968 146.823 0.012 67.303-50.714 133.31-104.454 203.201z" />
<glyph unicode="&#xe903;" glyph-name="cj-bug" d="M128 235.776c0-42.432 19.2-80.192 48-103.744v-84.864c0-28.288 19.2-47.168 48-47.168h48c28.8 0 48 18.88 48 47.168v47.168h384v-47.168c0-28.288 19.2-47.168 48-47.168h48c28.8 0 48 18.88 48 47.168v84.864c28.8 23.616 48 61.312 48 103.744v471.616c0 165.056-172.8 188.608-384 188.608s-384-23.552-384-188.608v-471.616zM296 188.608c-38.4 0-72 33.024-72 70.72s33.6 70.72 72 70.72c38.4 0 72-33.024 72-70.72s-33.6-70.72-72-70.72zM728 188.608c-38.4 0-72 33.024-72 70.72s33.6 70.72 72 70.72 72-33.024 72-70.72c0-37.696-33.6-70.72-72-70.72zM800 471.552h-576v235.84h576v-235.84z" />
<glyph unicode="&#xe904;" glyph-name="monitoring-refresh" d="M768 448c0-141.152-114.848-256-256-256s-256 114.848-256 256 114.848 256 256 256c57.248 0 111.328-18.848 155.84-53.216l-50.752-33.088 170.72-86.624-10.336 191.168-53.568-34.912c-55.823 50.063-129.986 80.673-211.299 80.673-0.213 0-0.425 0-0.638-0.001h0.033c-176.448 0-320-143.552-320-320s143.552-320 320-320 320 143.552 320 320h-64z" />
<glyph unicode="&#xe905;" glyph-name="cj-refresh" d="M852.165 247.296l120.793 0.079c-76.682-180.854-255.842-307.712-464.738-307.712-278.646 0.118-504.556 226.028-504.517 504.714s225.989 504.635 504.674 504.556c119.217 0 228.155-42.142 314.407-111.38l118.823 118.745 78.69-393.846-393.846 78.809 119.69 119.65c-66.324 49.979-148.401 80.069-237.804 80.069-219.057 0-396.603-177.506-396.642-396.564s177.546-396.603 396.524-396.603c147.338-0.118 275.574 80.423 343.946 199.483z" />
<glyph unicode="&#xe906;" glyph-name="cj-reply" d="M992 96s-89.6 505.6-556.8 505.6v192l-403.2-345.6 403.2-326.4v224c249.6 0 422.4-19.2 556.8-249.6z" />
<glyph unicode="&#xe907;" glyph-name="cj-satellite" d="M702.171 207.441c27.632 0 48.762 21.13 48.762 47.137 0 11.378-4.876 22.756-11.378 30.883l39.010 39.010c19.505 19.505 19.505 50.387 0 68.267l-206.425 206.425 92.648 92.648 94.273-94.273c19.505-19.505 50.387-19.505 68.267 0l32.508 32.508c19.505 19.505 19.505 50.387 0 68.267l-235.683 235.683c-19.505 19.505-50.387 19.505-68.267 0l-32.508-32.508c-19.505-19.505-19.505-50.387 0-68.267l94.273-94.273-92.648-92.648-206.425 206.425c-19.505 19.505-50.387 19.505-68.267 0l-152.787-152.787c-19.505-19.505-19.505-50.387 0-68.267l206.425-206.425-92.648-92.648-94.273 94.273c-19.505 19.505-50.387 19.505-68.267 0l-32.508-32.508c-19.505-19.505-19.505-50.387 0-68.267l235.683-235.683c19.505-19.505 50.387-19.505 68.267 0l32.508 32.508c19.505 19.505 19.505 50.387 0 68.267l-94.273 94.273 92.648 92.648 206.425-206.425c19.505-19.505 50.387-19.505 68.267 0l45.511 45.511c8.127-6.502 19.505-9.752 30.883-9.752zM897.219 301.714h-71.517c0-43.886-17.879-86.146-50.387-117.029s-76.394-48.762-123.53-48.762v-68.267c136.533 0 245.435 105.651 245.435 234.057zM952.483 301.714c0-157.663-134.908-286.070-299.073-286.070v-68.267c204.8 0 370.59 159.289 370.59 352.711h-71.517z" />
<glyph unicode="&#xe908;" glyph-name="cj-plan" d="M379.187-12.493c-1.331 0-2.662 0.103-3.891 0.41-6.554 1.331-12.083 5.734-14.643 11.98l-79.053 189.749c-6.86 16.384-19.968 29.286-36.557 35.84l-181.145 71.27c-8.602 3.38-14.132 12.39-12.39 22.221 0.716 4.198 2.866 7.885 5.836 10.957l62.157 62.157c4.096 4.096 10.035 6.144 15.667 5.836l155.853-11.776 146.944 146.842-336.077 175.411c-5.837 2.867-9.933 8.397-10.957 14.746s1.024 12.902 5.632 17.51l83.456 83.456c4.71 4.71 11.367 6.759 17.92 5.53l449.946-94.31 143.974 144.074c38.81 38.81 106.496 38.81 145.306 0l5.53-5.632c19.353-19.353 30.105-45.158 30.105-72.601s-10.65-53.248-30.106-72.704l-142.54-142.541 98.713-446.055c1.331-6.553-0.717-13.414-5.53-18.124l-84.889-84.788c-4.506-4.505-10.957-6.656-17.306-5.632-6.348 1.024-11.776 5.018-14.745 10.65l-179.2 327.066-143.155-143.053 13.004-148.787c0.047-0.516 0.074-1.116 0.074-1.723 0-5.567-2.259-10.607-5.91-14.252v0l-67.994-67.993c-3.686-3.687-8.806-5.735-14.029-5.735z" />
<glyph unicode="&#xe909;" glyph-name="cj-control" d="M64 768h128c0-35.328 28.672-64 64-64s64 28.672 64 64h640c35.328 0 64 28.672 64 64s-28.672 64-64 64h-640c0 35.328-28.672 64-64 64s-64-28.672-64-64h-128c-35.328 0-64-28.672-64-64s28.672-64 64-64zM960 512h-128c0 35.328-28.672 64-64 64s-64-28.672-64-64h-640c-35.328 0-64-28.672-64-64s28.672-64 64-64h640c0-35.328 28.672-64 64-64s64 28.672 64 64h128c35.328 0 64 28.672 64 64s-28.672 64-64 64zM960 128h-640c0 35.328-28.672 64-64 64s-64-28.672-64-64h-128c-35.328 0-64-28.672-64-64s28.672-64 64-64h128c0-35.328 28.672-64 64-64s64 28.672 64 64h640c35.328 0 64 28.672 64 64s-28.672 64-64 64z" />
<glyph unicode="&#xe90a;" glyph-name="cj-pause" d="M221.389 482.133h700.211c18.851 0 34.133-15.282 34.133-34.133s-15.282-34.133-34.133-34.133h-705.058l185.481-185.549c5.928-6.132 9.582-14.496 9.582-23.713 0-18.851-15.282-34.133-34.133-34.133-9.217 0-17.581 3.653-23.722 9.591l0.010-0.009-241.391 241.391c-6.175 6.177-9.994 14.708-9.994 24.132s3.819 17.956 9.994 24.132l241.391 241.391c6.179 6.17 14.71 9.986 24.132 9.986 18.862 0 34.152-15.291 34.152-34.152 0-9.439-3.83-17.984-10.020-24.166v0l-180.634-180.634z" />
<glyph unicode="&#xe90b;" glyph-name="cj-pause2" d="M129.967-61.107h254.554v1018.215h-254.554v-1018.215zM639.277 957.107v-1018.215h254.554v1018.215z" />
<glyph unicode="&#xe90c;" glyph-name="cj-paly" d="M64-64l864 480-864 544z" />
<glyph unicode="&#xe90d;" glyph-name="cj-upload" d="M2.451 64.681v-127.657h1021.548v383.097h-127.713v-255.44h-766.122v255.44h-127.713v-255.44zM597.376 192.388v379.274h235.077l-319.256 325.7-319.205-325.7h234.977v-379.274h168.406z" />
<glyph unicode="&#xe90e;" glyph-name="cj-search" d="M1005.58-8.876l-224.496 224.496c68.343 77.903 110.038 180.661 110.038 293.158 0 246.058-199.47 445.528-445.528 445.528s-445.528-199.47-445.528-445.528c0-246.058 199.47-445.528 445.528-445.528 111.39 0 213.232 40.878 291.343 108.451l-0.563-0.477 224.81-224.81c5.691-5.658 13.536-9.156 22.198-9.156s16.507 3.498 22.199 9.157l-0.002-0.002c5.752 5.707 9.314 13.615 9.314 22.355s-3.561 16.648-9.311 22.353l-0.002 0.002zM447.962 126.199c-208.671 0-377.833 169.161-377.833 377.833s169.161 377.833 377.833 377.833c208.671 0 377.833-169.161 377.833-377.833v0c0-208.671-169.161-377.833-377.833-377.833v0zM636.879 535.518h-377.833c-17.389 0-31.486-14.097-31.486-31.486s14.097-31.486 31.486-31.486h377.833c17.389 0 31.486 14.097 31.486 31.486s-14.097 31.486-31.486 31.486v0z" />
<glyph unicode="&#xe90f;" glyph-name="cj-search2" d="M999.904 67.229l-165.328 166.981c50.896 72.305 81.342 162.199 81.342 259.204 0 250.549-203.11 453.659-453.659 453.659s-453.659-203.11-453.659-453.659c0-250.549 203.11-453.659 453.659-453.659 99.438 0 191.405 31.993 266.167 86.247l-1.313-0.908 165.328-166.982c14.091-13.678 33.34-22.111 54.558-22.111s40.467 8.433 54.578 22.13l-0.019-0.019c13.345 13.929 21.561 32.865 21.561 53.72 0 21.683-8.881 41.291-23.204 55.386l-0.010 0.010zM198.395 240.823c-66.592 66.398-107.794 158.229-107.794 259.684 0 202.521 164.176 366.697 366.697 366.697s366.697-164.176 366.697-366.697c0-101.455-41.201-193.286-107.785-259.675l-0.009-0.009c-66.499-65.732-157.959-106.337-258.904-106.337s-192.404 40.605-258.938 106.371l0.035-0.034z" />
<glyph unicode="&#xe910;" glyph-name="cj-magnify" d="M943.8 67.5l-201.4 201c24.2 29 43.9 61.3 58.7 96.3 20 47.3 30.1 97.6 30.1 149.4s-10.1 102-30.1 149.4c-19.3 45.7-47 86.7-82.1 122-35.2 35.2-76.2 62.9-121.9 82.2-47.3 20-97.5 30.2-149.3 30.2s-102-10.2-149.3-30.2c-45.7-19.3-86.7-47-121.9-82.2s-62.8-76.3-82.1-122c-20-47.3-30.1-97.6-30.1-149.4s10.1-102 30.1-149.4c19.3-45.7 47-86.7 82.1-122 35.2-35.2 76.2-62.9 121.9-82.2 47.3-20 97.5-30.2 149.3-30.2 51.7 0 102 10.2 149.3 30.2 34.6 14.7 66.6 34.1 95.3 58l201.5-201c6.9-6.9 15.9-10.3 24.9-10.3 9.1 0 18.1 3.5 25 10.4 13.8 13.7 13.8 36.1 0 49.8zM669.7 293.4c-0.4-0.4-0.8-0.7-1.2-1.1-0.3-0.3-0.6-0.6-0.8-0.9-59-58.3-137-90.4-219.9-90.4-83.5 0-162.1 32.6-221.2 91.7s-91.6 137.8-91.6 221.4 32.5 162.3 91.6 221.4c59.1 59.1 137.6 91.7 221.2 91.7s162.1-32.6 221.2-91.7c59.1-59.1 91.6-137.8 91.6-221.4 0-83.3-32.3-161.6-90.9-220.7zM573.7 541h-100.7v98c0 19.5-13 35.3-32.5 35.3s-32.5-15.8-32.5-35.3v-98h-102.7c-19.5 0-35.3-13-35.3-32.5s15.8-32.5 35.3-32.5h102.7v-105.4c0-19.5 13-35.3 32.5-35.3s32.5 15.8 32.5 35.3v105.4h100.7c19.5 0 35.3 13 35.3 32.5s-15.8 32.5-35.3 32.5z" />
<glyph unicode="&#xe911;" glyph-name="cj-leaf" d="M889.813 947.163c-6.655 8.703-16.894 13.31-27.645 12.799s-20.478-6.655-25.597-15.87c-93.173-163.309-213.992-219.623-320.476-269.281-69.624-32.252-135.153-62.969-184.299-118.77-54.778-61.945-80.375-145.903-80.375-263.65 0-45.051 3.584-95.221 11.263-151.023-140.272-33.788-262.626-14.334-262.626-14.334v-127.985c156.654 0 287.199 36.86 381.909 76.791 61.945 23.549 117.235 55.29 165.357 91.126 5.631 4.096 8.703 6.655 8.703 6.655 232.933 179.692 308.189 465.867 308.189 465.867 0-305.629-222.695-571.327-507.334-666.036 87.542-27.645 168.941-40.443 242.148-36.86 82.423 4.096 155.63 27.645 217.575 70.136 131.569 91.126 206.824 267.234 206.824 483.785 0.512 175.084-49.658 346.073-133.617 456.652z" />
<glyph unicode="&#xe912;" glyph-name="cj-leaf2" d="M409.6 566.295v-500.364c0 0-2.118-83.386 81.92-83.386 82.339 0 81.943 83.386 81.943 83.386v500.364h-163.863zM491.543 660.713c0 0-143.36 325.935-491.52 168.913 0 0 29.44-468.433 409.6-295.564h170.659c0 0 337.501-132.864 443.718 337.804 0-0.023-414.278 81.804-532.457-211.153z" />
<glyph unicode="&#xe913;" glyph-name="cj-water-drop" d="M828.817 253.791c0-175.516-141.836-317.791-316.817-317.791s-316.817 142.275-316.817 317.791c0 175.468 316.817 706.209 316.817 706.209s316.817-530.741 316.817-706.209z" />
<glyph unicode="&#xe914;" glyph-name="cj-point" d="M512 956.731c-194.563 0-352.379-157.815-352.379-352.379 0-264.284 352.379-654.417 352.379-654.417s352.379 390.133 352.379 654.417c-0.001 194.564-157.816 352.379-352.379 352.379zM512 478.503c-69.469 0-125.849 56.38-125.849 125.849s56.38 125.85 125.849 125.85 125.849-56.381 125.849-125.85-56.38-125.849-125.849-125.849z" />
<glyph unicode="&#xe915;" glyph-name="cj-point2" d="M485.053 17.651c-216.657 13.42-390.009 186.745-403.402 403.402h-54.703c-14.883 0-26.947 12.065-26.947 26.947s12.065 26.947 26.947 26.947v0h54.703c13.42 216.657 186.745 390.009 403.402 403.402v54.703c0 14.883 12.065 26.947 26.947 26.947s26.947-12.065 26.947-26.947v-54.703c216.657-13.393 390.009-186.745 403.402-403.402h54.703c14.883 0 26.947-12.065 26.947-26.947s-12.065-26.947-26.947-26.947h-54.703c-13.393-216.657-186.745-390.009-403.402-403.402v-54.703c0-14.883-12.065-26.947-26.947-26.947s-26.947 12.065-26.947 26.947v0 54.703zM485.053 68.5v56.131c0 14.883 12.065 26.947 26.947 26.947s26.947-12.065 26.947-26.947v-56.131c188.632 13.204 339.348 163.921 352.552 352.552h-56.131c-14.883 0-26.947 12.065-26.947 26.947s12.065 26.947 26.947 26.947v0h56.131c-13.204 188.632-163.921 339.348-352.552 352.552v-56.131c0-14.883-12.065-26.947-26.947-26.947s-26.947 12.065-26.947 26.947v0 56.131c-188.632-13.204-339.348-163.921-352.552-352.552h56.131c14.883 0 26.947-12.065 26.947-26.947s-12.065-26.947-26.947-26.947h-56.131c13.204-188.632 163.921-339.348 352.552-352.552zM512 259.368c-104.178 0-188.632 84.453-188.632 188.632s84.453 188.632 188.632 188.632v0c104.178 0 188.632-84.453 188.632-188.632s-84.453-188.632-188.632-188.632v0z" />
<glyph unicode="&#xe916;" glyph-name="cj-location" d="M577.305 3.033l383.673 895.237-895.237-383.673 434.829-76.735 76.735-434.829z" />
<glyph unicode="&#xe917;" glyph-name="cj-busines-shandling" d="M512 908.8l-422.4-211.2 422.4-217.6 422.4 217.6-422.4 211.2zM51.2 198.4l422.4-217.6v435.2l-422.4 217.6v-435.2zM550.4 416v-428.8l422.4 217.6v428.8l-422.4-217.6z" />
<glyph unicode="&#xe918;" glyph-name="cj-business-modify" d="M755.2 803.556h-39.822c-9.956 41.244-46.933 71.111-89.6 71.111h-227.556c-44.089 0-79.644-29.867-89.6-71.111h-39.822c-54.044 0-98.133-44.089-98.133-99.556v-583.111c0-55.467 44.089-99.556 98.133-99.556h486.4c54.044 0 98.133 44.089 98.133 99.556v583.111c0 55.467-44.089 99.556-98.133 99.556zM362.667 782.222c0 19.911 15.644 35.556 35.556 35.556h227.556c19.911 0 35.556-15.644 35.556-35.556v-14.222c0-19.911-15.644-35.556-35.556-35.556h-227.556c-19.911 0-35.556 15.644-35.556 35.556v14.222zM796.444 120.889c0-24.178-18.489-42.667-41.244-42.667h-486.4c-22.756 0-41.244 18.489-41.244 42.667v583.111c0 24.178 18.489 42.667 41.244 42.667h39.822c9.956-41.244 46.933-71.111 89.6-71.111h227.556c44.089 0 79.644 29.867 89.6 71.111h39.822c22.756 0 41.244-18.489 41.244-42.667v-583.111zM588.8 551.822l-38.4-38.4 81.067-81.067 39.822 39.822c24.178 24.178 21.333 62.578-4.267 83.911-22.756 21.333-56.889 17.067-78.222-4.267zM354.133 317.156c-2.844-2.844-4.267-5.689-4.267-9.956v-59.733c0-8.533 5.689-14.222 14.222-14.222h59.733c4.267 0 7.111 1.422 9.956 4.267l156.444 156.444-81.067 81.067-155.022-157.867z" />
<glyph unicode="&#xe919;" glyph-name="cj-business-operation" d="M526.791 582.258c22.756 67.129 6.827 143.36-46.649 196.836s-129.707 68.267-196.836 46.649l61.44-61.44c32.996-32.996 32.996-87.609 0-120.604s-87.609-32.996-120.604 0l-61.44 61.44c-22.756-67.129-6.827-143.36 46.649-196.836s129.707-68.267 196.836-46.649l288.996-288.996c32.996-32.996 87.609-32.996 120.604 0s32.996 87.609 0 120.604l-288.996 288.996z" />
<glyph unicode="&#xe91a;" glyph-name="cj-business-makemoney" d="M874.779 819.616h-188.352c-25.575 72.038-93.641 123.857-174.427 123.857s-148.852-51.819-174.427-123.857h-188.352c-39.099 0-70.788-31.734-70.788-70.788v-725.513c0-39.099 31.734-70.788 70.788-70.788h725.513c39.099 0 70.788 31.734 70.788 70.788v725.513c0 39.099-31.734 70.788-70.788 70.788zM512 819.616c34.189 0 61.951-27.717 61.951-61.951 0-34.189-27.717-61.951-61.951-61.951-34.189 0-61.951 27.717-61.951 61.951 0 34.189 27.717 61.951 61.951 61.951zM473.303 156.813l-207.678 207.678 43.785 43.785 163.893-163.893 287.75 287.75 43.785-43.785-331.536-331.536z" />
<glyph unicode="&#xe91b;" glyph-name="cj-business" d="M42.667 42.667c0-36.267 27.733-64 64-64h810.667c36.267 0 64 27.733 64 64v448h-938.667v-448zM448 405.333h128c12.8 0 21.333-8.533 21.333-21.333s-8.533-21.333-21.333-21.333h-128c-12.8 0-21.333 8.533-21.333 21.333s8.533 21.333 21.333 21.333zM917.333 704h-810.667c-36.267 0-64-27.733-64-64v-106.667h938.667v106.667c0 36.267-27.733 64-64 64zM320 746.667c12.8 0 21.333 8.533 21.333 21.333v72.533c0 19.2 17.067 34.133 36.267 34.133h268.8c19.2 0 36.267-14.933 36.267-34.133v-72.533c0-12.8 8.533-21.333 21.333-21.333s21.333 8.533 21.333 21.333v72.533c0 42.667-36.267 76.8-78.933 76.8h-268.8c-42.667 0-78.933-34.133-78.933-76.8v-72.533c0-12.8 8.533-21.333 21.333-21.333z" />
<glyph unicode="&#xe91c;" glyph-name="cj-rmb" d="M179.375 637.74c65.906 116.25 189.469 195.375 332.625 195.375 195.75 0 357-146.625 380.719-336h48.469c-23.906 216-206.813 384-429.188 384-156.281 0-292.594-83.344-368.344-207.656l-111.656 111.656v-240h240l-92.625 92.625zM656 449.115c26.531 0 48 21.469 48 48s-21.469 48-48 48h-48l45.469 89.25c7.313 23.813-7.219 47.906-32.531 53.719s-51.844-8.719-59.156-32.531l-49.688-110.344-48.938 111.188c-6.844 25.594-33.188 40.781-58.781 33.938s-40.781-33.188-33.938-58.781l45.75-86.344h-48c-26.531 0-48-21.469-48-48s21.469-48 48-48h96v-96h-96.188c-26.531 0-48-21.469-48-48s21.469-48 48-48h96v-96c0-26.531 21.469-48 48-48s48 21.469 48 48v95.906h96c26.531 0 48 21.469 48 48s-21.469 48-48 48h-96v96h96zM752 353.115l92.625-92.625c-65.906-116.25-189.469-195.375-332.625-195.375-195.75 0-357 146.625-380.719 336h-48.469c23.906-216 206.813-384 429.188-384 156.281 0 292.594 83.344 368.344 207.656l111.656-111.656v240h-240z" />
<glyph unicode="&#xe91d;" glyph-name="cj-irrigation" d="M190.009 585.671c0 0 86.471-53.476 172.942-53.476 77.369 0 155.876 72.818 155.876 72.818s86.471 58.027 182.044 58.027c86.471 0 182.044-53.476 182.044-53.476v-72.818c0 0-95.573 53.476-177.493 53.476-100.124 0-182.044-53.476-182.044-53.476s-81.92-54.613-160.427-54.613c-86.471 0-172.942 53.476-172.942 53.476v50.062zM887.467 232.96c0 0-100.124 53.476-182.044 53.476-100.124 0-182.044-53.476-182.044-53.476s-81.92-53.476-160.427-53.476c-86.471 0-172.942 53.476-172.942 53.476v50.062c0 0 86.471-53.476 172.942-53.476 77.369 0 160.427 72.818 160.427 72.818s86.471 58.027 182.044 58.027c86.471 0 182.044-53.476 182.044-53.476v-73.956zM705.422 448c-100.124 0-182.044-53.476-182.044-53.476s-81.92-53.476-160.427-53.476c-86.471 0-172.942 53.476-172.942 53.476v50.062c0 0 86.471-53.476 172.942-53.476 78.507 0 160.427 68.267 160.427 68.267s81.92 56.889 182.044 61.44c86.471 0 182.044-53.476 182.044-53.476v-72.818c0 0-100.124 53.476-182.044 53.476v0z" />
<glyph unicode="&#xe91e;" glyph-name="cj-spray-irrigation" d="M542.4 535.1l0.5-24.6c0.5-20.2-15.9-37.2-36.1-37.2-20.2-0.5-37.2 15.9-37.2 36.1l-0.5 24.6c-0.5 20.2 15.9 37.2 36.1 37.2 19.7 0 36.7-15.9 37.2-36.1zM465.9 680.5v24.6c-0.5 20.2 15.9 37.2 36.1 37.2 20.2 0.5 37.2-15.9 37.7-36.1l0.5-24.6c0.5-20.2-15.9-37.2-36.1-37.2-20.7 0-37.7 15.9-38.2 36.1zM420.5 548.8l14.2-20.2c4.4-6 6.6-13.1 6.6-20.2 0-12-5.5-23.5-15.9-30.6-16.9-12-39.9-7.7-51.4 8.7l-14.2 20.2c-11.5 16.9-7.7 39.4 9.3 51.4 17 11.4 39.9 7.1 51.4-9.3zM295.3 729.7l14.2-20.2c4.4-6 6.6-13.1 6.6-20.2 0-12-5.5-23.5-15.9-30.6-16.9-11.5-39.4-7.7-51.4 9.3l-14.2 20.2c-11.5 16.9-7.1 39.4 9.3 51.4 17 10.9 40 7 51.4-9.9zM589.4 551.5l-13.1-20.8c-3.8-6-6-13.1-6-20.2 0-12 6-23.5 16.9-30.1 16.9-10.9 39.9-6 50.8 10.9l13.1 20.8c10.9 16.9 6 39.9-10.9 50.8-16.9 10.5-39.8 5.5-50.8-11.4zM709.1 736.3l-13.1-20.8c-3.8-6-6-13.1-6-20.2 0-12 6-23.5 16.9-30.1 16.9-10.9 39.9-6 50.8 10.9l13.1 20.8c10.9 16.9 6 39.9-10.9 50.8-17.4 10.4-39.8 5.5-50.8-11.4zM900.5 764.7l-22.4 10.4c-6.6 3.3-13.7 4.4-21.3 3.3-11.5-1.6-22.4-9.3-27.9-20.8-8.7-18.6-0.5-40.5 17.5-48.7l22.4-10.4c18.6-8.7 40.5-0.5 48.7 17.5 9.2 18.1 1 39.9-17 48.7zM122.1 764.7c-18.6-8.7-26.2-30.6-17.5-48.6 8.7-18.6 30.6-26.2 48.7-17.5l22.4 10.4c18.6 8.7 26.2 30.6 17.5 48.7-5.5 11.5-15.9 19.1-27.9 20.8-7.1 1.1-14.8 0-21.3-3.3l-21.9-10.5zM263.1 415.4c-1.6 0-2.7-24.1-2.7-36.1 0-133.9 108.2-242.7 242.2-242.7 133.9 0 242.2 108.8 242.2 242.7 0 12-1.1 36.1-2.7 36.1h-479zM446.8 204.4h117.5v-138.3h-117.5z" />
<glyph unicode="&#xe91f;" glyph-name="cj-user2" d="M455.036 334.702c0 11.271 0.158 23.707 0.317 36.831 13.6 14.87 44.822 53.184 57.151 105.361 12.595 5.822 23.178 18.362 29.794 35.88 9.261 24.659 9.949 58.686-8.096 80.752 0.106 0.424 0.158 0.688 0.211 1.112 3.388 30.905 12.384 113.033-37.095 166.85-28.523 31.010-71.229 55.459-126.845 56.94-55.618-1.481-98.323-25.929-126.845-56.94-49.48-53.817-40.483-135.945-37.15-166.85 0.054-0.424 0.106-0.688 0.16-1.112-18.046-22.066-17.358-56.093-8.097-80.753 6.667-17.516 17.092-30.058 29.686-35.879 12.33-52.23 43.34-90.49 56.94-105.36 0.158-13.177-0.212-24.237-0.212-35.51 0-123.932-284.488-96.68-284.488-224.001v-34.45h740.855v34.45c0 128.327-286.288 101.074-286.286 222.68zM805.424 350.642c0 8.586 0.12 18.061 0.242 28.059 10.36 11.329 34.148 40.517 43.541 80.269 9.596 4.434 17.658 13.99 22.698 27.334 7.056 18.787 7.58 44.71-6.169 61.523 0.080 0.322 0.121 0.524 0.161 0.846 2.58 23.545 9.434 86.115-28.262 127.116-21.73 23.625-54.263 42.251-96.636 43.38-42.371-1.129-74.906-19.755-96.637-43.38-37.695-41.002-30.842-103.572-28.302-127.116 0.040-0.322 0.080-0.524 0.12-0.846-13.747-16.812-13.222-42.735-6.168-61.523 5.081-13.345 13.023-22.9 22.618-27.334 9.393-39.792 33.018-68.94 43.38-80.27 0.121-10.039-0.16-18.465-0.16-27.051 0-35.408-30.478-54.618-68.577-69.914-33.588-13.485 54.040-22.786 115.891-52.531 55.078-26.488 83.529-74.457 83.529-74.457h216.84v26.246c0 97.764-218.11 77.003-218.11 169.649z" />
<glyph unicode="&#xe920;" glyph-name="cj-user3" d="M382.612 531.268c-0.889 9.822 3.152 17.272 5.573 21.739 0.464 0.85 1.077 1.986 1.374 2.668-2.055 9.901-3.508 19.387-4.476 28.478l-12.51 2.164-7.964 7.441c-32.084 19.88-66.481 5.939-84.879-1.581-26.542-8.696-43.329-46.531-31.61-102.498 1.996-9.555-5.198-13.824-4.723-19.041 1.027-11.412 1.235-38.832 11.936-45.592 0.989-0.623 8.577-2.54 8.537-2.025 1.047-11.096 2.095-22.213 3.143-33.31 2.668-7.392 9.081-8.212 10.928-18.616l-8.202-2.025c-3.685-7.896-10.425-23.773-17.313-28.557-5.761-1.591-11.541-3.172-17.313-4.763-20.227-8.349-42.696-18.359-62.983-26.976-18.457-7.845-40.553-10.642-47.223-30.148 0-13.241-1.236-44.534-0.889-61.876h91.341c0.119 5.662 0.247 11.333 0.385 16.808 0.286 12.016 0.554 23.359 0.554 30.394v3.805l1.236 3.597c10.851 31.699 39.446 41.689 62.42 49.703 5.8 2.025 11.285 3.933 16.374 6.097 11.146 4.733 22.786 9.783 34.506 14.861 17.272 7.48 35.059 15.188 51.798 22.124-0.83 1.839-1.6 3.508-2.262 4.93-3.676 0.534-7.342 1.057-11.017 1.591 0.573 12.212 8.072 12.885 11.017 22.203 2.599 8.241 0.267 18.942 4.397 26.561 2.856 5.297 9.318 5.336 12.55 9.862 2.924 4.121 4.862 11.314 5.77 16.354 0.485 2.707 0.948 5.732 1.245 8.844-17.519 16.275-19.713 47.914-21.175 69.524-0.208 2.738-0.365 5.198-0.543 7.263zM913.826 278.635c-6.669 19.505-28.774 22.292-47.232 30.147-20.267 8.616-42.746 18.626-62.973 26.976-5.761 1.591-11.541 3.172-17.312 4.763-6.897 4.783-13.626 20.661-17.322 28.557-3.665 0.534-7.351 1.057-11.017 1.591 0.573 12.212 8.063 12.885 11.017 22.203 2.599 8.241 0.276 18.942 4.387 26.562 2.856 5.297 9.318 5.336 12.55 9.862 2.924 4.121 4.862 11.314 5.761 16.354 1.67 9.219 3.123 21.827-1.226 30.978-2.49 5.248-4.071 5.751-4.763 12.125-0.839 7.728 2.262 32.934 2.391 38.389 0.326 14.149-0.020 26.936-3.418 40.711 0 0-4.121 12.48-10.583 16.234l-12.875 2.233-7.964 7.441c-32.085 19.88-66.471 5.939-84.879-1.581-10.246-3.349-19.012-11.107-25.266-22.499-0.207-3.775-0.266-6.867-0.109-8.458 0.089-0.83 0.178-1.324 0.227-1.561 0.207-0.415 0.464-0.81 0.721-1.244 0.938-1.621 2.233-3.834 3.676-6.887 9.031-19.012 6.353-41.808 3.558-57.311-1.384-7.648-4.773-21.996-11.947-32.084-1.878-2.639-3.943-4.763-6.027-6.542 1.136-12.085 3.587-25.987 10.781-30.533 0.998-0.623 8.577-2.54 8.537-2.025 1.047-11.096 2.095-22.213 3.143-33.31 2.668-7.392 9.070-8.212 10.929-18.616l-8.202-2.025c-0.643-1.363-1.384-3.003-2.203-4.783 16.818-6.976 34.733-14.714 52.084-22.243 11.749-5.089 23.408-10.138 34.574-14.891 5.079-2.164 10.563-4.071 16.363-6.097 22.974-8.013 51.58-18.003 62.42-49.703l1.236-3.597v-3.805c0-7.035 0.266-18.379 0.564-30.394 0.129-5.474 0.257-11.146 0.385-16.808h90.907c0.356 17.341-0.889 48.635-0.889 61.877zM619.168 670.020c4.763-19.328 5.237-37.262 4.803-57.104-0.178-7.648-4.536-43.023-3.349-53.853 0.968-8.943 3.192-9.654 6.68-17.035 6.097-12.826 4.062-30.504 1.719-43.438-1.284-7.075-3.982-17.164-8.092-22.934-4.536-6.373-13.596-6.413-17.609-13.844-5.77-10.691-2.51-25.711-6.156-37.262-4.13-13.102-14.664-14.021-15.464-31.166 5.167-0.741 10.317-1.482 15.464-2.233 5.167-11.077 14.634-33.359 24.298-40.059 8.092-2.243 16.195-4.467 24.298-6.68 28.369-11.739 59.9-25.77 88.338-37.854 25.899-11.017 56.896-14.94 66.264-42.302 0-18.567 1.739-62.45 1.254-86.807h-564.079c-0.464 24.358 1.264 68.239 1.264 86.807 9.367 27.371 40.356 31.293 66.254 42.302 28.438 12.075 59.97 26.116 88.338 37.854 8.102 2.214 16.205 4.446 24.298 6.68 9.673 6.7 19.13 28.982 24.297 40.059l11.502 2.826c-2.609 14.634-11.601 15.76-15.355 26.126-1.463 15.572-2.935 31.175-4.407 46.748 0.059-0.741-10.583 1.946-11.965 2.826-14.999 9.486-15.306 47.954-16.749 63.951-0.652 7.312 9.427 13.31 6.62 26.719-16.433 78.516 7.114 131.608 44.347 143.782 25.84 10.563 74.089 30.138 119.088 2.233l11.175-10.435 18.063-3.143c9.070-5.277 14.861-22.767 14.861-22.767z" />
<glyph unicode="&#xe921;" glyph-name="cj-user4" d="M309.312 496.897c-21.504 44.992-32.896 94.592-32.896 145.856 0 78.656 27.2 150.848 72.256 208.384-8.384 1.217-16.896 2.048-25.536 2.112-0.576 0-1.152 0.064-1.728 0.064-109.888 0-198.912-89.088-198.912-198.976 0-54.784 22.144-104.512 58.048-140.416-106.88-39.232-180.544-121.728-180.544-217.024 0-37.376 47.616-79.873 120.576-109.632v0.512c0 121.984 71.488 235.776 188.736 309.12zM794.304 464.064c45.632 45.76 73.856 108.928 73.856 178.688 0 139.072-112.192 251.904-251.008 253.12-0.704 0.064-1.408 0.128-2.176 0.128h-0.064c-139.84 0-253.184-113.344-253.184-253.247 0-69.76 28.224-132.928 73.92-178.752-136-49.92-229.696-154.88-229.696-276.288 0-83.712 187.52-187.776 409.024-187.776 226.624 0.064 409.024 101.76 409.024 187.84 0 121.408-93.696 226.304-229.696 276.288z" />
<glyph unicode="&#xe922;" glyph-name="cj-manager" d="M639.739 61.149l-4.918 2.075-6.856 3.99c-30.967 13.139-52.842 43.956-52.842 79.142v34.83c0 24.535 10.078 46.605 26.232 62.197 0 0 11.006 11.602 15.225 14.836 6.237 4.368 23.342 7.991 23.342 7.991-9.309 33.672 3.027 70.589 31.333 91.318-45.407 28.904-100.741 46.066-160.082 46.066-0.017 0-0.033 0-0.050 0h-179.686c-166.986 0-302.833-136.237-302.833-303.463v-18.080c0-87.5 133.715-87.5 302.833-87.5h179.7c48.439 0 94.998 0 136.397 2.293-6.78 12.056-10.774 26.464-10.774 41.805 0 8.003 1.087 15.753 3.122 23.109l-0.143-0.608zM412.357 426.821c132.201 0 239.73 107.873 239.73 240.475s-107.529 240.487-239.73 240.487c-132.247 0-239.959-107.884-239.959-240.487s107.712-240.475 239.959-240.475zM970.409 209.814c-24.535 1.731-43.337 21.726-43.337 45.699 0 7.429 1.697 14.274 5.102 20.568 6.283 13.139 1.697 29.705-11.396 37.135l-15.409 9.137-14.836 8.553c-13.093 7.429-29.063 3.428-37.616-8.553-7.991-12.565-22.265-20.556-38.247-20.556-15.925 0-30.198 7.991-38.189 20.556-8.553 11.981-24.523 15.971-37.662 8.553l-15.925-8.553-14.836-8.587c-13.139-7.418-17.679-23.984-11.396-37.123 3.405-6.294 5.102-13.139 5.102-20.556 0-24.558-18.802-43.979-43.337-45.71v-0.562c-14.836-1.135-26.232-13.139-26.232-28.547v-34.853c0-14.836 11.958-27.412 26.232-28.547l0.573-0.573c23.962-1.158 42.775-21.13 42.775-45.71 0-7.418-1.697-14.274-5.102-20.556-6.283-13.139-1.754-29.705 11.396-37.135l30.21-17.69c13.139-7.429 29.683-3.428 37.674 8.576 7.991 12.554 22.219 20.568 38.189 20.568s30.244-8.576 38.235-20.568c8.553-12.004 24.535-16.59 37.628-8.576l30.244 17.69c12.52 7.429 17.679 23.434 11.385 36.561 0 0 0 0.562-0.562 0.562-0.562 0.573-0.562 1.158-1.135 1.731l-0.562 0.573c-2.183 5.216-3.451 11.277-3.451 17.634 0 0.024 0 0.048 0 0.072v-0.004c0 24.558 18.86 43.979 42.775 45.71l0.562 0.562c14.729 1.049 26.28 13.255 26.28 28.159 0 0.137-0.001 0.273-0.003 0.409v-0.021 35.988c1.101 14.847-10.903 26.862-25.131 27.986zM880.845 139.557c-2.843-7.991-7.429-15.409-12.52-21.692-10.307-12.004-25.097-21.13-41.652-23.996-3.697-0.617-8.036-1.025-12.45-1.133l-0.116-0.002c-3.978 0-8.553 0.562-12.531 1.135-16.544 2.855-31.391 11.981-41.64 23.996-5.721 6.283-9.688 13.701-12.577 21.692-2.841 7.109-4.505 15.348-4.54 23.97v0.015c0 8.576 1.708 16.555 3.978 24.019 2.878 7.991 6.856 15.409 12.565 21.692 10.261 12.565 25.097 21.118 42.202 23.984 3.978 0.562 7.991 1.135 12.531 1.135 4.586 0 8.553-0.562 12.577-1.135 16.544-2.866 31.333-11.981 42.202-23.984 5.102-6.283 9.688-13.701 12.52-21.692 2.889-7.452 4.013-15.432 4.013-24.019-0.032-8.638-1.704-16.877-4.721-24.433l0.158 0.449z" />
<glyph unicode="&#xe923;" glyph-name="cj-share" d="M769.714 370.453c-51.754 0-97.702-24.851-126.571-63.269l-248.664 124.757c3.93 13.798 6.034 28.364 6.034 43.424 0 16.496-2.527 32.399-7.211 47.35l247.724 124.288c28.71-40.052 75.647-66.151 128.687-66.151 87.388 0 158.229 70.84 158.229 158.229s-70.841 158.229-158.229 158.229-158.229-70.841-158.229-158.229c0-6.046 0.352-12.009 1.011-17.88l-261.275-131.085c-28.371 26.943-66.723 43.479-108.938 43.479-87.388 0-158.229-70.84-158.229-158.229s70.84-158.229 158.229-158.229c43.752 0 83.354 17.758 111.997 46.459l258.676-129.779c-0.964-7.062-1.474-14.266-1.474-21.592 0-87.389 70.84-158.229 158.229-158.229s158.229 70.84 158.229 158.229c-0.001 87.387-70.836 158.228-158.225 158.228v0z" />
<glyph unicode="&#xe924;" glyph-name="cj-analyze" d="M472.293 100.331h170.755v365.486c0 39.623-38.959 71.732-78.538 71.732h-92.217c-39.602 0-71.689-32.108-71.689-71.732v-278.064h-0.257v-87.165h69.484c0.814-0.043 1.627-0.257 2.462-0.257zM757.656 101.079h170.778v607.204c0 39.612-32.11 71.732-71.711 71.732h-99.066c-39.58 0-71.667-32.12-71.667-71.732v-519.781h-0.258v-87.165h69.484c0.816-0.043 1.607-0.258 2.442-0.258zM6.691 79.663v-70.244h1009.101v70.244h-1009.101zM181.428 98.962h176.237v719.905c0 39.601-21.15 71.72-60.729 71.72h-108.657c-39.602 0-71.69-32.12-71.69-71.72v-631.114h-0.256v-88.535h62.635c0.834-0.032 1.626-0.256 2.46-0.256z" />
<glyph unicode="&#xe925;" glyph-name="cj-write-reported" d="M307.2 235.52v15.36c0 7.68 7.68 15.36 15.36 15.36h217.6l7.68 7.68 117.76 115.2h-343.040c-7.68 0-15.36 7.68-15.36 15.36v15.36c0 7.68 7.68 15.36 15.36 15.36h391.68l151.040 148.48v250.88c0 15.36-12.8 28.16-28.16 28.16h-437.76l-199.68-2.56c-20.48 2.56-33.28-15.36-33.28-30.72v-755.2c0-15.36 15.36-33.28 30.72-30.72h235.52l48.64 145.92v2.56c0 5.12 5.12 25.6 5.12 30.72h-166.4c-5.12-2.56-12.8 5.12-12.8 12.8zM307.2 609.28c0 7.68 7.68 15.36 15.36 15.36h404.48c7.68 0 15.36-7.68 15.36-15.36v-15.36c0-7.68-7.68-15.36-15.36-15.36h-404.48c-7.68 0-15.36 7.68-15.36 15.36v15.36zM967.68 427.52l-71.68 69.12c-10.24 10.24-28.16 7.68-40.96-2.56l-38.4-38.4 107.52-104.96 38.4 38.4c12.8 10.24 12.8 28.16 5.12 38.4zM591.36 235.52l-48.64-43.52c-2.56 0-5.12-5.12-5.12-10.24v-2.56l-43.52-130.56c-2.56-5.12 0-7.68 2.56-10.24s7.68-2.56 10.24-2.56l133.12 40.96h2.56c5.12 0 7.68 5.12 10.24 5.12l256 248.32-107.52 104.96-209.92-199.68z" />
<glyph unicode="&#xe926;" glyph-name="cj-comment" d="M511.956 959.901c-2.763 0.061-6.020 0.096-9.284 0.096-244.67 0-443.613-195.785-448.706-439.235l-0.008-0.475c3.304-205.354 146.021-376.461 337.476-423.007l3.026-0.621 380.066-159.86-48.358 187.835c162.258 64.743 243.786 248.981 243.786 397.251-5.98 243.225-204.57 438.112-448.679 438.112-3.277 0-6.545-0.035-9.806-0.105l0.486 0.008zM392.061 448.35h-119.895v119.895h119.895v-119.895zM584.692 448.35h-119.895v119.895h119.895v-119.895zM777.323 448.35h-119.895v119.895h119.895v-119.895z" />
<glyph unicode="&#xe927;" glyph-name="cj-comment2" d="M812.814 873.906h-602.649c-80.807 0-146.542-65.451-146.542-145.893v-387.741c0-80.451 65.734-145.893 146.542-145.893h20.348c-5.487-61.402-33.553-110.087-43.055-125.005-7.293-11.464-6.252-26.109 2.596-36.437 6.041-7.039 14.631-10.843 23.471-10.843 4.125 0 8.296 0.843 12.293 2.542 114.617 49.089 172.746 133.497 193.417 169.743h393.578c80.806 0 146.541 65.441 146.541 145.893v387.741c0 80.442-65.734 145.893-146.541 145.893zM321.643 649.399h182.425c16.013 0 28.996-12.925 28.996-28.867s-12.984-28.859-28.996-28.859h-182.425c-16.013 0-28.995 12.916-28.995 28.859s12.983 28.867 28.995 28.867zM686.492 419.151h-364.849c-16.013 0-28.995 12.917-28.995 28.851 0 15.941 12.983 28.866 28.995 28.866h364.849c16.012 0 28.985-12.925 28.985-28.866 0.001-15.935-12.972-28.851-28.985-28.851z" />
<glyph unicode="&#xe928;" glyph-name="cj-evaluate3" d="M1014.536 538.467c18.798 19.245 7.943 51.688-18.652 55.747l-296.67 45.271c-11.090 1.738-20.224 8.785-24.833 18.411l-0.086 0.199-132.39 281.754c-11.896 25.318-47.908 25.318-59.805 0l-132.39-281.753c-4.695-9.825-13.828-16.872-24.732-18.586l-0.187-0.024-296.677-45.272c-26.595-4.058-37.449-36.5-18.652-55.747l216.623-221.786c5.815-5.949 9.403-14.097 9.403-23.083 0-1.881-0.157-3.725-0.459-5.519l0.027 0.194-51.044-312.671c-4.443-27.215 24.44-47.575 48.578-34.246l263.441 145.47c4.606 2.591 10.11 4.117 15.971 4.117s11.365-1.526 16.137-4.203l-0.166 0.086 263.439-145.468c24.14-13.33 53.022 7.032 48.578 34.247l-51.052 312.669c-0.275 1.6-0.432 3.444-0.432 5.324 0 8.987 3.588 17.136 9.409 23.093l-0.006-0.006 216.625 221.784z" />
<glyph unicode="&#xe929;" glyph-name="cj-evaluate2" d="M512 832l119.467-238.933 264.533-38.4-192-187.733 46.933-264.533-238.933 123.733-238.933-123.733 46.933 264.533-192 187.733 264.533 38.4z" />
<glyph unicode="&#xe92a;" glyph-name="cj-emergency-notification" d="M945.872 245.909h-61.982v309.909c0 156.070-125.947 282.265-276.191 321.995-12.396 3.285-12.396 2.045-12.396 3.285 0 50.577-34.276 78.903-80.886 78.903s-90.307-26.466-90.307-79.956c0-0.992 0 0-16.797-4.897-145.843-42.643-267.203-166.483-267.203-319.33 0-0.868 0-1.054 0-0.93v-308.917h-61.982c-46.362 0-61.982-17.789-61.982-61.982s15.619-61.982 61.982-61.982h867.744c46.238 0 61.982 17.789 61.982 61.982s-15.743 61.92-61.982 61.92zM512-64c56.279 0 123.963 40.412 123.963 123.963h-247.927c0-75.804 67.56-123.963 123.963-123.963z" />
<glyph unicode="&#xe92b;" glyph-name="cj-emergency-site" d="M862.759 571.568v285.206h-153.529v-146.245l-197.374 175.522-511.857-453.445 65.839-80.406 446.018 394.89 446.018-394.89 65.839 80.406-160.955 138.961zM160.812 374.195v-365.612h270.496v255.929h160.955v-255.929h270.496v365.612l-350.902 314.341-351.045-314.341z" />
<glyph unicode="&#xe92c;" glyph-name="cj-emergency" d="M951.1 168.2l-379.7 628.2c-13.3 21.9-35.8 32.9-58.4 32.9-22.5 0-45-11-58.4-32.9l-379.6-628.2c-27.5-45.4 5.2-103.4 58.4-103.4h759.4c53.1 0 85.7 58 58.3 103.4zM515.6 655.4c23.3 0 47.4-18.9 47.4-42.2l-5.1-240c0-23.3-18.9-42.2-42.2-42.2s-42.2 18.9-42.2 42.2l-5.1 240c-0.1 23.3 23.9 42.2 47.2 42.2zM515.6 188.2c-28.8 0-52.1 23.3-52.1 52.1s23.3 52.1 52.1 52.1 52.1-23.3 52.1-52.1c0-28.9-23.3-52.1-52.1-52.1z" />
<glyph unicode="&#xe92d;" glyph-name="cj-business-management" d="M387.649 828.796c0-63.377 51.378-114.755 114.755-114.755s114.755 51.378 114.755 114.755v0c0 63.377-51.378 114.755-114.755 114.755s-114.755-51.378-114.755-114.755v0zM5.048 199.247c0-63.377 51.377-114.755 114.755-114.755s114.755 51.377 114.755 114.755v0c0 63.377-51.377 114.755-114.754 114.755s-114.755-51.377-114.755-114.755v0zM831.228 730.192c-35.476 35.476-75.678 64.506-119.182 86.52-1.529-26.822-8.114-52.309-18.815-75.526 116.528-65.696 196.063-189.572 198.9-331.943 26.5-0.017 51.862-4.979 75.227-13.992 0.026 2.039 0.074 4.074 0.074 6.118 0 124.213-48.372 240.992-136.204 328.823zM720.393 78.337c-62.264-42.152-137.302-66.794-217.988-66.794-78.66 0-151.938 23.44-213.259 63.671-15.5-20.956-34.169-38.533-55.484-52.378l-0.822-0.5c78.185-55.855 171.554-85.994 269.565-85.994 99.407 0 194.036 31.010 272.893 88.403-21.615 14.637-39.827 32.431-54.468 52.947l-0.437 0.645zM292.761 816.71c-43.503-22.013-83.705-51.043-119.18-86.519-87.833-87.83-136.204-204.609-136.204-328.821 0-2.986 0.053-5.963 0.108-8.94 23.225 9.934 48.588 15.79 75.19 16.682 2.791 142.426 82.339 266.359 198.902 332.075-10.703 23.218-17.287 48.704-18.817 75.525zM777.241 199.247c0-63.377 51.377-114.755 114.754-114.755s114.755 51.377 114.755 114.755v0c0 63.377-51.378 114.755-114.755 114.755s-114.755-51.378-114.755-114.755v0z" />
<glyph unicode="&#xe92e;" glyph-name="cj-info" d="M1024 441.661c0-276.407-229.23-505.661-518.339-505.661-276.407 0-505.661 229.23-505.661 505.661 0 289.134 229.23 518.339 505.661 518.339 289.134 0 518.339-229.23 518.339-518.339zM526.97 185.417h-17.774c20.187 0 36.815 16.311 37.303 36.45l7.387 296.862c0.012 0.342 0.019 0.743 0.019 1.146 0 19.511-15.817 35.328-35.328 35.328-0.015 0-0.030 0-0.045 0h-0.875c-19.992 0-35.864-16.335-35.352-36.474l7.339-296.862c0.488-20.114 17.213-36.474 37.327-36.474zM518.095 691.883c-24.325 0-44.044-19.719-44.044-44.044s19.719-44.044 44.044-44.044v0c24.325 0 44.044 19.719 44.044 44.044s-19.719 44.044-44.044 44.044v0z" />
<glyph unicode="&#xe92f;" glyph-name="zgsl" d="M962.068 445.681c-0.59-57.115-22.3-106.1-58.36-149.165-46.99-56.115-107.715-92.12-175.36-117.55-55.6-20.9-113.31-31.945-172.435-35.945-6.175-0.42-7.945-2.31-8.055-8.46-0.4-23.555-16.83-40.11-38.97-40-21.55 0.1-37.965 16.745-38.152 39.895-0.060 7.565-3.372 8.765-9.472 9.24-55.815 4.33-110.262 15.385-162.715 35.060-69.38 26.025-131.435 62.895-178.172 122.205-33.527 42.54-53.332 90.485-53.555 144.695-0.217 52.622 18.352 99.735 50.537 141.215 9.827 12.667 21.195 24.142 31.902 36.125 21.877 24.487 48.242 43.29 76.98 58.58 63.64 33.86 130.977 56.635 202.827 65.11 11.23 1.325 22.472 2.645 33.745 3.445 5.555 0.393 8.027 2.247 7.81 8.105-0.195 5.315 0.145 10.742 1.025 15.992 3.372 20.087 20.11 32.805 41.075 31.552 18.22-1.090 33.725-16.86 35.105-35.697 1.39-19.090 1.45-18.417 20.49-20.132 99.26-8.937 192.315-36.307 273.989-95.457 50.055-36.252 89.655-81.407 108.725-141.33 6.875-21.6 6.040-26.737 10.465-49.115-0.874-0.16 1.451-18.21 0.571-18.368zM469.776 207.562c0 156.17 0 311.794 0 468.499-58.6-4.865-114.312-17.265-168.197-42.915 2.332-3.377 5.995-4.837 8.16-7.51 14.955-18.47 31.535-35.995 43.975-56.065 34.312-55.37 43.73-115.1 25.125-178.27-14.49-49.19-43.587-88.885-80.937-123.1-4.075-3.73-8.155-7.46-12.397-11.345 33.004-22.339 129.441-48.109 184.271-49.294zM550.149 676.608c-0.21-4.033-0.47-6.66-0.47-9.287-0.030-150.797 0.030-301.594-0.21-452.394-0.010-7.75 2.925-8.965 9.505-8.375 48.845 4.36 96.635 13.57 142.68 30.77 11 4.105 21.725 8.945 33.895 13.99-3.645 3.27-5.91 5.090-7.94 7.15-17.32 17.565-36.38 33.77-51.56 53.035-42.32 53.725-61.3 114.585-48.385 183.115 9.805 52.045 36.395 95.157 73.505 132.192 4.12 4.115 8.92 7.552 13.4 11.302-0.54 1.060-1.080 2.12-1.62 3.18-51.906 20.527-105.801 32.075-162.8 35.322zM885.448 441.161c0.75 0.205-1.2 13.422-0.45 13.627-3.895 17.597-3.47 22.745-9.3 39.677-15.295 44.487-46.44 76.925-83.87 103.825-2.085 1.5-7.875 1.007-9.725-0.81-15.865-15.59-33.055-30.315-46.355-47.935-30.495-40.38-43.030-85.92-30.235-136.215 13.225-51.99 46.595-89.41 88.81-120.19 4.045-2.95 6.815-2.34 10.065 0.75 10.99 10.44 22.9 20.050 32.95 31.32 29.41 32.962 47.765 70.822 48.11 115.951zM311.622 448.094c-1.188 9.732-1.74 19.592-3.665 29.175-9.42 46.845-36.222 82.852-71.912 112.987-1.845 1.555-7.702 1.173-9.587-0.577-14.157-13.13-29.192-25.685-41.312-40.57-33.16-40.735-48.855-86.982-37.46-139.812 9.782-45.345 36.467-80.115 70.682-109.975 4.355-3.8 7.467-2.53 10.71 0.655 14.207 13.955 29.685 26.885 42.187 42.24 24.872 30.545 39.509 65.624 40.357 105.877z" />
<glyph unicode="&#xe930;" glyph-name="fullscreen" d="M17.92-64c-0.258-0.014-0.56-0.022-0.865-0.022-9.426 0-17.067 7.641-17.067 17.067 0 0.218 0.004 0.435 0.012 0.65l-0.001-0.031v369.067c0.126 2.326 1.459 4.313 3.379 5.359l0.034 0.017c0.738 0.327 1.598 0.517 2.503 0.517 1.674 0 3.196-0.652 4.327-1.715l-0.003 0.003 122.027-123.221 164.693 165.205c3.007 3.164 7.247 5.133 11.947 5.133s8.939-1.968 11.94-5.126l0.007-0.007 111.787-112.128c3.163-3.1 5.124-7.417 5.124-12.192 0-0.124-0.001-0.248-0.004-0.371v0.018c0.001-0.080 0.002-0.174 0.002-0.269 0-4.774-1.96-9.090-5.119-12.187l-0.003-0.003-163.84-165.12 118.613-119.467c1.236-1.114 2.010-2.72 2.010-4.507 0-0.677-0.111-1.328-0.316-1.935l0.012 0.043c-0.871-2.060-2.809-3.511-5.101-3.668l-0.019-0.001zM1006.933 957.867c4.707-0.117 8.925-2.122 11.94-5.284l0.006-0.007c3.165-3.204 5.12-7.609 5.12-12.472 0-0.025 0-0.051 0-0.076v0.004-367.957c-0.146-2.343-1.47-4.348-3.38-5.444l-0.033-0.017c-0.689-0.268-1.487-0.423-2.32-0.423-1.746 0-3.333 0.681-4.509 1.792l0.003-0.003-122.027 123.819-164.693-166.059c-2.785-3.202-6.865-5.215-11.416-5.215-0.187 0-0.372 0.003-0.557 0.010l0.027-0.001c-4.978 0.020-9.489 2.001-12.805 5.21l0.005-0.005-110.933 112.725c-3.168 3.23-5.123 7.659-5.123 12.544s1.955 9.314 5.125 12.547l-0.003-0.003 163.84 165.973-118.613 120.405c-1.236 1.114-2.010 2.72-2.010 4.507 0 0.677 0.111 1.328 0.316 1.935l-0.012-0.043c0.999 2.185 3.167 3.676 5.682 3.676 0.102 0 0.204-0.002 0.306-0.007l-0.014 0.001z" />
<glyph unicode="&#xe931;" glyph-name="handmove" horiz-adv-x="1021" d="M542.72 960h-2.56c-182.613-6.571-68.267-390.485-105.813-400.128-0.256-0.040-0.552-0.062-0.853-0.062s-0.597 0.023-0.886 0.066l0.032-0.004c-35.84 0 12.8 361.216-116.907 361.216-0.188 0.002-0.411 0.003-0.633 0.003-2.484 0-4.931-0.156-7.333-0.46l0.286 0.029c-203.947-22.357-14.507-542.123-54.613-545.707h-0.853c-35.84 0-79.36 213.333-162.987 213.333-0.103 0.001-0.226 0.001-0.348 0.001-2.891 0-5.724-0.249-8.479-0.726l0.294 0.042c-205.653-32.939 34.987-421.888 108.373-512 41.793-52.338 88.020-98.213 138.997-138.323l1.803-1.368h397.653c59.337 43.292 107.164 98.789 140.433 163.042l1.22 2.59c67.276 98.374 116.732 214.548 140.736 339.766l0.917 5.749c29.867 209.493 0 293.461-63.147 293.461-13.334-0.425-25.884-3.302-37.371-8.192l0.678 0.256c-55.467-21.589-52.053-253.952-88.747-253.952h-1.707c-23.040 3.072 120.32 428.971-63.147 441.515h-5.12c-144.213 0-82.773-395.179-104.107-395.179v0c-39.253 3.157 47.787 434.517-105.813 434.517v0z" />
<glyph unicode="&#xe932;" glyph-name="map-alarm" horiz-adv-x="1126" d="M1101.125 211.873l-378.645 656.143c-32.387 55.366-91.556 91.967-159.274 91.967s-126.886-36.6-158.804-91.098l-0.47-0.868-378.973-656.143c-15.49-26.377-24.638-58.096-24.638-91.952 0-101.567 82.337-183.904 183.904-183.904 0.003 0 0.006 0 0.009 0h757.618c0.003 0 0.006 0 0.008 0 101.567 0 183.904 82.337 183.904 183.904 0 33.856-9.149 65.575-25.108 92.82l0.47-0.868zM1072.554 44.389c-26.205-45.443-74.527-75.539-129.878-75.539-0.521 0-1.042 0.003-1.561 0.008l0.079-0.001h-756.962c-0.159-0.001-0.347-0.001-0.535-0.001-83.43 0-151.064 67.634-151.064 151.064 0 27.81 7.515 53.866 20.625 76.246l-0.386-0.713 378.973 656.8c26.479 45.996 75.361 76.466 131.36 76.466s104.88-30.47 130.971-75.734l0.389-0.731 378.973-656.8c12.679-21.494 20.169-47.358 20.169-74.971 0-28.070-7.74-54.333-21.203-76.77l0.377 0.677zM651.217 828.608c-17.927 30.655-50.685 50.92-88.175 50.92s-70.248-20.265-87.915-50.44l-0.26-0.481-378.973-656.8c-8.575-14.602-13.639-32.16-13.639-50.902 0-56.171 45.492-101.716 101.642-101.804h757.956c0.052 0 0.113 0 0.175 0 56.225 0 101.804 45.579 101.804 101.804 0 18.742-5.064 36.3-13.899 51.383l0.26-0.48zM643.007 176.406c0-41.352-33.523-74.875-74.875-74.875h-3.612c-41.352 0-74.875 33.523-74.875 74.875v0 3.612c0 41.352 33.523 74.875 74.875 74.875v0h3.612c41.352 0 74.875-33.523 74.875-74.875v0zM673.548 549.468l-23.645-183.904c-5.611-43.32-42.273-76.44-86.67-76.44-6.407 0-12.652 0.69-18.666 1.999l0.577-0.105c-36.971 8.757-64.756 39.538-68.928 77.429l-0.036 0.402-22.988 180.62c-0.523 4.046-0.821 8.726-0.821 13.475 0 61.303 49.696 110.999 110.999 110.999s110.999-49.696 110.999-110.999c0-4.75-0.298-9.429-0.877-14.022l0.056 0.547z" />
<glyph unicode="&#xe933;" glyph-name="subtraction" d="M0 550.4h1024v-204.8h-1024v204.8z" />
<glyph unicode="&#xe934;" glyph-name="layer" d="M994.011 408.21l-463.726-172.325c-5.335-2.084-11.512-3.292-17.97-3.292-0.111 0-0.222 0-0.332 0.001h0.017c-0.008 0-0.017 0-0.026 0-6.558 0-12.835 1.207-18.619 3.412l0.359-0.12h-0.731l-462.994 172.325c-17.098 5.658-29.337 21.213-29.986 39.715l-0.002 0.075c1.353 24.117 21.239 43.161 45.574 43.161 0.95 0 1.893-0.029 2.829-0.086l-0.128 0.006c6.571-0.028 12.852-1.233 18.656-3.413l-0.37 0.122 445.44-165.449 445.44 165.449c5.433 2.059 11.715 3.263 18.273 3.291h0.012c0.807 0.051 1.75 0.080 2.701 0.080 24.334 0 44.221-19.044 45.568-43.042l0.005-0.119c-0.652-18.577-12.891-34.131-29.682-39.702l-0.306-0.088zM994.011 594.944l-463.726-172.251c-5.335-2.084-11.512-3.292-17.97-3.292-0.111 0-0.222 0-0.332 0.001h0.017c-0.008 0-0.017 0-0.026 0-6.558 0-12.835 1.207-18.619 3.412l0.359-0.12h-0.731l-462.994 172.251c-17.419 5.177-29.905 21.043-29.905 39.826s12.487 34.649 29.612 39.751l0.293 0.075 463.726 172.251c5.433 2.084 11.719 3.291 18.286 3.291s12.852-1.207 18.646-3.411l-0.36 0.12h0.731l462.994-172.251c17.419-5.177 29.905-21.043 29.905-39.826s-12.487-34.649-29.612-39.751l-0.293-0.075zM48.274 304.274c6.567-0.039 12.847-1.215 18.67-3.341l-0.385 0.123 445.44-165.376 445.44 165.376c5.438 2.003 11.719 3.179 18.269 3.218h0.017c0.808 0.051 1.753 0.080 2.705 0.080 24.309 0 44.179-19.004 45.564-42.966l0.006-0.122c-0.643-18.599-12.881-34.178-29.682-39.774l-0.307-0.089-462.994-172.251s-0.731 0-0.731 0v0c-5.335-2.084-11.512-3.292-17.97-3.292-0.111 0-0.222 0-0.332 0.001h0.017c-0.008 0-0.017 0-0.026 0-6.558 0-12.835 1.207-18.619 3.412l0.359-0.12s-0.731 0-0.731 0l-462.994 172.251c-17.107 5.685-29.346 21.264-29.987 39.789l-0.002 0.074c1.391 24.084 21.261 43.088 45.57 43.088 0.951 0 1.896-0.029 2.833-0.087l-0.129 0.006z" />
<glyph unicode="&#xe935;" glyph-name="lend" d="M0 521.143v-146.286h1024v146.286h-1024zM512 740.571c161.583 0 292.571-130.989 292.571-292.571s-130.989-292.571-292.571-292.571c-161.583 0-292.571 130.989-292.571 292.571v0c0 161.583 130.989 292.571 292.571 292.571v0z" />
<glyph unicode="&#xe936;" glyph-name="waterlogo" d="M1023.472 442.849c-1.326-65.272-26.41-124.441-66.924-169.444l0.209 0.236c-53.053-59.933-120.588-105.868-197.175-132.44l-3.281-0.99c-58.066-21.879-125.238-36.467-195.209-40.681l-1.927-0.093c-0.46 0.094-0.99 0.148-1.531 0.148-4.404 0-7.975-3.57-7.975-7.975 0-0.625 0.072-1.233 0.208-1.816l-0.011 0.054c0.010-0.348 0.016-0.758 0.016-1.17 0-24.352-19.742-44.094-44.094-44.094s-44.094 19.742-44.094 44.094c0 0.411 0.006 0.821 0.017 1.23l-0.001-0.060c0.085 0.467 0.133 1.004 0.133 1.553 0 5.038-4.084 9.123-9.123 9.123-0.651 0-1.287-0.068-1.899-0.198l0.060 0.011c-68.146 4.903-131.481 19.079-190.876 41.322l4.694-1.541c-81.86 27.704-150.767 75.624-203.118 137.922l-0.565 0.69c-37.172 44.127-60.073 101.346-61.003 163.888l-0.002 0.2c0.27 61.103 22.051 117.068 58.154 160.763l-0.344-0.429c11.233 14.367 24.235 27.369 36.461 40.96 24.755 26.685 53.855 48.911 86.253 65.645l1.749 0.822c67.082 36.907 145.439 62.986 228.642 73.517l3.247 0.335c12.816 1.52 25.693 3.103 38.571 3.91 0.409-0.077 0.88-0.12 1.361-0.12 4.284 0 7.758 3.473 7.758 7.758 0 0.592-0.066 1.169-0.192 1.724l0.010-0.052c-0.044 1.044-0.069 2.269-0.069 3.5 0 5.175 0.443 10.248 1.292 15.18l-0.075-0.528c3.497 20.466 21.104 35.848 42.303 35.848 1.648 0 3.274-0.093 4.873-0.274l-0.196 0.018c21.41-1.933 38.307-18.904 40.111-40.177l0.011-0.162c1.583-21.721 1.645-20.883 23.428-22.838 117.902-7.422 225.306-46.845 315.228-109.592l-2.008 1.327c57.225-38.331 100.635-93.371 123.621-158.086l0.687-2.217c4.863-15.657 9.040-34.543 11.725-53.906l0.221-1.948c-0.993-0.186 1.676-20.666 0.652-20.821v0zM460.676 172.885v531.301c-70.655-4.75-136.13-22.203-195.743-50.097l3.355 1.41c2.903-2.951 5.938-5.74 9.108-8.371l0.201-0.162c17.17-19.061 33.685-39.792 48.911-61.493l1.389-2.088c24.699-37.011 39.414-82.516 39.414-131.457 0-25.249-3.916-49.583-11.175-72.428l0.464 1.692c-18.149-55.968-50.195-103.219-92.13-139.298l-0.403-0.338-14.15-12.878c61.312-31.291 133.142-51.434 209.201-55.789l1.432-0.066zM552.588 704.9c-0.248-4.561-0.559-7.54-0.559-10.519q0-256.559-0.248-513.148c0-8.782 3.351-10.178 10.892-9.495 59.826 4.727 115.261 17.135 167.431 36.303l-4.335-1.394c12.598 4.655 24.824 10.147 38.757 15.856-4.158 3.693-6.765 5.772-9.061 8.099-20.837 19.057-40.087 38.68-58.234 59.298l-0.724 0.839c-37.099 43.101-59.69 99.612-59.69 161.4 0 16.381 1.588 32.391 4.618 47.885l-0.256-1.568c12.568 59.605 42.367 110.869 83.876 149.795l0.154 0.143c4.717 4.655 10.209 8.564 15.329 12.816l-1.862 3.6c-54.841 22.081-118.327 36.466-184.694 39.997l-1.487 0.063zM935.905 437.853c0.838 0.217-1.396 15.205-0.528 15.515-2.757 17.309-6.461 32.472-11.251 47.145l0.607-2.151c-19.302 49.343-52.566 89.721-94.911 117.339l-0.941 0.576c-1.387 0.622-3.005 0.984-4.708 0.984-2.393 0-4.618-0.714-6.476-1.942l0.044 0.027c-19.036-16.923-36.364-34.683-52.368-53.599l-0.632-0.766c-24.922-29.922-40.049-68.764-40.049-111.14 0-15.407 2-30.347 5.754-44.575l-0.272 1.215c17.036-57.378 53.040-104.67 100.6-135.745l0.931-0.571c1.39-1.351 3.289-2.184 5.383-2.184 2.489 0 4.703 1.177 6.116 3.004l0.013 0.018c12.412 11.854 26.19 22.745 37.671 35.53 33.094 34.071 53.86 80.272 55.013 131.316l0.004 0.222zM279.893 445.704c-1.365 11.047-1.986 22.218-4.189 33.078-12.246 52.497-41.583 96.781-81.71 127.769l-0.52 0.386c-1.429 0.692-3.108 1.096-4.882 1.096-2.251 0-4.35-0.651-6.118-1.775l0.046 0.028c-17.052-14.507-32.477-29.548-46.831-45.568l-0.397-0.45c-28.997-31.885-46.752-74.444-46.752-121.151 0-13.262 1.431-26.19 4.148-38.637l-0.218 1.192c12.959-50.848 41.521-93.72 80.203-124.378l0.476-0.364c1.437-1.677 3.558-2.733 5.925-2.733 2.695 0 5.071 1.369 6.469 3.45l0.018 0.028c17.138 15.298 32.875 30.937 47.745 47.376l0.476 0.535c27.683 32.166 44.94 74.002 46.137 119.836l0.005 0.251z" />
<glyph unicode="&#xe937;" glyph-name="map-fx" d="M395.258 600.615c0.421-63.16 51.72-114.198 114.939-114.198 63.48 0 114.941 51.461 114.941 114.941 0 63.219-51.038 114.518-114.158 114.939h-0.040c-63.535-0.252-114.942-51.815-114.942-115.385 0-0.105 0-0.209 0-0.313v0.016zM711.791 11.986c0-40.902-33.158-74.060-74.060-74.060h-255.063c-40.902 0-74.060 33.158-74.060 74.060v0l96.426 355.488c0 40.902 33.158 74.060 74.060 74.060v0h68.58c40.902 0 74.060-33.158 74.060-74.060v0l89.909-355.488zM180.187 438.127c-22.369 46.287-35.441 100.66-35.441 158.087 0 60.404 14.463 117.431 40.115 167.805l-0.971-2.101c25.889 50.652 61.222 92.993 104.023 126.16l0.846 0.631c11.052 6.898 18.297 18.993 18.297 32.779 0 21.269-17.242 38.511-38.511 38.511-0.653 0-1.301-0.016-1.946-0.048l0.091 0.004c-0.042 0-0.093 0-0.143 0-9.477 0-18.142-3.477-24.789-9.224l0.048 0.041v0.889c-53.19-41.197-96.22-92.846-126.5-152.094l-1.18-2.543c-29.933-58.601-47.472-127.821-47.472-201.138 0-69.619 15.815-135.545 44.049-194.38l-1.169 2.703h1.037c6.309-12.967 19.386-21.745 34.512-21.745 21.13 0 38.26 17.13 38.26 38.26 0 6.004-1.383 11.685-3.848 16.742l0.1-0.227zM400.294 783.247c0.005 0.225 0.007 0.49 0.007 0.755 0 21.106-17.109 38.215-38.215 38.215-9.6 0-18.373-3.54-25.086-9.386l0.046 0.039v0.889c-64.246-52.009-104.981-130.87-104.981-219.245 0-42.019 9.209-81.888 25.719-117.698l-0.722 1.747h0.741c6.191-13.3 19.442-22.354 34.808-22.354 21.14 0 38.277 17.137 38.277 38.277 0 5.774-1.278 11.249-3.568 16.158l0.099-0.235h0.889c-11.272 24.455-17.846 53.066-17.846 83.212 0 63.551 29.214 120.279 74.945 157.487l0.372 0.293c9.482 7.096 15.553 18.299 15.553 30.92 0 0.013 0 0.026 0 0.040v-0.002zM841.396 438.127c22.369 46.287 35.441 100.66 35.441 158.087 0 60.404-14.463 117.431-40.115 167.805l0.971-2.101c-25.807 50.632-61.042 92.97-103.737 126.166l-0.835 0.625c-11.039 6.9-18.274 18.988-18.274 32.765 0 21.269 17.242 38.511 38.511 38.511 0.54 0 1.078-0.011 1.613-0.033l-0.077 0.003c0.059 0 0.128 0.001 0.198 0.001 9.46 0 18.107-3.477 24.733-9.224l-0.047 0.040v0.889c53.248-41.185 96.328-92.836 126.648-152.097l1.18-2.54c29.979-58.662 47.547-127.958 47.547-201.357 0-69.704-15.843-135.707-44.125-194.605l1.169 2.703h-1.037c-6.309-12.967-19.386-21.745-34.512-21.745-21.13 0-38.26 17.13-38.26 38.26 0 6.004 1.383 11.685 3.848 16.742l-0.1-0.227zM621.289 783.247c-0.005 0.225-0.007 0.49-0.007 0.755 0 21.106 17.109 38.215 38.215 38.215 9.6 0 18.373-3.54 25.086-9.386l-0.046 0.039v0.889c64.246-52.009 104.981-130.87 104.981-219.245 0-42.019-9.209-81.888-25.719-117.698l0.722 1.747h-0.741c-6.191-13.3-19.442-22.354-34.808-22.354-21.14 0-38.277 17.137-38.277 38.277 0 5.774 1.278 11.249 3.568 16.158l-0.099-0.235h-0.889c11.272 24.455 17.846 53.066 17.846 83.212 0 63.551-29.214 120.279-74.945 157.487l-0.372 0.293c-9.482 7.096-15.553 18.299-15.553 30.92 0 0.013 0 0.026 0 0.040v-0.002z" />
<glyph unicode="&#xe939;" glyph-name="map-waterenvironment" d="M456.074 959.724c0 0 232.369-143.714 246.942-400.699l-0.080 0.899c0.799-7.283 1.209-14.683 1.209-22.179 0-103.748-78.565-189.146-180.329-200.022l0.854 0.080c-6.995-0.805-14.11-1.218-21.321-1.218-93.916 0-171.448 70.15-183.151 161.828l0.062-0.736c-0.606 5.876-0.917 11.839-0.917 17.874 0 37.004 11.675 71.28 31.181 98.81l0.005-0.001c-0.064 0.019-0.132 0.029-0.202 0.029s-0.138-0.010-0.197-0.028l-1.471-2.031c34.436 45.559 64.148 94.888 90.48 152.244l-0.772-1.896c17.356 38.147 27.023 80.531 27.023 125.174 0 22.191-2.389 43.823-6.558 62.657-0.788 3.033-1.969 6.105-2.757 9.137zM201.649-62.897c-57.895 0-116.185 46.356-160.295 139.146-1.478 3.493-2.337 7.554-2.337 11.815s0.859 8.323 2.413 12.020l-0.076-0.204c3.151 6.577 7.877 6.577 11.028 0 82.314-172.386 216.222-172.386 298.535 0 3.151 6.577 8.271 6.577 11.422 0 1.478-3.493 2.337-7.554 2.337-11.815s-0.859-8.323-2.413-12.020l0.076 0.204c-44.505-92.751-102.4-139.146-160.689-139.146v0zM511.212-63.252c-60.258 0-117.366 49.546-160.295 139.461-1.474 3.493-2.331 7.554-2.331 11.815s0.857 8.322 2.407 12.021l-0.076-0.205c3.151 6.538 8.271 6.538 11.422 0 39.778-83.614 92.554-129.615 148.874-129.615s109.489 46.001 149.268 129.615c3.151 6.538 8.271 6.538 11.422 0 1.474-3.493 2.331-7.554 2.331-11.815s-0.857-8.322-2.407-12.021l0.076 0.205c-42.929-89.915-100.037-139.461-160.689-139.461v0zM821.169-62.897c-58.289 0-116.185 46.356-160.689 139.146-1.478 3.493-2.337 7.554-2.337 11.815s0.859 8.323 2.413 12.020l-0.076-0.204c3.151 6.577 8.271 6.577 11.422 0 82.314-172.386 216.222-172.386 298.142 0 3.151 6.577 8.271 6.577 11.422 0 1.478-3.493 2.337-7.554 2.337-11.815s-0.859-8.323-2.413-12.020l0.076 0.204c-44.111-92.751-102.4-139.146-160.295-139.146v0zM201.649 111.498c-57.895 0-116.185 46.395-160.295 139.185-1.478 3.493-2.337 7.554-2.337 11.815s0.859 8.323 2.413 12.020l-0.076-0.204c3.151 6.538 7.877 6.538 11.028 0 82.314-172.386 216.222-172.386 298.535 0 3.151 6.538 8.271 6.538 11.422 0 1.478-3.493 2.337-7.554 2.337-11.815s-0.859-8.323-2.413-12.020l0.076 0.204c-44.505-92.79-102.4-139.185-160.689-139.185v0zM511.212 111.183c-60.258 0-117.366 49.546-160.295 139.461-1.478 3.493-2.337 7.554-2.337 11.815s0.859 8.323 2.413 12.020l-0.076-0.204c3.151 6.538 8.271 6.538 11.422 0 39.778-83.574 92.554-129.615 148.874-129.615s109.489 46.041 149.268 129.615c3.151 6.538 8.271 6.538 11.422 0 1.478-3.493 2.337-7.554 2.337-11.815s-0.859-8.323-2.413-12.020l0.076 0.204c-42.929-89.915-100.037-139.461-160.689-139.461v0zM821.169 111.498c-58.289 0-116.185 46.395-160.689 139.185-1.478 3.493-2.337 7.554-2.337 11.815s0.859 8.323 2.413 12.020l-0.076-0.204c3.151 6.538 8.271 6.538 11.422 0 82.314-172.386 216.222-172.386 298.142 0 3.151 6.538 8.271 6.538 11.422 0 1.478-3.493 2.337-7.554 2.337-11.815s-0.859-8.323-2.413-12.020l0.076 0.204c-44.111-92.79-102.4-139.185-160.295-139.185v0z" />
<glyph unicode="&#xe93a;" glyph-name="map-water-resource" d="M968.363 310.238c-60.36-198.602-241.865-340.643-456.545-340.643-222.924 0-410.075 153.159-461.968 359.99l-0.698 3.284 50.176 14.063c6.070-21.116 12.347-38.493 19.59-55.357l-1.158 3.031c66.305-155.283 217.712-262.134 394.076-262.134 118.215 0 225.218 48.008 302.575 125.59l0.010 0.010c38.004 38.234 68.962 83.522 90.732 133.72l1.087 2.814c4.846 7.729 9.855 16.95 14.323 26.475l0.696 1.651c-15.442 11.815-25.302 30.252-25.302 50.992 0 35.365 28.669 64.034 64.034 64.034s64.034-28.669 64.034-64.034c0-32.413-24.083-59.202-55.331-63.448l-0.331-0.037zM694.272 359.151c-4.307-100.453-86.79-180.26-187.912-180.26-0.297 0-0.594 0.001-0.891 0.002h0.046c-2.11-0.088-4.586-0.137-7.073-0.137-99.958 0-181.099 80.568-182.025 180.308l-0.001 0.088c0 104.311 132.437 189.542 189.099 398.165 84.992-256 188.757-293.99 188.757-398.165v0zM906.24 600.542c-22.861 53.010-53.819 98.297-91.841 136.556l0.022-0.022c-77.365 77.608-184.373 125.627-302.598 125.627-176.367 0-327.775-106.864-393.004-259.374l-1.060-2.786c-5.212-8.075-10.341-17.482-14.788-27.265l-0.572-1.407c16.468-11.913 27.059-31.071 27.059-52.702 0-35.818-29.036-64.853-64.853-64.853-33.823 0-61.598 25.892-64.587 58.936l-0.018 0.251c-0.201 1.918-0.316 4.144-0.316 6.396 0 32.557 23.991 59.511 55.258 64.148l0.354 0.043c60.017 199.042 241.708 341.514 456.675 341.514 222.897 0 410.018-153.177 461.839-360.009l0.696-3.282-50.176-14.063c-5.932 21.090-12.098 38.467-19.233 55.334l1.143-3.041z" />
<glyph unicode="&#xe93b;" glyph-name="map-agriculture" d="M151.742 902.656s-32.926-82.393-17.959-174.316c8.98-50.688 74.831-38.046 83.771-31.705 8.98 6.341 50.885 34.855 17.959 91.924-29.893 60.219-83.771 114.097-83.771 114.097zM220.547 617.433s-26.939 41.196 38.912 91.924c56.871 44.386 68.844 63.37 86.764 91.924 2.993-34.855 2.993-126.779-26.939-167.975-26.9-38.085-77.785-44.426-98.737-15.872zM232.52 503.335s0 44.386 44.898 69.711c56.871 34.855 101.73 82.393 98.737 98.225 2.993-22.174 8.98-120.438-26.939-183.808-20.953-41.196-44.898-47.537-62.858-47.537-44.859 3.19-50.846 41.236-53.839 63.409zM262.452 351.193s-2.993 38.046 32.926 69.711c44.898 31.705 86.764 60.219 104.724 104.566 11.973-19.023 14.966-133.12-23.946-196.49-23.946-38.046-35.919-38.046-68.844-25.364-44.859 12.721-44.859 47.577-44.859 47.577zM295.378 224.453c2.993 12.682 20.953 34.855 44.898 50.688s71.838 57.029 86.764 88.734c5.986-28.514 2.993-69.711-5.986-114.097-8.98-41.196-26.939-88.734-71.838-91.924-38.873-3.151-59.825 38.085-53.839 66.599zM2.12 769.536s86.764-82.393 140.642-82.393c53.878-3.151 56.871-47.537 47.892-69.711-5.986-12.682-38.912-63.37-92.751-28.514-53.878 34.855-107.756 136.271-95.783 180.618zM41.032 607.902s59.865-76.052 149.622-88.734c44.898-3.151 35.919-57.029 20.953-72.901-23.946-28.514-68.844-22.174-98.737 0-50.924 47.537-68.844 82.432-71.838 161.634zM64.939 452.608s47.892-47.537 158.602-76.052c41.905-12.682 32.926-47.537 20.953-63.37-11.973-19.023-32.926-38.046-65.851-28.514-47.852 12.642-104.724 69.711-113.703 167.936zM82.898 309.996s62.858-31.705 164.588-66.56c56.871-25.364 47.892-69.711 23.946-88.734-23.946-25.364-53.878-31.705-92.751 3.151-41.905 47.577-71.838 98.265-95.783 152.143zM256.466 132.529s65.851 3.151 71.838 12.682c5.986 6.341 14.966-193.3 14.966-193.3l-29.932-15.833c0-3.19-23.946 152.103-56.871 196.45zM902.452 487.030c-159.862 213.74-174.71 352.414-175.97 362.969h-0.158c-1.378-10.555-16.226-149.228-176.128-362.969-186.368-249.698-78.651-501.051 174.789-515.387h2.796c253.361 14.336 361.354 265.689 174.671 515.387zM706.671 119.257c-1.694-10.004-9.492-17.25-18.196-17.487-0.065-0.001-0.141-0.002-0.217-0.002-1.469 0-2.869 0.29-4.148 0.816l0.073-0.026c-95.783 22.686-115.83 119.060-112.798 167.030 0.748 12.012 9.767 20.795 20.165 20.047 10.516-0.906 18.393-11.343 17.605-23.355-0.276-4.45-4.135-100.903 82.905-121.502 10.161-2.245 16.817-13.824 14.612-25.521z" />
<glyph unicode="&#xf007;" glyph-name="uniF007" horiz-adv-x="805" d="M804.571 157.143q0-68.571-41.714-108.286t-110.857-39.714h-499.429q-69.143 0-110.857 39.714t-41.714 108.286q0 30.286 2 59.143t8 62.286 15.143 62 24.571 55.714 35.429 46.286 48.857 30.571 63.714 11.429q5.143 0 24-12.286t42.571-27.429 61.714-27.429 76.286-12.286 76.286 12.286 61.714 27.429 42.571 27.429 24 12.286q34.857 0 63.714-11.429t48.857-30.571 35.429-46.286 24.571-55.714 15.143-62 8-62.286 2-59.143zM621.714 667.429q0-90.857-64.286-155.143t-155.143-64.286-155.143 64.286-64.286 155.143 64.286 155.143 155.143 64.286 155.143-64.286 64.286-155.143z" />
<glyph unicode="&#xf009;" glyph-name="uniF009" horiz-adv-x="951" d="M438.857 374.857v-219.429q0-29.714-21.714-51.429t-51.429-21.714h-292.571q-29.714 0-51.429 21.714t-21.714 51.429v219.429q0 29.714 21.714 51.429t51.429 21.714h292.571q29.714 0 51.429-21.714t21.714-51.429zM438.857 813.714v-219.429q0-29.714-21.714-51.429t-51.429-21.714h-292.571q-29.714 0-51.429 21.714t-21.714 51.429v219.429q0 29.714 21.714 51.429t51.429 21.714h292.571q29.714 0 51.429-21.714t21.714-51.429zM950.857 374.857v-219.429q0-29.714-21.714-51.429t-51.429-21.714h-292.571q-29.714 0-51.429 21.714t-21.714 51.429v219.429q0 29.714 21.714 51.429t51.429 21.714h292.571q29.714 0 51.429-21.714t21.714-51.429zM950.857 813.714v-219.429q0-29.714-21.714-51.429t-51.429-21.714h-292.571q-29.714 0-51.429 21.714t-21.714 51.429v219.429q0 29.714 21.714 51.429t51.429 21.714h292.571q29.714 0 51.429-21.714t21.714-51.429z" />
<glyph unicode="&#xf00a;" glyph-name="uniF00A" d="M292.571 246.857v-109.714q0-22.857-16-38.857t-38.857-16h-182.857q-22.857 0-38.857 16t-16 38.857v109.714q0 22.857 16 38.857t38.857 16h182.857q22.857 0 38.857-16t16-38.857zM292.571 539.429v-109.714q0-22.857-16-38.857t-38.857-16h-182.857q-22.857 0-38.857 16t-16 38.857v109.714q0 22.857 16 38.857t38.857 16h182.857q22.857 0 38.857-16t16-38.857zM658.286 246.857v-109.714q0-22.857-16-38.857t-38.857-16h-182.857q-22.857 0-38.857 16t-16 38.857v109.714q0 22.857 16 38.857t38.857 16h182.857q22.857 0 38.857-16t16-38.857zM292.571 832v-109.714q0-22.857-16-38.857t-38.857-16h-182.857q-22.857 0-38.857 16t-16 38.857v109.714q0 22.857 16 38.857t38.857 16h182.857q22.857 0 38.857-16t16-38.857zM658.286 539.429v-109.714q0-22.857-16-38.857t-38.857-16h-182.857q-22.857 0-38.857 16t-16 38.857v109.714q0 22.857 16 38.857t38.857 16h182.857q22.857 0 38.857-16t16-38.857zM1024 246.857v-109.714q0-22.857-16-38.857t-38.857-16h-182.857q-22.857 0-38.857 16t-16 38.857v109.714q0 22.857 16 38.857t38.857 16h182.857q22.857 0 38.857-16t16-38.857zM658.286 832v-109.714q0-22.857-16-38.857t-38.857-16h-182.857q-22.857 0-38.857 16t-16 38.857v109.714q0 22.857 16 38.857t38.857 16h182.857q22.857 0 38.857-16t16-38.857zM1024 539.429v-109.714q0-22.857-16-38.857t-38.857-16h-182.857q-22.857 0-38.857 16t-16 38.857v109.714q0 22.857 16 38.857t38.857 16h182.857q22.857 0 38.857-16t16-38.857zM1024 832v-109.714q0-22.857-16-38.857t-38.857-16h-182.857q-22.857 0-38.857 16t-16 38.857v109.714q0 22.857 16 38.857t38.857 16h182.857q22.857 0 38.857-16t16-38.857z" />
<glyph unicode="&#xf00b;" glyph-name="uniF00B" d="M292.571 246.857v-109.714q0-22.857-16-38.857t-38.857-16h-182.857q-22.857 0-38.857 16t-16 38.857v109.714q0 22.857 16 38.857t38.857 16h182.857q22.857 0 38.857-16t16-38.857zM292.571 539.429v-109.714q0-22.857-16-38.857t-38.857-16h-182.857q-22.857 0-38.857 16t-16 38.857v109.714q0 22.857 16 38.857t38.857 16h182.857q22.857 0 38.857-16t16-38.857zM1024 246.857v-109.714q0-22.857-16-38.857t-38.857-16h-548.571q-22.857 0-38.857 16t-16 38.857v109.714q0 22.857 16 38.857t38.857 16h548.571q22.857 0 38.857-16t16-38.857zM292.571 832v-109.714q0-22.857-16-38.857t-38.857-16h-182.857q-22.857 0-38.857 16t-16 38.857v109.714q0 22.857 16 38.857t38.857 16h182.857q22.857 0 38.857-16t16-38.857zM1024 539.429v-109.714q0-22.857-16-38.857t-38.857-16h-548.571q-22.857 0-38.857 16t-16 38.857v109.714q0 22.857 16 38.857t38.857 16h548.571q22.857 0 38.857-16t16-38.857zM1024 832v-109.714q0-22.857-16-38.857t-38.857-16h-548.571q-22.857 0-38.857 16t-16 38.857v109.714q0 22.857 16 38.857t38.857 16h548.571q22.857 0 38.857-16t16-38.857z" />
<glyph unicode="&#xf029;" glyph-name="uniF029" horiz-adv-x="805" d="M219.429 301.714v-73.143h-73.143v73.143h73.143zM219.429 740.571v-73.143h-73.143v73.143h73.143zM658.286 740.571v-73.143h-73.143v73.143h73.143zM73.143 156h219.429v218.857h-219.429v-218.857zM73.143 594.286h219.429v219.429h-219.429v-219.429zM512 594.286h219.429v219.429h-219.429v-219.429zM365.714 448v-365.714h-365.714v365.714h365.714zM658.286 155.429v-73.143h-73.143v73.143h73.143zM804.571 155.429v-73.143h-73.143v73.143h73.143zM804.571 448v-219.429h-219.429v73.143h-73.143v-219.429h-73.143v365.714h219.429v-73.143h73.143v73.143h73.143zM365.714 886.857v-365.714h-365.714v365.714h365.714zM804.571 886.857v-365.714h-365.714v365.714h365.714z" />
<glyph unicode="&#xf073;" glyph-name="date-01" horiz-adv-x="951" d="M73.143 9.143h164.571v164.571h-164.571v-164.571zM274.286 9.143h182.857v164.571h-182.857v-164.571zM73.143 210.286h164.571v182.857h-164.571v-182.857zM274.286 210.286h182.857v182.857h-182.857v-182.857zM73.143 429.714h164.571v164.571h-164.571v-164.571zM493.714 9.143h182.857v164.571h-182.857v-164.571zM274.286 429.714h182.857v164.571h-182.857v-164.571zM713.143 9.143h164.571v164.571h-164.571v-164.571zM493.714 210.286h182.857v182.857h-182.857v-182.857zM292.571 704v164.571q0 7.429-5.429 12.857t-12.857 5.429h-36.571q-7.429 0-12.857-5.429t-5.429-12.857v-164.571q0-7.429 5.429-12.857t12.857-5.429h36.571q7.429 0 12.857 5.429t5.429 12.857zM713.143 210.286h164.571v182.857h-164.571v-182.857zM493.714 429.714h182.857v164.571h-182.857v-164.571zM713.143 429.714h164.571v164.571h-164.571v-164.571zM731.429 704v164.571q0 7.429-5.429 12.857t-12.857 5.429h-36.571q-7.429 0-12.857-5.429t-5.429-12.857v-164.571q0-7.429 5.429-12.857t12.857-5.429h36.571q7.429 0 12.857 5.429t5.429 12.857zM950.857 740.571v-731.429q0-29.714-21.714-51.429t-51.429-21.714h-804.571q-29.714 0-51.429 21.714t-21.714 51.429v731.429q0 29.714 21.714 51.429t51.429 21.714h73.143v54.857q0 37.714 26.857 64.571t64.571 26.857h36.571q37.714 0 64.571-26.857t26.857-64.571v-54.857h219.429v54.857q0 37.714 26.857 64.571t64.571 26.857h36.571q37.714 0 64.571-26.857t26.857-64.571v-54.857h73.143q29.714 0 51.429-21.714t21.714-51.429z" />
<glyph unicode="&#xf080;" glyph-name="chart-03" horiz-adv-x="1170" d="M365.714 448v-292.571h-146.286v292.571h146.286zM585.143 740.571v-585.143h-146.286v585.143h146.286zM1170.286 82.286v-73.143h-1170.286v877.714h73.143v-804.571h1097.143zM804.571 594.286v-438.857h-146.286v438.857h146.286zM1024 813.714v-658.286h-146.286v658.286h146.286z" />
<glyph unicode="&#xf085;" glyph-name="uniF085" horiz-adv-x="1097" d="M512 448q0 60.571-42.857 103.429t-103.429 42.857-103.429-42.857-42.857-103.429 42.857-103.429 103.429-42.857 103.429 42.857 42.857 103.429zM950.857 155.429q0 29.714-21.714 51.429t-51.429 21.714-51.429-21.714-21.714-51.429q0-30.286 21.429-51.714t51.714-21.429 51.714 21.429 21.429 51.714zM950.857 740.571q0 29.714-21.714 51.429t-51.429 21.714-51.429-21.714-21.714-51.429q0-30.286 21.429-51.714t51.714-21.429 51.714 21.429 21.429 51.714zM731.429 500v-105.714q0-5.714-4-11.143t-9.143-6l-88.571-13.714q-6.286-20-18.286-43.429 19.429-27.429 51.429-65.714 4-5.714 4-11.429 0-6.857-4-10.857-13.143-17.143-47.143-51.143t-44.857-34q-6.286 0-12 4l-65.714 51.429q-21.143-10.857-44-17.714-6.286-61.714-13.143-88.571-4-13.714-17.143-13.714h-106.286q-6.286 0-11.429 4.286t-5.714 10l-13.143 87.429q-19.429 5.714-42.857 17.714l-67.429-50.857q-4-4-11.429-4-6.286 0-12 4.571-82.286 76-82.286 91.429 0 5.143 4 10.857 5.714 8 23.429 30.286t26.857 34.857q-13.143 25.143-20 46.857l-86.857 13.714q-5.714 0.571-9.714 5.429t-4 11.143v105.714q0 5.714 4 11.143t9.143 6l88.571 13.714q6.286 20 18.286 43.429-19.429 27.429-51.429 65.714-4 6.286-4 11.429 0 6.857 4 11.429 12.571 17.143 46.857 50.857t45.143 33.714q6.286 0 12-4l65.714-51.429q19.429 10.286 44 18.286 6.286 61.714 13.143 88 4 13.714 17.143 13.714h106.286q6.286 0 11.429-4.286t5.714-10l13.143-87.429q19.429-5.714 42.857-17.714l67.429 50.857q4.571 4 11.429 4 6.286 0 12-4.571 82.286-76 82.286-91.429 0-5.143-4-10.857-6.857-9.143-24-30.857t-25.714-34.286q13.143-27.429 19.429-46.857l86.857-13.143q5.714-1.143 9.714-6t4-11.143zM1097.143 195.429v-80q0-9.143-85.143-17.714-6.857-15.429-17.143-29.714 29.143-64.571 29.143-78.857 0-2.286-2.286-4-69.714-40.571-70.857-40.571-4.571 0-26.286 26.857t-29.714 38.857q-11.429-1.143-17.143-1.143t-17.143 1.143q-8-12-29.714-38.857t-26.286-26.857q-1.143 0-70.857 40.571-2.286 1.714-2.286 4 0 14.286 29.143 78.857-10.286 14.286-17.143 29.714-85.143 8.571-85.143 17.714v80q0 9.143 85.143 17.714 7.429 16.571 17.143 29.714-29.143 64.571-29.143 78.857 0 2.286 2.286 4 2.286 1.143 20 11.429t33.714 19.429 17.143 9.143q4.571 0 26.286-26.571t29.714-38.571q11.429 1.143 17.143 1.143t17.143-1.143q29.143 40.571 52.571 64l3.429 1.143q2.286 0 70.857-40 2.286-1.714 2.286-4 0-14.286-29.143-78.857 9.714-13.143 17.143-29.714 85.143-8.571 85.143-17.714zM1097.143 780.571v-80q0-9.143-85.143-17.714-6.857-15.429-17.143-29.714 29.143-64.571 29.143-78.857 0-2.286-2.286-4-69.714-40.571-70.857-40.571-4.571 0-26.286 26.857t-29.714 38.857q-11.429-1.143-17.143-1.143t-17.143 1.143q-8-12-29.714-38.857t-26.286-26.857q-1.143 0-70.857 40.571-2.286 1.714-2.286 4 0 14.286 29.143 78.857-10.286 14.286-17.143 29.714-85.143 8.571-85.143 17.714v80q0 9.143 85.143 17.714 7.429 16.571 17.143 29.714-29.143 64.571-29.143 78.857 0 2.286 2.286 4 2.286 1.143 20 11.429t33.714 19.429 17.143 9.143q4.571 0 26.286-26.571t29.714-38.571q11.429 1.143 17.143 1.143t17.143-1.143q29.143 40.571 52.571 64l3.429 1.143q2.286 0 70.857-40 2.286-1.714 2.286-4 0-14.286-29.143-78.857 9.714-13.143 17.143-29.714 85.143-8.571 85.143-17.714z" />
<glyph unicode="&#xf09d;" glyph-name="car-01" horiz-adv-x="1097" d="M1005.714 886.857q37.714 0 64.571-26.857t26.857-64.571v-694.857q0-37.714-26.857-64.571t-64.571-26.857h-914.286q-37.714 0-64.571 26.857t-26.857 64.571v694.857q0 37.714 26.857 64.571t64.571 26.857h914.286zM91.429 813.714q-7.429 0-12.857-5.429t-5.429-12.857v-128h950.857v128q0 7.429-5.429 12.857t-12.857 5.429h-914.286zM1005.714 82.286q7.429 0 12.857 5.429t5.429 12.857v347.429h-950.857v-347.429q0-7.429 5.429-12.857t12.857-5.429h914.286zM146.286 155.429v73.143h146.286v-73.143h-146.286zM365.714 155.429v73.143h219.429v-73.143h-219.429z" />
<glyph unicode="&#xf0c9;" glyph-name="reorder" d="M877.714 192v-73.143q0-14.857-10.857-25.714t-25.714-10.857h-804.571q-14.857 0-25.714 10.857t-10.857 25.714v73.143q0 14.857 10.857 25.714t25.714 10.857h804.571q14.857 0 25.714-10.857t10.857-25.714zM877.714 484.571v-73.143q0-14.857-10.857-25.714t-25.714-10.857h-804.571q-14.857 0-25.714 10.857t-10.857 25.714v73.143q0 14.857 10.857 25.714t25.714 10.857h804.571q14.857 0 25.714-10.857t10.857-25.714zM877.714 777.143v-73.143q0-14.857-10.857-25.714t-25.714-10.857h-804.571q-14.857 0-25.714 10.857t-10.857 25.714v73.143q0 14.857 10.857 25.714t25.714 10.857h804.571q14.857 0 25.714-10.857t10.857-25.714z" />
<glyph unicode="&#xf100;" glyph-name="alert-circled" d="M890 116c6-10 10-26 4-36s-16-16-28-16h-836c-12 0-22 6-28 16s-2 26 4 36l414 698c6 10 16 18 28 18s22-8 28-18zM512 160v96h-128v-96h128zM512 320v288h-128v-288h128z" />
<glyph unicode="&#xf101;" glyph-name="alert" horiz-adv-x="256" d="M256 0h-256v192h256v-192zM224 320h-192l-32 576h256z" />
<glyph unicode="&#xf102;" glyph-name="archive" d="M448 344l-256 232h160v192h192v-192h160zM866 366c22-12 34-38 30-64l-18-134c-4-26-18-40-56-40h-748c-36 0-52 14-56 40l-18 134c-4 26 6 52 28 64l144 110h84l-124-124h100c4 0 10-2 12-6l36-90h336l36 90c2 4 6 6 10 6h102l-124 124h84z" />
<glyph unicode="&#xf103;" glyph-name="arrow-down-a" horiz-adv-x="768" d="M384 64l-384 384h224v384h320v-384h224z" />
<glyph unicode="&#xf104;" glyph-name="arrow-down-b" horiz-adv-x="640" d="M6 590c-4 4-6 12-6 18 0 18 16 32 34 32v0h572c18 0 34-14 34-32 0-6-2-12-6-16l-4-6-272-312c-10-10-22-18-38-18s-28 8-38 18l-272 312z" />
<glyph unicode="&#xf105;" glyph-name="arrow-down-c" horiz-adv-x="548" d="M530 314l-210-200c-12-12-28-18-46-18s-32 6-44 18l-212 200c-24 24-24 62 0 86s68 24 92 0l100-96v434c0 34 28 62 64 62s64-28 64-62v-434l100 96c24 24 68 24 92 0s24-62 0-86z" />
<glyph unicode="&#xf106;" glyph-name="arrow-left-a" horiz-adv-x="768" d="M0 448l384 384v-224h384v-320h-384v-224z" />
<glyph unicode="&#xf107;" glyph-name="arrow-left-b" horiz-adv-x="384" d="M334 762c4 4 12 6 18 6 18 0 32-16 32-34v0-572c0-18-14-34-32-34-6 0-14 2-18 6l-4 4-312 272c-10 10-18 22-18 38s8 28 18 38l312 272z" />
<glyph unicode="&#xf108;" glyph-name="arrow-left-c" horiz-adv-x="704" d="M218 704c24 24 64 24 88 0s24-68 0-92l-98-100h434c34 0 62-28 62-64s-28-64-62-64h-434l96-100c24-24 24-68 0-92s-62-24-86 0l-200 212c-12 12-18 26-18 44s6 34 18 46z" />
<glyph unicode="&#xf109;" glyph-name="arrow-right-a" horiz-adv-x="768" d="M768 448l-384-384v224h-384v320h384v224z" />
<glyph unicode="&#xf10a;" glyph-name="arrow-right-b" horiz-adv-x="384" d="M50 134c-4-4-12-6-18-6-18 0-32 16-32 34v0 572c0 18 14 34 32 34 6 0 12-2 16-6l6-4 312-272c10-10 18-22 18-38s-8-28-18-38l-312-272z" />
<glyph unicode="&#xf10b;" glyph-name="arrow-right-c" horiz-adv-x="704" d="M486 704l200-210c12-12 18-28 18-46s-6-32-18-44l-200-212c-24-24-62-24-86 0s-24 68 0 92l96 100h-434c-34 0-62 28-62 64s28 64 62 64h434l-98 100c-24 24-24 68 0 92s64 24 88 0z" />
<glyph unicode="&#xf10c;" glyph-name="arrow-up-a" horiz-adv-x="768" d="M384 832l384-384h-224v-384h-320v384h-224z" />
<glyph unicode="&#xf10d;" glyph-name="arrow-up-b" horiz-adv-x="640" d="M634 306c4-4 6-12 6-18 0-18-16-32-34-32v0h-572c-18 0-34 14-34 32 0 6 2 12 6 16l4 6 272 312c10 10 22 18 38 18s28-8 38-18l272-312z" />
<glyph unicode="&#xf10e;" glyph-name="arrow-up-c" horiz-adv-x="548" d="M18 582l210 200c12 12 28 18 46 18s32-6 44-18l212-200c24-24 24-62 0-86s-68-24-92 0l-100 96v-434c0-34-28-62-64-62s-64 28-64 62v434l-100-98c-24-24-68-24-92 0s-24 64 0 88z" />
<glyph unicode="&#xf10f;" glyph-name="at" d="M844 146c-48-50-104-86-170-110s-138-36-210-36c-70 0-132 12-190 34s-106 52-146 92-72 86-94 142-34 116-34 180 12 124 36 178 58 102 100 142 92 70 148 94c56 22 116 34 180 34 56 0 110-8 162-24s98-40 138-72 72-72 96-120 36-106 36-170c0-48-6-92-20-128s-32-68-54-92-48-44-76-56-58-20-90-20-58 8-78 24-30 34-30 58h-6c-12-20-30-38-56-56s-56-26-92-26c-56 0-98 18-128 54s-46 84-46 142c0 34 6 68 18 100s28 62 48 88 46 46 76 62 62 24 98 24c30 0 54-8 76-20 20-12 36-30 42-48h2l10 48h108l-48-226c-2-12-4-24-6-38s-4-26-4-38c0-14 2-26 8-36s14-14 30-14c32 0 58 18 78 52s32 80 32 136c0 48-8 90-24 128s-40 68-68 94-64 46-104 58-82 18-130 18c-52 0-98-8-140-26s-78-44-108-76-54-68-70-112c-16-42-26-88-26-138 0-52 8-102 26-144s42-78 74-108 70-54 114-70 92-24 144-24c66 0 122 12 170 32s90 50 130 86zM462 584c-20 0-36-4-50-16s-28-26-38-44-16-36-22-56-8-40-8-60c0-10 0-20 2-32 2-10 6-20 12-30s14-16 24-22 22-10 38-10c22 0 40 6 56 16s28 26 38 42 18 32 22 52 6 38 6 54c0 12 0 26-2 38s-8 24-14 34-14 18-24 24-24 10-40 10z" />
<glyph unicode="&#xf110;" glyph-name="bag" d="M832 640l64-640h-896l64 640h128v8c0 136 112 248 248 248h16c136 0 248-112 248-248v-8h128zM256 648v-8h384v8c0 102-82 184-184 184v0h-16c-102 0-184-82-184-184zM72 64h752l-50 512h-70v-72c20-12 32-32 32-56 0-36-28-64-64-64s-64 28-64 64c0 24 12 44 32 56v72h-384v-72c20-12 32-32 32-56 0-36-28-64-64-64s-64 28-64 64c0 24 12 44 32 56v72h-70z" />
<glyph unicode="&#xf111;" glyph-name="battery-charging" d="M20 192c-12 0-20 8-20 20v472c0 12 8 20 20 20h762c12 0 20-8 20-20v-108h74c12 0 20-8 20-20v-216c0-12-8-20-20-20h-74v-108c0-12-8-20-20-20h-762zM450 640l-200-222h122l-54-162 200 222h-122z" />
<glyph unicode="&#xf112;" glyph-name="battery-empty" d="M876 576c12 0 20-8 20-20v-216c0-12-8-20-20-20h-74v-108c0-12-8-20-20-20h-762c-12 0-20 8-20 20v472c0 12 8 20 20 20h762c12 0 20-8 20-20v-108h74zM832 384v128h-94v128h-674v-384h674v128h94z" />
<glyph unicode="&#xf113;" glyph-name="battery-full" d="M876 576c12 0 20-8 20-20v-216c0-12-8-20-20-20h-74v-108c0-12-8-20-20-20h-762c-12 0-20 8-20 20v472c0 12 8 20 20 20h762c12 0 20-8 20-20v-108h74z" />
<glyph unicode="&#xf114;" glyph-name="battery-half" d="M876 576c12 0 20-8 20-20v-216c0-12-8-20-20-20h-74v-108c0-12-8-20-20-20h-762c-12 0-20 8-20 20v472c0 12 8 20 20 20h762c12 0 20-8 20-20v-108h74zM832 384v128h-94v128h-162l64-384h98v128h94z" />
<glyph unicode="&#xf115;" glyph-name="battery-low" d="M20 192c-12 0-20 8-20 20v472c0 12 8 20 20 20h762c12 0 20-8 20-20v-108h74c12 0 20-8 20-20v-216c0-12-8-20-20-20h-74v-108c0-12-8-20-20-20h-762zM738 640h-418l64-384h354v128h94v128h-94v128z" />
<glyph unicode="&#xf116;" glyph-name="bluetooth" horiz-adv-x="512" d="M24 672c32 32 36 26 38 24l136-130c4-4 20-20 20-6v316c0 12 12 20 24 20 8 0 14-4 18-8v0s234-226 244-234 10-20 2-28l-168-162s-8-8-8-16 8-16 8-16l168-162c8-8 8-20-2-28s-244-234-244-234v0c-4-4-10-8-18-8-12 0-24 8-24 20v316s-16-2-20-6v0-2l-136-128c-2-2-6-8-38 24s-24 34-22 36 180 172 180 172 8 6 8 16v0c0 10-8 16-8 16s-178 170-180 172-10 4 22 36zM304 720v-158c0-16 16-2 20 2l60 60s6 10 6 14-2 10-6 14l-60 60c-4 4-20 22-20 8zM304 334v-158s16 4 20 8l60 60c4 4 6 10 6 14s-2 10-6 14l-60 60c-4 4-20 18-20 2z" />
<glyph unicode="&#xf117;" glyph-name="calendar" d="M224 704c-36 0-64 28-64 64v64c0 36 28 64 64 64s64-28 64-64v-64c0-36-28-64-64-64zM672 704c-36 0-64 28-64 64v64c0 36 28 64 64 64s64-28 64-64v-64c0-36-28-64-64-64zM880 832c8 0 16-8 16-16v-800c0-8-8-16-16-16h-864c-8 0-16 8-16 16v800c0 8 8 16 16 16h112v-82c0-44 48-78 96-78s96 34 96 78v82h256v-82c0-44 50-78 98-78s94 34 94 78v82h112zM800 96v512h-704v-512h704z" />
<glyph unicode="&#xf118;" glyph-name="camera" horiz-adv-x="832" d="M764 666c36 0 68-28 68-66v-404c0-38-32-68-68-68h-696c-38 0-68 30-68 68v404c0 38 30 66 68 66h138l78 80c12 14 30 22 50 22h168c18 0 34-8 46-20v0 0 0l82-82h134zM416 228c102 0 184 84 184 186s-82 186-184 186-184-84-184-186 82-186 184-186zM752 560c16 0 28 12 28 28s-12 28-28 28-28-12-28-28 12-28 28-28zM416 554c76 0 140-62 140-140s-64-140-140-140c-78 0-140 62-140 140s62 140 140 140z" />
<glyph unicode="&#xf119;" glyph-name="card" d="M840 768c32 0 56-24 56-56v0-528c0-32-24-56-56-56h-784c-32 0-56 24-56 56v0 0 528c0 32 24 56 56 56h784zM90 704c-14 0-24-10-26-24v-40h768v40c-2 14-12 24-26 24h-716zM806 192c14 0 24 10 26 24v232h-768v-232c2-14 12-24 26-24h716zM128 320v32h384v-32h-384zM128 256v32h192v-32h-192zM640 256v96h128v-96h-128z" />
<glyph unicode="&#xf11a;" glyph-name="chatbox-working" horiz-adv-x="832" d="M152 160c-84 0-152 62-152 142v418c0 80 68 144 152 144h528c84 0 152-64 152-144v-418c0-80-68-142-152-142h-8v-128s-158 108-172 118-14 10-42 10h-306zM608 576c-36 0-64-28-64-64s28-64 64-64 64 28 64 64-28 64-64 64zM416 576c-36 0-64-28-64-64s28-64 64-64 64 28 64 64-28 64-64 64zM224 576c-36 0-64-28-64-64s28-64 64-64 64 28 64 64-28 64-64 64z" />
<glyph unicode="&#xf11b;" glyph-name="chatbox" horiz-adv-x="832" d="M152 160c-84 0-152 62-152 142v418c0 80 68 144 152 144h528c84 0 152-64 152-144v-418c0-80-68-142-152-142h-8v-128s-158 108-172 118-14 10-42 10h-306z" />
<glyph unicode="&#xf11c;" glyph-name="chatboxes" horiz-adv-x="832" d="M492 228l52-36c-8-42-58-64-104-64h-180c-16 0-22-4-26-6l-106-90v96h-32c-52 0-96 32-96 82v258c0 50 40 90 92 90h4v-202c0-66 58-118 128-118h234c20 0 28-6 34-10zM706 864c70 0 126-54 126-120v-336c0-66-56-120-126-120h-34v-128l-150 120c-4 4-14 8-34 8h-202c-70 0-126 54-126 120v336c0 66 42 120 112 120h434z" />
<glyph unicode="&#xf11d;" glyph-name="chatbubble-working" horiz-adv-x="832" d="M416 62c-230 0-416 178-416 400s186 402 416 402 416-180 416-402c0-80-24-154-66-216-2-2-4-6-6-8v0c-4-8-8-20-8-30l44-176-168 62c-8 4-16 4-24 4s-14-2-22-4v0c-2 0-2-2-4-2-50-20-104-30-162-30zM608 512c-36 0-64-28-64-64s28-64 64-64 64 28 64 64-28 64-64 64zM416 512c-36 0-64-28-64-64s28-64 64-64 64 28 64 64-28 64-64 64zM224 512c-36 0-64-28-64-64s28-64 64-64 64 28 64 64-28 64-64 64z" />
<glyph unicode="&#xf11e;" glyph-name="chatbubble" horiz-adv-x="832" d="M416 62c-230 0-416 178-416 400s186 402 416 402 416-180 416-402c0-80-24-154-66-216-2-2-4-6-6-8v0c-4-8-8-20-8-30l44-176-168 62c-8 4-16 4-24 4s-14-2-22-4v0c-2 0-2-2-4-2-50-20-104-30-162-30z" />
<glyph unicode="&#xf11f;" glyph-name="chatbubbles" horiz-adv-x="832" d="M50 178c-2 2 0 4-2 6-30 44-48 98-48 154 0 84 38 160 98 212-4-22-8-44-8-68 0-184 156-336 348-336 30 0 60 4 88 12-54-64-138-106-230-106-40 0-80 10-116 24h-2c-4 2-10 4-16 4s-12-2-18-4l-112-44 24 126c0 8-2 14-6 20v0zM484 864c192 0 348-152 348-336 0-66-22-128-56-180-2-2-2-4-4-6v0c-4-8-6-16-6-24l34-148-138 52c-6 2-12 4-20 4-6 0-12-2-18-4v0l-4-2c-16-6-32-10-48-14-28-8-58-12-88-12-192 0-346 150-346 334 0 24 2 48 6 70 32 152 172 266 340 266z" />
<glyph unicode="&#xf120;" glyph-name="checkmark-circled" d="M448 896c248 0 448-200 448-448s-200-448-448-448-448 200-448 448 200 448 448 448zM678 598c2 2 2 4 2 6s0 6-2 8l-62 48c-2 2-6 2-8 2s-4 0-6-2l-222-286s-88 84-90 86-8 6-12 6-6-4-8-6l-52-52c-2-2-2-6-2-8s0-4 2-6l4-2s156-150 158-152 6-6 10-6 8 4 10 6z" />
<glyph unicode="&#xf121;" glyph-name="checkmark-round" horiz-adv-x="832" d="M800 816c34-26 44-78 18-114l-414-604c-26-36-74-44-108-18s-274 294-274 294c-30 32-30 84 2 116s80 30 110-4l198-214 360 526c26 36 74 44 108 18z" />
<glyph unicode="&#xf122;" glyph-name="checkmark" horiz-adv-x="832" d="M828 740c2-4 4-8 4-12s-2-8-4-12l-498-640c-4-4-10-12-18-12s-16 6-20 10-282 272-282 272l-6 6c-2 4-4 8-4 12s2 6 4 10l4 4c28 30 84 88 88 92s8 12 16 12 16-8 20-12 160-156 160-156l400 514c4 4 8 4 12 4s10-2 14-4z" />
<glyph unicode="&#xf123;" glyph-name="chevron-down" d="M448 364v0 0l348 334c8 8 24 8 32 0l62-60c8-8 8-24 0-32l-426-408c-4-4-10-6-16-6s-12 2-16 6l-426 408c-8 8-8 24 0 32l62 60c8 8 24 8 32 0z" />
<glyph unicode="&#xf124;" glyph-name="chevron-left" horiz-adv-x="512" d="M172 448l334-348c8-8 8-24 0-32l-60-62c-8-8-24-8-32 0l-408 426c-4 4-6 10-6 16s2 12 6 16l408 426c8 8 24 6 32-2l60-60c8-8 8-24 0-32l-334-348z" />
<glyph unicode="&#xf125;" glyph-name="chevron-right" horiz-adv-x="512" d="M340 448v0 0l-334 348c-8 8-8 24 0 32l60 60c8 8 24 10 32 2l408-426c4-4 6-10 6-16s-2-12-6-16l-408-426c-8-8-24-8-32 0l-60 62c-8 8-8 24 0 32z" />
<glyph unicode="&#xf126;" glyph-name="chevron-up" d="M512 532l-348-334c-8-8-24-8-32 0l-62 60c-8 8-8 24 0 32l426 408c4 4 10 6 16 6s12-2 16-6l426-408c8-8 8-24 0-32l-62-60c-8-8-24-8-32 0l-348 334z" />
<glyph unicode="&#xf127;" glyph-name="clipboard" horiz-adv-x="704" d="M160 640c4 40 20 70 56 80l2 2c24 6 42 14 42 40v42c0 52 42 92 92 92s92-40 92-92v-42c0-26 18-36 42-42h4c36-10 50-40 54-80h-384zM352 832c-16 0-26-12-26-28s10-28 26-28 28 12 28 28-12 28-28 28zM650 832c30 0 54-24 54-56v-720c0-32-24-56-54-56h-594c-30 0-56 24-56 56v720c0 32 26 56 56 56h146v-26c0-22-18-38-38-38h-74c-14 0-24-12-24-26v-654c0-12 10-24 22-24h530c12 0 22 12 22 24v654c0 14-10 26-24 26h-74c-20 0-40 16-40 38v26h148zM128 512v64h224v-64h-224zM128 128v64h320v-64h-320zM128 256v64h258v-64h-258zM128 384v64h416v-64h-416z" />
<glyph unicode="&#xf128;" glyph-name="close-circled" d="M448 894c248 0 448-200 448-448s-200-448-448-448-448 200-448 448 200 448 448 448zM664 296l-150 150 152 150c6 6 6 18 0 24l-44 42c-4 4-8 6-12 6s-6-2-10-6l-152-148-152 148c-4 4-6 6-10 6s-8-2-12-6l-42-42c-6-6-6-18 0-24l152-150-152-152c-4-2-4-6-4-10s0-8 4-12l42-44c4-4 8-4 12-4s8 0 12 4l150 152 152-150c4-4 6-6 10-6s8 2 12 6l42 42c4 2 6 8 6 12s-2 8-6 12z" />
<glyph unicode="&#xf129;" glyph-name="close-round" horiz-adv-x="768" d="M748 186c28-28 28-74 0-102s-74-28-102 0l-262 262-262-262c-28-28-72-28-100 0s-28 74 0 102l260 262-260 262c-28 28-28 74 0 102s72 28 100 0l262-262 262 262c28 28 74 28 102 0s28-74 0-102l-262-262z" />
<glyph unicode="&#xf12a;" glyph-name="close" horiz-adv-x="768" d="M760 186c6-6 8-12 8-20s-2-14-8-20l-76-74c-6-6-10-8-18-8s-14 2-20 8l-262 262-262-262c-6-6-10-8-18-8s-14 2-20 8l-76 74c-6 6-8 12-8 20s2 14 8 20l264 262-264 260c-10 10-10 30 0 40l74 76c6 4 12 8 20 8s14-2 20-8l262-260 262 260c6 4 12 8 20 8s14-2 20-8l74-76c10-10 10-28 0-38l-264-260z" />
<glyph unicode="&#xf12b;" glyph-name="cloud" d="M732 494c90 0 164-76 164-168s-74-166-164-166v0h-552c-98 0-180 82-180 182 0 80 52 148 122 172 10 58 58 102 118 102 20 0 36-6 52-14 38 80 118 134 210 134 128 0 230-106 230-236v-6z" />
<glyph unicode="&#xf12c;" glyph-name="compose" horiz-adv-x="768" d="M758 760c14-14 14-36 0-50l-64-62-110 110 62 64c14 14 36 14 50 0zM564 740l110-110-354-346-128-28 28 128zM640 448l64 64v-402c0-26-20-46-46-46h-612c-26 0-46 20-46 46v612c0 26 20 46 46 46h402l-64-64h-298c-12 0-22-10-22-20v-536s8-20 20-20h538s18 10 18 20v300z" />
<glyph unicode="&#xf12d;" glyph-name="disc" d="M448 642c108 0 194-86 194-194s-86-194-194-194-194 86-194 194 86 194 194 194zM448 360c48 0 88 40 88 88s-40 88-88 88-88-40-88-88 40-88 88-88zM448 896c248 0 448-200 448-448s-200-448-448-448-448 200-448 448 200 448 448 448zM448 202c136 0 246 110 246 246s-110 246-246 246-246-110-246-246 110-246 246-246z" />
<glyph unicode="&#xf12e;" glyph-name="document-text" horiz-adv-x="576" d="M572 622c2-6 4-12 4-20v-490c0-26-20-48-44-48h-486c-24 0-46 22-46 48v672c0 26 22 48 46 48h320c6 0 12 0 18-4 4-2 10-6 14-10l168-184c4-4 4-8 6-12zM96 602v-20c0-2 2-6 6-6h142c4 0 6 4 6 6v20c0 4-2 6-6 6h-142c-4 0-6-2-6-6zM96 346v-20c0-2 2-6 6-6h246c4 0 4 4 4 6v20c0 4 0 6-4 6h-246c-4 0-6-2-6-6zM416 198v20c0 4 0 6-4 6h-310c-4 0-6-2-6-6v-20c0-2 2-6 6-6h310c4 0 4 4 4 6zM480 454v20c0 4 0 6-4 6h-374c-4 0-6-2-6-6v-20c0-2 2-6 6-6h374c4 0 4 4 4 6zM386 604h120l-142 156v-132c0-12 10-24 22-24z" />
<glyph unicode="&#xf12f;" glyph-name="document" horiz-adv-x="576" d="M574 622c2-6 2-10 2-18v-488c0-26-18-52-42-52h-486c-24 0-48 26-48 52v670c0 26 24 46 48 46h320c6 0 12 0 18-4 4-2 10-4 14-8l166-184c4-4 6-8 8-14zM386 738v-126h116zM64 128h448v420h-134c-30 0-56 26-56 56v164h-258v-640z" />
<glyph unicode="&#xf130;" glyph-name="drag" d="M0 608v64h1024v-64h-1024zM0 416v64h1024v-64h-1024zM0 224v64h1024v-64h-1024z" />
<glyph unicode="&#xf131;" glyph-name="eject" horiz-adv-x="640" d="M606 320h-572c-20 0-34 14-34 32 0 6 2 10 6 16l276 382c10 10 22 18 38 18s28-8 38-18l276-380c4-6 6-12 6-18 0-18-14-32-34-32v0zM616 256c14 0 24-10 24-24v-80c0-14-10-24-24-24h-592c-14 0-24 10-24 24v80c0 14 10 24 24 24h592z" />
<glyph unicode="&#xf132;" glyph-name="email" horiz-adv-x="832" d="M38 662c-8 4-22 14-26 22-6 16 2 20 24 20h764c22 0 30-4 24-20-4-8-18-18-26-22-22-12-326-178-338-184s-24-8-42-8-30 2-42 8-316 172-338 184zM816 654c18 8 16-2 16-10v-410c0-18-24-42-44-42h-740c-20 0-48 24-48 42v410s0 18 18 10c16-8 166-112 264-176l-166-186c-4-4-4-8-2-10s8-2 12 2l196 166c30-20 50-32 54-34 16-8 28-8 42-8s26 0 42 8c4 2 24 14 54 34l196-166c4-4 10-4 12-2s0 6-4 10l-164 186c98 64 246 168 262 176z" />
<glyph unicode="&#xf133;" glyph-name="eye" d="M448 704c198 0 344-140 448-258-102-100-248-254-448-254s-314 120-448 256c156 158 284 256 448 256zM448 266c98 0 180 82 180 182s-82 182-180 182-180-82-180-182 82-182 180-182zM448 512c0-36 28-64 64-64 16 0 28 6 40 14v-14c0-58-46-106-104-106s-104 48-104 106 46 106 104 106h16c-10-12-16-26-16-42z" />
<glyph unicode="&#xf134;" glyph-name="filing" horiz-adv-x="768" d="M634 702c24 0 38 0 38-40v-56h-576v56c0 40 16 40 40 40h498zM538 768c26 0 38-2 38-38h-384c0 36 14 38 40 38h306zM736 620c26-16 34-34 30-82l-34-368c-8-42-32-42-48-42h-600c-16 0-40 0-48 42l-34 370c-6 52 2 62 30 80l30 20v-64h642v64z" />
<glyph unicode="&#xf135;" glyph-name="film-marker" horiz-adv-x="832" d="M800 544c18 0 32-14 32-30v-420c0-16-14-30-32-30h-768c-18 0-32 14-32 30v420c0 16 12 28 26 30-4 4-6 8-8 14l-18 90c-4 16 10 32 26 36l740 148c16 4 32-8 36-24l18-92c4-16-8-32-24-36l-684-136h688zM514 156l-40 116 102 72h-124l-40 116-38-116h-126l102-72-38-116 100 72z" />
<glyph unicode="&#xf136;" glyph-name="flash-off" d="M230 56c-138 76-230 224-230 392 0 248 200 448 448 448 48 0 94-8 136-22 4-2 6-2 10-4 24-8 48-18 70-30v0c138-76 232-224 232-392 0-248-200-448-448-448-48 0-94 8-136 22-4 2-6 2-10 4-24 8-48 16-70 28zM172 646c-40-56-64-124-64-198 0-130 72-242 180-300 12-6 26-14 38-18 4-2 6-2 10-4 18-6 38-10 58-14 18-4 36-4 54-4 74 0 142 24 198 64l-104 106 72 80 110-108c40 56 64 124 64 198 0 132-74 246-182 302-12 6-24 12-36 16-4 2-6 2-10 4-18 6-38 10-58 14-18 4-36 4-54 4-74 0-144-24-200-64l106-104-72-82zM356 180l76 226h-170l278 310-76-226h170z" />
<glyph unicode="&#xf137;" glyph-name="flash" horiz-adv-x="640" d="M0 384l448 512-102-384h294l-448-512 102 384h-294z" />
<glyph unicode="&#xf138;" glyph-name="uniF100" horiz-adv-x="585" d="M358.286 173.714q0-7.429-5.714-13.143l-28.571-28.571q-5.714-5.714-13.143-5.714t-13.143 5.714l-266.286 266.286q-5.714 5.714-5.714 13.143t5.714 13.143l266.286 266.286q5.714 5.714 13.143 5.714t13.143-5.714l28.571-28.571q5.714-5.714 5.714-13.143t-5.714-13.143l-224.571-224.571 224.571-224.571q5.714-5.714 5.714-13.143zM577.714 173.714q0-7.429-5.714-13.143l-28.571-28.571q-5.714-5.714-13.143-5.714t-13.143 5.714l-266.286 266.286q-5.714 5.714-5.714 13.143t5.714 13.143l266.286 266.286q5.714 5.714 13.143 5.714t13.143-5.714l28.571-28.571q5.714-5.714 5.714-13.143t-5.714-13.143l-224.571-224.571 224.571-224.571q5.714-5.714 5.714-13.143z" />
<glyph unicode="&#xf139;" glyph-name="folder" horiz-adv-x="768" d="M732 576c36 0 38-14 36-36l-24-372c-2-22-6-40-42-40h-634c-36 0-40 18-42 40l-26 368c-2 22 0 40 36 40h696zM724 674l4-66h-688c0 12 8 92 12 126 4 36 16 34 50 34h150c56 0 46 0 74-30 32-36 38-34 82-34h286c22 0 30-6 30-30z" />
<glyph unicode="&#xf13a;" glyph-name="forward" horiz-adv-x="768" d="M448 364c-204 0-342-18-448-204 0 0 74 416 448 416v160l320-288-320-268v184z" />
<glyph unicode="&#xf13b;" glyph-name="uniF101" horiz-adv-x="585" d="M340 411.429q0-7.429-5.714-13.143l-266.286-266.286q-5.714-5.714-13.143-5.714t-13.143 5.714l-28.571 28.571q-5.714 5.714-5.714 13.143t5.714 13.143l224.571 224.571-224.571 224.571q-5.714 5.714-5.714 13.143t5.714 13.143l28.571 28.571q5.714 5.714 13.143 5.714t13.143-5.714l266.286-266.286q5.714-5.714 5.714-13.143zM559.429 411.429q0-7.429-5.714-13.143l-266.286-266.286q-5.714-5.714-13.143-5.714t-13.143 5.714l-28.571 28.571q-5.714 5.714-5.714 13.143t5.714 13.143l224.571 224.571-224.571 224.571q-5.714 5.714-5.714 13.143t5.714 13.143l28.571 28.571q5.714 5.714 13.143 5.714t13.143-5.714l266.286-266.286q5.714-5.714 5.714-13.143z" />
<glyph unicode="&#xf13c;" glyph-name="uniF102" horiz-adv-x="658" d="M614.286 210.286q0-7.429-5.714-13.143l-28.571-28.571q-5.714-5.714-13.143-5.714t-13.143 5.714l-224.571 224.571-224.571-224.571q-5.714-5.714-13.143-5.714t-13.143 5.714l-28.571 28.571q-5.714 5.714-5.714 13.143t5.714 13.143l266.286 266.286q5.714 5.714 13.143 5.714t13.143-5.714l266.286-266.286q5.714-5.714 5.714-13.143zM614.286 429.714q0-7.429-5.714-13.143l-28.571-28.571q-5.714-5.714-13.143-5.714t-13.143 5.714l-224.571 224.571-224.571-224.571q-5.714-5.714-13.143-5.714t-13.143 5.714l-28.571 28.571q-5.714 5.714-5.714 13.143t5.714 13.143l266.286 266.286q5.714 5.714 13.143 5.714t13.143-5.714l266.286-266.286q5.714-5.714 5.714-13.143z" />
<glyph unicode="&#xf13d;" glyph-name="gear-a" horiz-adv-x="768" d="M694 448c0-48 30-86 74-112-8-26-20-52-32-76-50 12-90-6-124-40s-44-74-32-124c-24-12-50-24-76-32-26 44-72 74-120 74s-94-30-120-74c-26 8-54 20-78 32 12 50 4 90-30 124s-74 42-124 30c-12 24-24 52-32 78 44 26 74 72 74 120s-30 86-74 112c8 26 18 52 32 76 50-12 90 6 124 40s42 74 30 124c24 12 52 24 78 32 26-44 72-74 120-74s94 30 120 74c26-8 54-20 78-32-12-50-4-90 30-124s74-52 124-40c12-24 24-50 32-76-44-26-74-64-74-112zM384 252c108 0 196 88 196 196s-88 196-196 196-196-88-196-196 88-196 196-196z" />
</font>
</defs>
</svg>
