<?xml version="1.0" standalone="no"?>
<!DOCTYPE svg PUBLIC "-//W3C//DTD SVG 1.1//EN" "http://www.w3.org/Graphics/SVG/1.1/DTD/svg11.dtd" >
<!--
2013-9-30: Created.
-->
<svg>
<metadata>
Created by iconfont
</metadata>
<defs>

<font id="iconfont" horiz-adv-x="1024" >
  <font-face
    font-family="iconfont"
    font-weight="500"
    font-stretch="normal"
    units-per-em="1024"
    ascent="896"
    descent="-128"
  />
    <missing-glyph />
    
    <glyph glyph-name="lingyong" unicode="&#59343;" d="M924.077 381.515c-21.886 26.366-53.23 25.57-79.591 3.684l-162.361-125.311h-168.129v30.063h84.658c34.265 0 62.038 27.778 62.038 62.042 0 34.265-15.158 70.289-60.909 71.559l-207.15 0.636-230.006-208.069 128.335-169.379 109.294 61.003 298.336-0.064 217.379 186.477c26.363 21.886 29.991 61.004 8.106 87.364v-0.003zM864.316 299.456l-189.746-150.731-277.294 0.832-94.874-51.348-90.78 114.836 192.414 167.948h162.873c29.522 0 53.207 3.797 53.459-28.914 0.149-19.395-23.937-19.391-53.459-19.391h-94.548v-115.216l220.91 0.201 145.974 115.582c22.718 18.861 42.156 34.697 53.596 21.99 21.63-24.031 1.275-31.77-28.521-55.783l-0.004-0.003zM864.316 299.456zM127.87 226.334l-28.098-20.682c-20.644-15.191-25.061-44.243-9.869-64.887l103.092-132.256c15.191-20.643 44.246-25.062 64.89-9.871l28.098 20.682c20.644 15.191 25.062 44.243 9.87 64.887l-103.093 132.256c-15.194 20.643-44.245 25.062-64.89 9.871zM265.683 81.615c11.673-15.861 8.276-38.186-7.584-49.859l-4.974-3.661c-15.861-11.674-38.185-8.278-49.861 7.583l-84.365 106.814c-11.675 15.861-8.279 38.183 7.581 49.859l4.974 3.659c15.862 11.674 38.186 8.278 49.861-7.581l84.368-106.814z"  horiz-adv-x="1024" />

    
    <glyph glyph-name="xiangqing" unicode="&#58918;" d="M510.90888264-110.20279617999995c273.27025353 0 494.78014964 221.52579306 494.78014965 494.77882535 0 273.25170668-221.50857181 494.77750102-494.77882533 494.77750101-273.27157783 0-494.77882533-221.52579306-494.77882534-494.77750101S237.63863041-110.20279617999995 510.90888264-110.20279617999995zM510.91020825 817.50816429c239.08481179 0 432.93080953-193.83142642 432.93080953-432.93080952-0.00132432-239.09938311-193.84732334-432.93213513-432.93213514-432.93213514-239.08348747 0.00132432-432.93080953 193.83407633-432.93080953 432.93213514C77.97674879 623.67408796 271.82407085 817.50816429 510.91020825 817.50816429zM541.83421615 477.34540295l-61.84934011 0 0-309.23610352 61.8480158 0L541.83421615 477.34540295zM541.83421615 601.04011026l-61.84934011 0 0-61.84801581 61.84934011 0L541.83421615 601.04011026z"  horiz-adv-x="1024" />

    
    <glyph glyph-name="zhiding" unicode="&#59000;" d="M557.654996-85.669904c-6.499999-59.041994-88.986991-53.776995-92.179991 0-0.083 40.896996-0.083 641.390937-0.083 641.390937l-283.839972-273.963973c-44.472996-38.308996-97.43499 22.922998-64.344994 63.215994 125.709988 121.895988 351.289966 340.004967 356.507965 345.049966 20.810998 22.608998 53.572995 23.779998 75.721993 0 41.406996-40.037996 348.700966-336.328967 358.028965-346.989966 31.166997-38.741996-19.223998-96.073991-62.242994-63.773994C834.109969 288.689059 557.739996 555.732033 557.739996 555.732033M116.396039 892.668l786.487923 0 0-89.285991L116.396039 803.382009 116.396039 892.668z"  horiz-adv-x="1024" />

    
    <glyph glyph-name="chexiao" unicode="&#59329;" d="M467.314777 831.696462 72.749396 430.462195l394.565381-397.037688L467.314777 285.358399c0 0 458.33987 233.70574 418.85867-349.054861 0 0 309.626873 555.443441-421.881516 664.74687L467.314777 831.696462z"  horiz-adv-x="1024" />

    
    <glyph glyph-name="rizhiguanli1" unicode="&#58906;" d="M162.369529 538.690128l40.932248 0 0-104.377232-40.932248 0 0 104.377232ZM162.369529 297.189865l40.932248 0 0-118.702496-40.932248 0 0 118.702496ZM868.165304 831.263603 249.508145 831.263603c-25.374924 0-48.707328-9.992585-65.700351-28.136827-17.124006-18.284435-26.554796-43.906999-26.554796-72.14718l0-51.073212 40.932248 0 0 51.073212c0 34.944883 21.104667 59.35176 51.322899 59.35176l116.499317 0 0-822.738184L249.508145-32.406828c-28.299533 0-51.322899 22.034852-51.322899 49.118698l0 62.513776 106.780978 0 0 61.398372-243.546875 0 0-61.398372 95.833649 0 0-62.513776c0-49.653887 41.385573-90.050945 92.255147-90.050945l618.657158 0c50.869574 0 92.255147 40.397059 92.255147 90.050945l0 724.500788C960.420451 790.866544 919.034878 831.263603 868.165304 831.263603zM406.939711-32.406828l0 822.738184 461.225593 0c28.299533 0 51.322899-22.034852 51.322899-49.118698l0-724.500788c0-1.503237-0.081864-2.988054-0.221034-4.456498L766.133489 191.682903c27.333532 30.450523 43.988864 70.672596 43.988864 114.716718 0 94.794993-77.120448 171.915441-171.915441 171.915441s-171.915441-77.120448-171.915441-171.915441 77.120448-171.915441 171.915441-171.915441c36.036751 0 69.512167 11.154038 97.17418 30.178323L896.552841-24.18354c-8.136308-5.190209-17.896602-8.223289-28.387537-8.223289L406.939711-32.406828zM638.206912 175.416428c-72.223928 0-130.983193 58.759265-130.983193 130.983193 0 72.224951 58.759265 130.983193 130.983193 130.983193s130.983193-58.758242 130.983193-130.983193C769.190105 234.175693 710.43084 175.416428 638.206912 175.416428zM61.41935 641.020748l243.546875 0 0-61.398372-243.546875 0 0 61.398372ZM61.41935 385.194198l243.546875 0 0-61.398372-243.546875 0 0 61.398372Z"  horiz-adv-x="1024" />

    
    <glyph glyph-name="fenpai" unicode="&#59007;" d="M171.79534222 367.68881778L171.79534222 367.68881778 171.79534222 367.68881778 174.12551111 367.68881778 171.79534222 367.68881778ZM861.52533333 211.56750222000005L861.52533333 290.79324445 535.30168889 290.79324445l0-79.22574223 69.90506666 0c20.97152 0 37.28270222-16.31118222 37.28270223-37.28270222l0 0 0-186.41351111c0-20.97152-16.31118222-37.28270222-37.28270223-37.28270222l0 0-186.4135111 0c-20.97152 0-37.28270222 16.31118222-37.28270223 37.28270222l0 0 0 186.41351111c0 20.97152 16.31118222 37.28270222 37.28270223 37.28270222l0 0 69.90506666 0L488.69831111 290.79324445 169.46517333 290.79324445l0-79.22574223 69.90506667 0c20.97152 0 37.28270222-16.31118222 37.28270222-37.28270222l0 0 0-186.41351111c0-20.97152-16.31118222-37.28270222-37.28270222-37.28270222l0 0-186.41351111 0c-20.97152 0-37.28270222 16.31118222-37.28270222 37.28270222l0 0 0 186.41351111c0 20.97152 16.31118222 37.28270222 37.28270222 37.28270222l0 0 69.90506666 0 0 102.52743111 0 0c0 11.65084445 9.32067555 23.30168889 23.3016889 23.30168889L488.69831111 337.39662222000004l0 160.78165333-130.48945778 0c-20.97152 0-37.28270222 16.31118222-37.28270222 39.61287112l0 0L320.92615111 843.04327111c0 20.97152 16.31118222 37.28270222 37.28270222 37.28270222l0 0 307.58229334 0c20.97152 0 37.28270222-16.31118222 37.28270222-37.28270222l0 0 0-307.58229333c0-20.97152-16.31118222-39.61287111-37.28270222-39.61287111l0 0L535.30168889 495.84810667l0-160.78165334 349.52533333 0 0 0c11.65084445 0 23.30168889-9.32067555 23.30168889-23.30168888l0-102.52743112 62.91456 0c20.97152 0 37.28270222-16.31118222 37.28270222-37.28270222l0 0 0-186.41351111c0-20.97152-16.31118222-37.28270222-37.28270222-37.28270222l0 0-186.41351111 0c-20.97152 0-37.28270222 16.31118222-37.28270222 37.28270222l0 0 0 186.41351111c0 20.97152 16.31118222 37.28270222 37.28270222 37.28270222l0 0L861.52533333 209.23733332999996 861.52533333 211.56750222000005zM931.4304 134.67192889L931.4304 134.67192889l-111.84810667 0 0-111.84810667L931.4304 22.82382222000001 931.4304 134.67192889 931.4304 134.67192889zM202.08753778 134.67192889L202.08753778 134.67192889 92.5696 134.67192889l0-111.84810667 111.84810667 0L204.41770667 134.67192889 202.08753778 134.67192889zM567.92405333 134.67192889L567.92405333 134.67192889l-111.84810666 0 0-111.84810667 111.84810666 0L567.92405333 134.67192889 567.92405333 134.67192889zM628.50844445 805.7605688900001L628.50844445 805.7605688900001 395.49155555 805.7605688900001l0-233.01688889 233.0168889 0L628.50844445 805.7605688900001 628.50844445 805.7605688900001z"  horiz-adv-x="1024" />

    
    <glyph glyph-name="lishihistory2" unicode="&#59097;" d="M937.86787991 635.65824l0-671.08864c0-54.81799984-44.60253942-99.42053925-99.42053925-99.42053925l-453.60621037 0c-54.81799984 0-99.42053925 44.60253942-99.42053926 99.42053925L285.42059103 400.92634681c14.17985441-2.36123781 28.64554288-3.8898286 43.49648593-3.8898286 10.5261496 0 20.86588567 0.78293675 31.06891851 1.98841078L359.98599547-35.43039999999996c0-13.70760685 11.14752797-24.85513482 24.85513482-24.85513482l453.60621037 0c13.70760685 0 24.85513482 11.14752797 24.85513481 24.85513482l0 671.08864c0 13.70760685-11.14752797 24.85513482-24.85513481 24.85513482L592.39393356 660.51337482c0 25.92390561-3.8898286 50.90331611-10.87412149 74.56540443l256.92752859 0C893.26534049 735.07877925 937.86787991 690.4762398400001 937.86787991 635.65824zM324.76626944 429.74587563c-129.29641131 0-234.48334185 105.18693054-234.48334185 234.48334184S195.46985813 898.71255931 324.76626944 898.71255931s234.48334185-105.18693054 234.48334185-234.48334184S454.06268075 429.74587563 324.76626944 429.74587563zM324.76626944 479.45614526c101.8811976 0 184.77307221 82.87944704 184.77307221 184.77307221s-82.87944704 184.77307221-184.77307221 184.77307222-184.77307221-82.87944704-184.77307221-184.77307222S222.88507184 479.45614526 324.76626944 479.45614526zM465.39662222 639.37408266c13.72003442 0 24.85513482 11.13510039 24.85513481 24.85513481s-11.13510039 24.85513482-24.85513481 24.85513482l-115.77521796 0 0 97.56883171c0 13.72003442-11.13510039 24.85513482-24.85513482 24.85513482s-24.85513482-11.13510039-24.85513482-24.85513482l0-122.42396653c0-13.72003442 11.13510039-24.85513482 24.85513482-24.85513481L465.39662222 639.37408266zM752.26216069 437.84864958L483.00648524 437.84864958c-13.72003442 0-24.85513482-11.13510039-24.85513482-24.85513482s11.13510039-24.85513482 24.85513482-24.85513481l269.26810302 0c13.72003442 0 24.85513482 11.13510039 24.85513481 24.85513481S765.99462267 437.84864958 752.26216069 437.84864958zM752.70955312 287.07740178999995L483.4414501 287.07740178999995c-13.72003442 0-24.85513482-11.13510039-24.85513481-24.85513481s11.13510039-24.85513482 24.85513481-24.85513482l269.26810302 0c13.72003442 0 24.85513482 11.13510039 24.85513481 24.85513482S766.44201509 287.07740178999995 752.70955312 287.07740178999995zM752.70955312 130.06751516999998L483.4414501 130.06751516999998c-13.72003442 0-24.85513482-11.13510039-24.85513481-24.85513482s11.13510039-24.85513482 24.85513481-24.85513481l269.26810302 0c13.72003442 0 24.85513482 11.13510039 24.85513481 24.85513481S766.44201509 130.06751516999998 752.70955312 130.06751516999998z"  horiz-adv-x="1024" />

    
    <glyph glyph-name="shangjiaofei" unicode="&#58897;" d="M824.28 91.976L412.584 91.976c-0.136 12.776-0.288 27.28-0.384 36.92l400.04 0c94.424 0 171.296 76.872 171.296 171.304l0 21.336L1024 321.53599999999994l0-29.848C1024 181.27999999999997 934.688 91.976 824.28 91.976zM996.504 376.94399999999996l-63.512 0 0 0.136L648.008 377.08000000000004c-50.816 0-92.064 41.24-92.064 92.056 0 50.816 41.248 92.064 92.064 92.064l284.976 0 0 0.136 63.512 0 0-0.136L1024 561.2l0-184.12-27.504 0L996.496 376.94399999999996zM654.296 520.864c-28.68 0-51.856-23.176-51.856-51.736 0-28.544 23.176-51.72 51.856-51.72 28.552 0 51.736 23.176 51.736 51.72C706.032 497.688 682.848 520.864 654.296 520.864zM983.528 638.072c0 94.424-76.872 171.168-171.296 171.168L333.576 809.24c-94.424 0-171.296-76.744-171.296-171.168l0-337.872c0-21.16 4.04-41.336 11.088-60.064-15.16-0.272-29.872-0.976-44.072-2.08-4.744 17.088-7.48 35.016-7.48 53.624L121.816 646.592c0 110.264 89.312 199.704 199.584 199.704l502.88 0C934.688 846.304 1024 756.856 1024 646.592l0-29.864-40.472 0L983.528 638.072zM370.128 152.44000000000005c0-29.672-82.856-53.72-185.064-53.72C82.856 98.72000000000003 0 122.76800000000003 0 152.44000000000005c0 29.68 82.856 53.728 185.064 53.728C287.272 206.168 370.128 182.12 370.128 152.44000000000005zM1.648 120.51199999999994c0.936-1.864 4.344-6.472 4.344-6.472l7.408-6.512 13.152-7.632 18.672-7.448 26-7.168 27.056-5.168 40.648-4.824 42.008-1.376 38.912 1.032 36.848 3.112 35.96 5.864 27 6.848 19.032 6.904 10.856 5.328 13.168 9.544 6.768 10.768c0 0 0.64-60.76 0.64-61.112 0-29.68-82.856-53.728-185.064-53.728C82.856 8.495999999999981 0 32.535999999999945 0 62.21600000000001c0 0.784 0.288 62.416 0.288 62.416S1.36 121.08799999999997 1.648 120.51199999999994zM1.648 33.72000000000003c0.936-1.848 4.344-6.464 4.344-6.464l7.408-6.504 13.152-7.632 18.672-7.456 26-7.168 27.056-5.16 40.648-4.824 42.008-1.384 38.912 1.032 36.848 3.104 35.96 5.872 27 6.84 19.032 6.904 10.856 5.336 13.168 9.536 6.768 10.768c0 0 0.64-60.744 0.64-61.104 0-29.672-82.856-53.736-185.064-53.736C82.856-78.30399999999997 0-54.24000000000001 0-24.567999999999984c0 0.776 0.288 62.416 0.288 62.416S1.36 34.29600000000005 1.648 33.72000000000003zM648.008 321.53599999999994l313.256 0 0-21.336c0-82.24-66.792-149.04-149.032-149.04L397.104 151.15999999999997c10.048 7.4 15.752 15.44 15.752 23.872 0 35.128-95.72 63.696-215.624 65.168-8.112 18.368-12.688 38.632-12.688 59.992L184.544 638.072c0 82.24 66.776 149.04 149.024 149.04l478.664 0c82.24 0 149.032-66.8 149.032-149.04l0-21.344L648.008 616.7280000000001c-81.32 0-147.592-66.264-147.592-147.592C500.416 387.816 566.688 321.53599999999994 648.008 321.53599999999994zM403.848 126.55999999999995l-7.184-5.2c-0.112 2.584-0.416 5.112-0.992 7.536l9.648 0L403.848 126.55999999999995z"  horiz-adv-x="1025" />

    
    <glyph glyph-name="diliweizhi" unicode="&#58935;" d="M490.14525 824.305121c-143.41534 3.27765-270.436292-120.466676-267.158642-262.238586 0-52.448536 36.878932-138.494261 91.785449-226.182392 55.726186-87.685062 96.698343-145.869229 142.591579-207.332069 8.194636-10.652618 18.851347-16.388249 32.781614-16.388249 13.110599 0 25.402553 6.5553 32.777521 16.388249 45.893236 61.46284 87.689155 119.647007 142.595672 207.332069 54.902424 87.688131 91.781356 173.733856 91.781356 226.182392C760.461815 703.838446 635.079176 827.582771 490.14525 824.305121L490.14525 824.305121 490.14525 824.305121 490.14525 824.305121 490.14525 824.305121zM508.992503 190.014914c-4.097318-5.736655-11.472286-9.014304-18.847254-9.014304-6.5553 0-14.754029 2.459005-18.031679 9.014304C349.188914 357.193471 272.157493 499.78505 272.157493 562.066535c0 59.003835 21.309328 109.813035 63.919798 151.60486 42.615587 41.795918 94.244454 63.101153 154.067958 63.101153s111.452371-21.305235 154.063865-63.101153c43.434232-41.791825 64.739467-92.601025 64.739467-151.60486 0-31.961946-18.027585-80.310094-54.086849-146.69299C619.625206 348.994742 570.45432 274.421302 508.992503 190.014914L508.992503 190.014914 508.992503 190.014914 508.992503 190.014914 508.992503 190.014914zM488.505913-13.922848c-93.424786 0-180.289156 8.194636-241.751996 24.582885-32.781614 8.194636-58.184167 18.027585-76.211752 30.323633-22.128997 13.930267-34.420951 31.958876-34.420951 51.628868 0 25.402553 9.832949 44.249807 30.319539 58.181097 22.948665 14.754029 59.823504 22.947641 110.632703 23.76731l0.819668-35.239596c-43.430138 0-74.573439-7.374968-91.781356-18.027585-9.833973-6.556323-14.749936-16.389272-14.749936-28.681226 0-13.934361 26.221198-32.781614 84.406388-48.351218 61.461817-15.573697 138.494261-23.883967 232.737692-23.883967 90.143043 0 173.73488 9.014304 231.914954 23.76424 56.545854 13.934361 82.772168 32.781614 82.772168 48.351218 0 6.5553-3.27765 13.110599-10.652618 20.48966-8.198729 8.194636-34.420951 29.500894-90.966805 29.500894l-2.457981 0-0.819668 35.239596c25.406646 0 49.170886-3.27765 69.656453-10.656711 20.490683-7.374968 36.878932-17.207917 49.170886-29.499871 13.930267-13.930267 21.305235-28.684296 21.305235-45.073568 0-19.666922-11.471262-37.694507-33.597189-51.628868-18.027585-12.291954-43.434232-22.124903-76.211752-30.319539C667.856697-5.728212 582.746274-13.922848 488.505913-13.922848L488.505913-13.922848 488.505913-13.922848 488.505913-13.922848 488.505913-13.922848zM295.105135 158.051945c0.819668-9.832949-6.559393-18.027585-16.392342-18.847254l-26.222221-1.638313c-9.833973 0-18.027585 7.374968-18.027585 16.388249-0.819668 9.833973 6.5553 18.032702 16.388249 18.851347l26.222221 1.639337C286.08776 174.44531 295.105135 167.066249 295.105135 158.051945L295.105135 158.051945 295.105135 158.051945 295.105135 158.051945zM740.7908 158.051945c-0.818645-9.832949-9.013281-17.207917-18.027585-16.388249l-26.222221 0.819668c-9.832949 0-17.207917 8.193613-17.207917 18.027585 0.819668 9.832949 8.194636 17.21201 18.027585 16.392342l26.222221-0.819668C733.415832 176.083623 740.7908 167.885917 740.7908 158.051945L740.7908 158.051945 740.7908 158.051945 740.7908 158.051945zM418.377716 551.881568c0 38.045501 30.791284 68.836785 68.841901 68.836785 38.045501 0 68.836785-30.791284 68.836785-68.836785 0-38.050618-30.791284-68.837808-68.836785-68.837808C449.168999 483.04376 418.377716 513.830951 418.377716 551.881568L418.377716 551.881568 418.377716 551.881568zM418.377716 551.881568"  horiz-adv-x="1024" />

    
    <glyph glyph-name="qiandao" unicode="&#59020;" d="M817.52802 792.737148l102.085026 0c22.63144 0 40.97318-18.431791 40.97318-41.052998l0-163.135474c0-22.672372-18.361183-41.052998-40.97318-41.052998l-817.273728 0c-22.63144 0-40.97318 18.430768-40.97318 41.052998l0 163.135474c0 22.671349 18.371416 41.052998 40.97318 41.052998l102.085026 0 0-61.310368-61.370743 0c-11.116175 0-20.377096-9.060353-20.377096-20.247136l0-82.127486c0-11.026124 9.120728-20.246113 20.377096-20.246113l735.845161 0c11.116175 0 20.377096 9.060353 20.377096 20.246113l0 82.127486c0 11.026124-9.120728 20.247136-20.377096 20.247136l-61.370743 0L817.52802 792.737148zM633.596917 792.737148 388.355447 792.737148l0-61.310368 245.24147 0L633.596917 792.737148zM163.550425 506.620735l-61.211107 0c-22.601764 0-40.97318-18.222013-40.97318-40.693818l0-490.843144c0-22.292726 18.34174-40.694841 40.97318-40.694841l817.273728 0c22.611997 0 40.97318 18.222013 40.97318 40.694841L960.586227 465.926918c0 22.302959-18.34174 40.693818-40.97318 40.693818l-61.210084 0 0-61.310368 20.4958 0c11.256368 0 20.377096-8.980535 20.377096-20.487613l0-408.647097c0-11.296277-9.260921-20.476357-20.377096-20.476357L143.053602-4.3007c-11.256368 0-20.377096 8.979512-20.377096 20.476357l0 408.647097c0 11.316743 9.260921 20.487613 20.377096 20.487613l20.496823 0L163.550425 506.620735zM694.907285 803.015236c0 16.894785 13.612019 30.594809 30.655184 30.594809 16.924461 0 30.655184-13.730723 30.655184-30.594809l0-143.177933c0-16.893762-13.610996-30.594809-30.655184-30.594809-16.923438 0-30.655184 13.731746-30.655184 30.594809L694.907285 803.015236zM265.734712 803.015236c0 16.894785 13.612019 30.594809 30.655184 30.594809 16.944927 0 30.655184-13.730723 30.655184-30.594809l0-143.177933c0-16.893762-13.610996-30.594809-30.655184-30.594809-16.944927 0-30.655184 13.731746-30.655184 30.594809L265.734712 803.015236zM644.514571 200.387146c-12.593829-39.556924-28.321022-75.240635-47.201022-106.993826l102.503559 0 0-22.932292L323.033719 70.461027l0 22.932292 248.195755 0c18.281365 30.275537 34.766828 68.196195 49.455365 113.738437L644.514571 200.387146zM397.235698 200.84661c12.573363-23.091928 24.568559-51.710732 35.96512-85.879949l-22.033829-5.38873c-9.001001 28.180829-20.995173 56.202023-35.964096 84.062558L397.235698 200.84661zM501.097184 210.28661c11.675924-29.078269 21.255093-59.793828 28.758997-92.165096l-22.013363-5.38873c-8.702196 33.249265-18.441001 63.384609-29.237905 90.369194L501.097184 210.28661zM395.440819 251.200438l231.531214 0 0-21.595854L395.440819 229.604584 395.440819 251.200438zM372.050086 400.924461c-11.69639-23.381523-25.186635-44.50461-40.47483-63.385633l-20.676925 13.032828c28.180829 34.466999 48.697095 72.825632 61.590753 115.096365l23.829731-4.949732c-5.988388-16.784268-10.638291-29.218462-13.930267-37.321l124.097366 0 0-22.472827-71.050196 0c9.001001-19.487843 15.446807-35.824927 19.338441-49.015344l-22.033829-8.082072c-5.987365 19.178805-13.192464 38.207184-21.574365 57.098439L372.050086 400.925485zM561.788451 400.924461c-8.102538-16.485463-17.083074-31.773657-26.982538-45.861514l-20.236903 13.490246c20.996197 28.76923 36.56273 61.141522 46.761 97.114828l23.370267-4.949732c-3.591805-11.685133-7.942903-24.128537-13.012362-37.321l135.752824 0 0-22.472827-77.316923 0c10.777461-18.890232 19.320021-36.422538 25.625634-52.609195l-22.471804-8.540514c-7.205099 18.878976-16.804734 39.265282-28.779464 61.149708L561.788451 400.924461zM518.620279 351.009631c57.259098-42.25129 122.282021-75.380828 195.128119-99.370195l-11.695367-21.115923c-75.240635 25.786293-138.906653 59.196217-191.07685 100.269681-48.856731-38.380122-112.542192-71.649853-191.096293-99.830683l-11.6749 21.595854c77.616752 26.364461 142.67856 59.19417 195.128119 98.451266L518.620279 351.009631z"  horiz-adv-x="1024" />

    
    <glyph glyph-name="xiafa" unicode="&#58894;" d="M813.43619982 484.97553742c-15.15254094 0-27.32425338-12.17171244-27.32425338-27.32425338l0-460.7862787L182.49434059-3.134994659999961 182.49434059 819.07664062l465.75432499 0c15.15254094 0 27.32425338 12.17171244 27.32425337 27.32425336s-12.17171244 27.32425338-27.32425337 27.32425338L163.61576494 873.72514736c-19.74798351 0-35.76993231-16.02194879-35.76993231-35.76993231l0-859.84458494c0-19.74798351 16.02194879-35.76993231 35.76993231-35.76993231l641.2505543 0c19.74798351 0 35.76993231 16.02194879 35.76993231 35.76993231L840.63625155 457.65128404C840.76045319 472.80382498 828.58873955 484.97553742 813.43619982 484.97553742zM952.91409476 784.54871988l-69.30424354 83.09057127c-4.09863843 4.96804628-11.55070786 5.58905207-16.51875294 1.49041364L673.58569996 707.54400483l-61.97637576 74.14808819c-4.96804628 5.83745414-15.40094301 2.11141942-16.89135665-5.96165578l-40.86217903-239.21142201c-0.86940786-5.21644836 2.73242522-9.43928722 7.94887358-9.56348886l242.68905343-2.60822479c8.19727565-0.12420164 13.78632772 9.56348886 8.81828143 15.52514466l-55.51791582 66.44761668 193.50539712 161.58569995C956.39172741 772.2528058 957.13693362 779.5806735900001 952.91409476 784.54871988zM453.25285482 652.64709481c0 15.15254094-12.17171244 27.32425338-27.32425337 27.32425336L284.33928587 679.97134817c-15.15254094 0-27.32425338-12.17171244-27.32425338-27.32425336l0 0c0-15.15254094 12.17171244-27.32425338 27.32425338-27.32425338l141.58931436 0C441.08114117 625.3228414299999 453.25285482 637.49455387 453.25285482 652.64709481L453.25285482 652.64709481zM453.25285482 568.19031033c0 15.15254094-12.17171244 27.32425338-27.32425337 27.32425337L284.33928587 595.5145637c-15.15254094 0-27.32425338-12.17171244-27.32425338-27.32425337l0 0c0-15.15254094 12.17171244-27.32425338 27.32425338-27.32425338l141.58931436 0C441.08114117 540.86605695 453.25285482 553.03776939 453.25285482 568.19031033L453.25285482 568.19031033zM658.30895858 465.10335348l-375.08748264 0c-15.0283393 0-27.32425338-12.29591408-27.32425338-27.32425337 0-15.0283393 12.29591408-27.32425338 27.32425338-27.32425338l375.08748264 0c15.0283393 0 27.32425338 12.29591408 27.32425338 27.32425338C685.63321196 452.80743939 673.33729789 465.10335348 658.30895858 465.10335348zM658.30895858 378.16254586l-375.08748264 0c-15.0283393 0-27.32425338-12.29591408-27.32425338-27.32425338s12.29591408-27.32425338 27.32425338-27.32425338l375.08748264 0c15.0283393 0 27.32425338 12.29591408 27.32425338 27.32425338S673.33729789 378.16254586 658.30895858 378.16254586zM658.30895858 285.01168037l-375.08748264 0c-15.0283393 0-27.32425338-12.29591408-27.32425338-27.32425337s12.29591408-27.32425338 27.32425338-27.32425338l375.08748264 0c15.0283393 0 27.32425338 12.29591408 27.32425338 27.32425338S673.33729789 285.01168037 658.30895858 285.01168037zM685.50901153 121.06615770999997c0 15.15254094-12.17171244 27.32425338-27.32425338 27.32425336L516.59544257 148.39041228999997c-15.15254094 0-27.32425338-12.17171244-27.32425338-27.32425338l0 0c0-15.15254094 12.17171244-27.32425338 27.32425338-27.32425336l141.58931437 0C673.33729789 93.74190433000001 685.50901153 105.91361797000002 685.50901153 121.06615770999997L685.50901153 121.06615770999997z"  horiz-adv-x="1024" />

    
    <glyph glyph-name="iconfontzhizuobiaozhun12" unicode="&#58891;" d="M696.58107182 440.0065779l-68.91454397 0-26.19320687 20.38426912c-2.42333422 2.56039787-6.27523527 4.38037092-10.89864658 4.86221256-0.82237908 0.09891101-1.65041133 0.1186943-2.43463917 0.09891101-3.83918351 0.01978193-7.69108453-0.94672518-10.73614786-2.9249578-3.14962887-2.01779646-4.89047285-4.76330017-5.17166452-7.50880387l-27.21764852-64.08765747-39.29192918 121.98344656c-1.77475743 5.24655442-8.47248578 8.75650403-15.82161892 8.63498313-6.49707978 0.10173759-12.7341624-2.64093954-15.19282268-7.19793934l-48.7959224-114.46051251-47.1370327 36.44045008c-3.16799681 2.44735533-7.48760937 3.67668614-11.78461203 3.6342957l-70.80234255 0 0-22.47836944 63.86157378 0 60.81792166-47.04094828c3.20897465-2.44029095 7.56956365-3.66820779 11.94993596-3.62864256 6.49425318-0.12151951 12.68894675 2.66354805 15.15467141 7.20641769l39.83170399 93.42484004 39.49257919-122.64898145c1.73377961-5.20557658 8.29020514-8.65476507 15.49662283-8.61378862 7.82956079-0.08336827 14.6897865 3.99037729 15.82161891 9.62410015l36.62555595 86.1251631 13.31350245-10.37441452c1.35508953-1.04563758 2.88963173-1.87366844 4.5838461-2.4558337 2.31877005-0.93259504 5.00068881-1.49639097 7.89032053-1.49639095l75.55292519 0L696.58107182 440.0065779 696.58107182 440.0065779zM708.70904785 164.23818881l-63.28506029 93.41070989c-1.97823261 2.94756629-4.41569697 5.36807393-7.17815604 7.21913385 35.71415541 30.81944339 61.68410517 73.39382591 71.25027076 123.29755826 22.63804161 117.70905239-54.48757843 231.43479328-172.15141521 254.03750882-117.70340062 22.57869444-231.42914149-54.4677965-254.05163896-172.17119713-22.60271554-117.68361869 54.48192666-231.43479328 172.16554533-254.03468363 49.96590469-9.60431683 99.18432158-1.25052535 141.05077877 20.56372318 0.71216314-3.24853988 2.03899237-6.41936329 3.97907236-9.32312516l63.29919044-93.43049182c8.39194412-12.39221098 25.26909018-15.68172868 37.65423677-7.28272021C713.8496255 134.91796296999996 717.1009906 151.78804326 708.70904785 164.23818881L708.70904785 164.23818881M465.70724789 269.2922079c-88.28567499 16.93084145-146.09668458 102.24775562-129.14747382 190.51223606 16.97323188 88.26165388 102.2760159 146.05429415 190.53766978 129.1008442 88.25600209-16.94779818 146.11222733-102.26188576 129.12627791-190.50940948C639.25190386 310.15400672 553.97172835 252.32038862000002 465.70724789 269.2922079L465.70724789 269.2922079M465.70724789 269.2922079M914.84083888 101.21736481999994c0.92411666 1.17280887 1.71117109 2.38518297 2.39790052 3.67385957 53.53802805 76.09693919 87.01112852 180.48542476 87.01112853 279.12149316 0 271.40497491-220.82016493 492.22937901-492.25057354 492.22937902s-492.25057354-220.82299151-492.25057354-492.22937902c0-271.44877794 220.82016493-492.25340011 492.25057354-492.25340012 101.64439445 0 196.14454494 31.03705009 274.65916657 84.02823756 0.42531969 0.26282234 0.84498758 0.50162358 1.25335194 0.78705441l0.01695671 0 0 0c6.39958135 4.52026114 10.59201984 11.92450086 10.59201985 20.38144391 0 13.74164871-11.15581577 24.90170367-24.93420315 24.90170367-6.03502144 0-11.55004996-2.24105493-15.84705261-5.85415475-71.09059859-48.81287913-152.99223636-75.08945425-245.73882533-75.08945425-244.31167248 0-443.07030927 198.78689846-443.07030928 443.09856957 0 244.28764999 198.75863679 443.05193995 443.07030928 443.05193995s443.07313586-198.76428997 443.07313586-443.05193995c0-102.45264339-25.2408299-179.879237-79.66482198-253.03002389l0.02260849-0.01978194c-2.92778299-4.07374556-4.6827585-8.99954308-4.68275847-14.3874003 0-13.69925827 11.11907713-24.77735758 24.80279266-24.77735757 7.52576062 0 14.19946787 3.44636329 18.76353204 8.77345939l0.05793456-0.01978193C914.53562611 100.77650100999995 914.67551495 100.99693291999995 914.84083888 101.21736481999994z"  horiz-adv-x="1024" />

    
    <glyph glyph-name="chexiao2" unicode="&#58986;" d="M892.541481 540.693762 579.153958 249.692085l0 179.078585c-92.009554 0-313.387523 13.727653-313.387523-223.848231 0-124.428917 82.522482-244.61623 201.463408-268.6189C276.10592-38.119947 131.457496 121.328555 131.457496 316.846554c0 363.184673 384.323109 358.157169 447.696462 358.157169L579.153958 831.696462 892.541481 540.693762z"  horiz-adv-x="1024" />

    
    <glyph glyph-name="yingyong" unicode="&#58893;" d="M1008.302197 589.443265 789.691542 370.83261C769.561962 350.70303 736.950904 350.70303 716.821324 370.83261L498.2391 589.443265C478.10952 609.544414 478.10952 642.183903 498.2391 662.285052L716.821324 880.895707C736.950904 901.025287 769.561962 901.025287 789.691542 880.895707L1008.302197 662.285052C1028.431777 642.183903 1028.431777 609.544414 1008.302197 589.443265ZM753.668691 841.176747 537.958061 625.466116 753.668691 409.755485 969.379322 625.466116 753.668691 841.176747ZM369.841946-127.971568 57.094228-127.971568C25.677298-127.971568 0.231007-102.525277 0.231007-71.108347L0.231007 241.639371C0.231007 273.027869 25.677298 298.502593 57.094228 298.502593L369.841946 298.502593C401.230445 298.502593 426.705168 273.027869 426.705168 241.639371L426.705168-71.108347C426.705168-102.525277 401.230445-127.971568 369.841946-127.971568ZM369.841946 241.639371 57.094228 241.639371 57.094228-71.108347 369.841946-71.108347 369.841946 241.639371ZM369.841946 383.797425 57.094228 383.797425C25.677298 383.797425 0.231007 409.243716 0.231007 440.660646L0.231007 753.408364C0.231007 784.796863 25.677298 810.271586 57.094228 810.271586L369.841946 810.271586C401.230445 810.271586 426.705168 784.796863 426.705168 753.408364L426.705168 440.660646C426.705168 409.243716 401.230445 383.797425 369.841946 383.797425ZM369.841946 753.408364 57.094228 753.408364 57.094228 440.660646 369.841946 440.660646 369.841946 753.408364ZM568.863221 298.502593 881.61094 298.502593C912.999438 298.502593 938.474161 273.027869 938.474161 241.639371L938.474161-71.108347C938.474161-102.525277 912.999438-127.971568 881.61094-127.971568L568.863221-127.971568C537.446292-127.971568 512-102.525277 512-71.108347L512 241.639371C512 273.027869 537.446292 298.502593 568.863221 298.502593ZM568.863221-71.108347 881.61094-71.108347 881.61094 241.639371 568.863221 241.639371 568.863221-71.108347Z"  horiz-adv-x="1024" />

    
    <glyph glyph-name="huanjieo" unicode="&#59010;" d="M29.785374 325.79229699999996c-9.704013 0-19.235087 4.79419-24.833595 13.607926-8.727779 13.693884-4.679579 31.866778 9.014304 40.594557l154.168242 98.156554c13.636578 8.699126 31.866778 4.708232 40.594557-9.014304 8.727779-13.693884 4.679579-31.866778-9.014304-40.594557L45.546336 330.38591799999995C40.666188 327.285301 35.18229 325.79229699999996 29.785374 325.79229699999996zM338.093205 325.79229699999996c-5.396917 0-10.852162 1.493004-15.760962 4.593622l-154.196895 98.156554c-13.693884 8.727779-17.742083 26.900673-9.014304 40.594557 8.727779 13.693884 26.872021 17.684778 40.594557 9.014304l154.196895-98.156554c13.693884-8.727779 17.742083-26.900673 9.014304-40.594557C357.329315 330.58648600000004 347.797217 325.79229699999996 338.093205 325.79229699999996zM840.046385 256.430556c-5.396917 0-10.852162 1.493004-15.760962 4.593622L670.116157 359.18073100000004c-13.693884 8.727779-17.742083 26.900673-9.014304 40.594557 8.727779 13.693884 26.872021 17.684778 40.594557 9.014304l154.168242-98.156554c13.693884-8.727779 17.742083-26.900673 9.014304-40.594557C859.281471 261.224746 849.749374 256.430556 840.046385 256.430556zM840.10369 256.430556c-9.704013 0-19.235087 4.79419-24.833595 13.607926-8.727779 13.693884-4.679579 31.866778 9.014304 40.594557l154.168242 98.156554c13.636578 8.699126 31.866778 4.708232 40.594557-9.014304 8.727779-13.693884 4.679579-31.866778-9.014304-40.594557l-154.168242-98.156554C850.984505 257.92355999999995 845.500607 256.430556 840.10369 256.430556zM513.019213 746.841865c-135.622864 0-259.918751-76.366272-321.995575-195.900715l68.076468 0c55.666834 84.455507 150.895709 137.104611 253.919107 137.104611 167.632905 0 304.030411-136.397506 304.030411-304.059064 0-24.976858-3.01466-49.7818-9.014304-73.725118l57.07388-14.239306c7.120165 28.594245 10.737552 58.193377 10.737552 87.965447C875.846752 584.060455 713.093994 746.841865 513.019213 746.841865zM744.881978 188.36125100000004c-57.18849-67.668169-141.429103-108.405989-231.862765-108.405989-167.661557 0-304.059064 136.397506-304.059064 304.030411 0 16.565281 1.349741 33.159214 3.990894 49.322335l-58.050114 9.473769c-3.12927-19.292392-4.736884-39.072901-4.736884-58.796104 0-200.074781 162.78141-362.827539 362.856192-362.827539 124.080993 0 239.09754 63.526849 305.587883 167.203116L744.881978 188.36125100000004z"  horiz-adv-x="1024" />

    
    <glyph glyph-name="caidan" unicode="&#59022;" d="M98.225115 655.142373c-53.963029 0-97.878215 43.915186-97.878215 97.878215s43.914162 97.863888 97.878215 97.863888 97.878215-43.900859 97.878215-97.863888S152.188144 655.142373 98.225115 655.142373zM98.225115 794.0347c-22.623253 0-41.027415-18.404162-41.027415-41.014112 0-22.623253 18.404162-41.027415 41.027415-41.027415s41.027415 18.404162 41.027415 41.027415C139.252531 775.630538 120.848369 794.0347 98.225115 794.0347zM995.2277 724.595188 318.131571 724.595188c-15.711843 0-28.4254 12.727882-28.4254 28.4254s12.713556 28.4254 28.4254 28.4254l677.096129 0c15.711843 0 28.4254-12.727882 28.4254-28.4254S1010.939543 724.595188 995.2277 724.595188zM98.225115 286.128949c-53.963029 0-97.878215 43.914162-97.878215 97.878215s43.914162 97.863888 97.878215 97.863888 97.878215-43.900859 97.878215-97.863888S152.188144 286.128949 98.225115 286.128949zM98.225115 425.021276c-22.623253 0-41.027415-18.404162-41.027415-41.014112 0-22.623253 18.404162-41.027415 41.027415-41.027415s41.027415 18.404162 41.027415 41.027415C139.252531 406.617114 120.848369 425.021276 98.225115 425.021276zM995.2277 355.581764 318.131571 355.581764c-15.711843 0-28.4254 12.727882-28.4254 28.4254s12.713556 28.4254 28.4254 28.4254l677.096129 0c15.711843 0 28.4254-12.727882 28.4254-28.4254S1010.939543 355.581764 995.2277 355.581764zM98.225115-82.884476c-53.963029 0-97.878215 43.914162-97.878215 97.878215s43.914162 97.863888 97.878215 97.863888 97.878215-43.900859 97.878215-97.863888S152.188144-82.884476 98.225115-82.884476zM98.225115 56.006827c-22.623253 0-41.027415-18.404162-41.027415-41.014112 0-22.623253 18.404162-41.027415 41.027415-41.027415s41.027415 18.404162 41.027415 41.027415C139.252531 37.602665 120.848369 56.006827 98.225115 56.006827zM995.2277-13.431661 318.131571-13.431661c-15.711843 0-28.4254 12.727882-28.4254 28.4254 0 15.697517 12.713556 28.4254 28.4254 28.4254l677.096129 0c15.711843 0 28.4254-12.727882 28.4254-28.4254C1023.653099-0.703779 1010.939543-13.431661 995.2277-13.431661z"  horiz-adv-x="1024" />

    
    <glyph glyph-name="guidang" unicode="&#58905;" d="M980.48 94.72c0-46.08-35.84-81.92-81.92-81.92H128c-46.08 0-81.92 35.84-81.92 81.92V389.12c-2.56 5.12 0 12.8 5.12 20.48L250.88 747.52c12.8 17.92 40.96 33.28 61.44 33.28h417.28c23.04 0 48.64-15.36 61.44-35.84L975.36 409.6c2.56-5.12 5.12-10.24 5.12-15.36v-299.52zM87.04 414.72v-20.48 20.48z m0-320c0-23.04 17.92-40.96 40.96-40.96h770.56c23.04 0 40.96 17.92 40.96 40.96v281.6h-243.2v-81.92c0-23.04-17.92-40.96-40.96-40.96H371.2c-23.04 0-40.96 17.92-40.96 40.96v81.92H87.04v-281.6z m568.32 220.16v102.4H371.2v-102.4c0-10.24 10.24-20.48 20.48-20.48h243.2c10.24 0 20.48 7.68 20.48 20.48zM768 706.56c-10.24 20.48-38.4 35.84-61.44 35.84H335.36c-23.04 0-51.2-15.36-61.44-33.28L107.52 417.28H921.6L768 706.56zM248.32 496.64c0 10.24 10.24 20.48 20.48 20.48h486.4c10.24 0 20.48-10.24 20.48-20.48s-10.24-20.48-20.48-20.48h-486.4c-10.24 0-20.48 10.24-20.48 20.48zM716.8 558.08H309.76c-10.24 0-20.48 10.24-20.48 20.48s10.24 20.48 20.48 20.48H716.8c10.24 0 20.48-10.24 20.48-20.48-2.56-10.24-10.24-20.48-20.48-20.48zM675.84 640H350.72c-10.24 0-20.48 10.24-20.48 20.48s10.24 20.48 20.48 20.48h325.12c10.24 0 20.48-10.24 20.48-20.48 0-12.8-10.24-20.48-20.48-20.48z"  horiz-adv-x="1024" />

    
    <glyph glyph-name="huanjie" unicode="&#59011;" d="M265.6 454.4c1.28-0.64 2.56-0.64 3.84-0.64 7.04 0 13.44 4.48 15.36 12.16 28.8 107.52 126.72 183.04 238.08 183.04 83.84 0 159.36-41.6 204.16-108.16l-42.88-21.12 104.96-71.04 8.96 126.72-42.24-20.48c-50.56 77.44-136.96 126.08-232.96 126.08-126.08 0-236.8-85.12-269.44-206.72-1.28-8.96 3.84-17.92 12.16-19.84zM783.36 361.6c-8.32 1.92-17.28-3.84-19.2-12.16-24.32-112.64-125.44-193.92-241.28-193.92-96 0-181.12 55.04-221.44 138.24l44.8 21.76-104.96 71.04-8.96-126.72 40.32 19.84c46.08-94.08 142.08-156.16 250.24-156.16 130.56 0 244.48 92.16 272 219.52 2.56 8.32-2.56 16.64-11.52 18.56z"  horiz-adv-x="1024" />

    
    <glyph glyph-name="user" unicode="&#58883;" d="M583.999 414.452c57.999 26.4 94.898 83.6 94.898 147.099 0 89.798-68.399 154.398-158.398 154.398s-158.997-65.2-158.997-154.898c0-65.6 38.099-119.499 98.698-145.099 26.4-11.3 80.1-16.7 123.799-1.5zM446.6 358.153c-3.3 1.1-7 1.8-10.3 3.2-80.298 33.8-136.498 112.299-136.498 199.198 0 118.998 92.4 219.697 220.397 219.697 130.699 0 220.398-100.399 220.398-219.297 0-84.2-53.4-161.998-130.199-197.098-59.699-26-119.198-20.5-163.798-5.7zM202.404-30.642c-28.9 0.1-58.9 13.1-74.1 37-14.7 23.1-12.9 55.499-1.3 80.199 40.3 85.999 145.799 230.797 399.995 234.697 261.397 4.8 356.496-150.298 389.895-242.697 8.8-24.3 10.2-46.4-4.3-72.9-17.1-27.499-46.699-34.199-74.099-34.199h-66.299c-14.7 0-26.4 15-26.4 29.7s12 27.9 26.6 27.9h67.9c10.2 0 15.5 0.2 21.1 8.1 2.9 4.1 6.299 13.2 2.4 23.899-34.9 96.499-128.9 201.597-338.397 201.597-205.897 0-293.096-105.498-338.395-193.297-3.9-8.3-4.7-20.3 0.3-28 5.4-8.5 11.5-12.2 22.1-12.2h450.794c14.7 0 27.7-14.6 27.7-29.3 0-14.7-12-30.399-26.7-30.399z"  horiz-adv-x="1024" />

    
    <glyph glyph-name="lie-biao" unicode="&#58900;" d="M372.5312 619.35616h557.88544c41.84064 0 69.7344 27.89376 69.7344 69.7344 0 41.84064-27.89376 69.73952-69.7344 69.73952H372.5312c-41.84064 0-69.7344-27.89376-69.7344-69.73952 0-41.83552 27.89376-69.7344 69.7344-69.7344zM930.41664 453.73952H372.5312c-41.84064 0-69.7344-27.89888-69.7344-69.73952s27.89376-69.73952 69.7344-69.73952h557.88544c41.84064 0 69.7344 27.89888 69.7344 69.73952s-27.89376 69.73952-69.7344 69.73952zM930.41664 148.64384H372.5312c-41.84064 0-69.7344-27.89888-69.7344-69.73952s27.89376-69.7344 69.7344-69.7344h557.88544c41.84064 0 69.7344 27.89376 69.7344 69.7344s-27.89376 69.73952-69.7344 69.73952zM93.58848 758.82496c-41.84064 0-69.73952-27.89376-69.73952-69.73952 0-41.84064 27.89888-69.7344 69.73952-69.7344s69.72928 27.89376 69.72928 69.7344c0 41.84576-27.88864 69.73952-69.72928 69.73952zM93.58848 453.73952c-41.84064 0-69.73952-27.89888-69.73952-69.73952s27.89888-69.73952 69.73952-69.73952S163.31776 342.15936 163.31776 384s-27.88864 69.73952-69.72928 69.73952zM93.58848 148.64384c-41.84064 0-69.73952-27.89888-69.73952-69.73952s27.89888-69.7344 69.73952-69.7344 69.72928 27.89376 69.72928 69.7344-27.88864 69.73952-69.72928 69.73952z"  horiz-adv-x="1024" />

    
    <glyph glyph-name="chubeiku" unicode="&#58890;" d="M502.449483 725.101725L170.898275 522.487098 170.898275 42.898275 211.147978 42.898275 211.147978 499.974361 502.449483 678.02964 812.852022 499.292839 812.852022 42.898275 853.101725 42.898275 853.101725 523.169643ZM636.160811 497.927749L387.839189 497.927749l0-206.707852L284.143479 291.219897l0-248.322645 207.390397 0 40.932248 0 207.390397 0L739.856521 291.219897 636.160811 291.219897 636.160811 497.927749zM428.088892 456.995501l42.97886 0 0-48.436152 81.181951 0 0 48.436152 42.97886 0 0-165.775604-62.762439 0-40.932248 0-63.444984 0L428.088892 456.995501zM324.394205 83.147978l0 167.822217 42.97886 0 0-48.436152 81.181951 0 0 47.072085 42.97886 0 0-165.775604L324.394205 83.830523 324.394205 83.147978zM699.605795 83.147978L532.466124 83.147978 532.466124 249.606127l42.97886 0 0-47.072085 81.181951 0 0 48.436152 42.97886 0L699.605795 83.147978 699.605795 83.147978z"  horiz-adv-x="1024" />

    
    <glyph glyph-name="tongguo" unicode="&#59002;" d="M510.22279111 893.57767111c-280.8832 0-508.58439111-227.70119111-508.58439111-508.58439111s227.70119111-508.58439111 508.58439111-508.58439111 508.58439111 227.70119111 508.58439111 508.58439111S791.10599111 893.57767111 510.22279111 893.57767111z m311.35061334-819.93614222c-40.46051555-40.46051555-87.55655111-72.21816889-139.9808-94.39232-54.24014222-22.94215111-111.89816889-34.57479111-171.37095112-34.57479111s-117.12967111 11.63264-171.36981333 34.57479111c-52.42424889 22.17415111-99.52142222 53.93180445-139.9808 94.39232-40.46051555 40.46051555-72.21816889 87.55655111-94.39118222 139.9808-22.94215111 54.24014222-34.57479111 111.89816889-34.57479111 171.37095111s11.63264 117.12967111 34.57479111 171.37095111c22.17301333 52.42424889 53.93180445 99.52028445 94.39118222 139.9808 40.45937778 40.46051555 87.55655111 72.21816889 139.9808 94.39232 54.24014222 22.94215111 111.89816889 34.57479111 171.36981333 34.57479111 59.47278222 0 117.12967111-11.63264 171.37095112-34.57479111 52.42424889-22.17415111 99.52028445-53.93180445 139.9808-94.39232 40.46051555-40.46051555 72.21816889-87.55655111 94.39232-139.9808 22.94215111-54.24014222 34.57479111-111.89816889 34.5747911-171.37095111s-11.63264-117.12967111-34.5747911-171.37095111c-22.17415111-52.42424889-53.93180445-99.52028445-94.39232-139.9808zM704.17521778 556.68508445L424.02133333 285.02129778000005l-108.10936888 101.84476444c-13.7216 12.92515555-35.32344889 12.28003555-48.25088-1.43928889-12.92629333-13.72273778-12.28117333-35.32458667 1.43928888-48.25088l131.85592889-124.21461333a34.03320889 34.03320889 0 0 1 23.40408889-9.28881778 34.03776 34.03776 0 0 1 23.76248889 9.62901333L751.70019555 507.67644445c13.53386667 13.12312889 13.86609778 34.73294222 0.74183112 48.2656711s-34.73180445 13.86609778-48.26680889 0.7429689z"  horiz-adv-x="1024" />

    
    <glyph glyph-name="butongguo" unicode="&#59003;" d="M511.50279111 892.42282667c-280.8832 0-508.58439111-227.70119111-508.58439111-508.58439112S230.61959111-124.74595554999996 511.50279111-124.74595554999996 1020.08604445 102.95637333000002 1020.08604445 383.83957333 792.38599111 892.42282667 511.50279111 892.42282667zM822.85340445 72.48782222c-40.46051555-40.46051555-87.55655111-72.21816889-139.9808-94.39118222-54.24014222-22.94215111-111.89816889-34.57479111-171.37095112-34.57479111s-117.12967111 11.63264-171.37095111 34.57479111c-52.42424889 22.17301333-99.52028445 53.93180445-139.9808 94.39118222-40.46051555 40.46051555-72.21816889 87.55655111-94.39232 139.9808-22.94215111 54.24014222-34.57479111 111.89816889-34.57479111 171.36981333s11.63264 117.12967111 34.57479111 171.37095112c22.17415111 52.42424889 53.93180445 99.52028445 94.39232 139.9808 40.45937778 40.46051555 87.55655111 72.21816889 139.9808 94.39232 54.24014222 22.94215111 111.89816889 34.57479111 171.37095111 34.57479111s117.12967111-11.63264 171.37095112-34.57479111c52.42424889-22.17415111 99.52028445-53.93180445 139.9808-94.39232 40.46051555-40.45937778 72.21816889-87.55655111 94.39232-139.9808 22.94215111-54.24014222 34.57479111-111.89816889 34.5747911-171.37095112s-11.63264-117.12967111-34.5747911-171.36981333c-22.17415111-52.42424889-53.93180445-99.52142222-94.39232-139.9808zM714.62343111 583.13045333c-13.32906667 13.33020445-34.94229333 13.33020445-48.27136 0L513.74648889 430.52487111 361.14204445 583.13045333c-13.33020445 13.33020445-34.94229333 13.33020445-48.27249778 0-13.32906667-13.33020445-13.32906667-34.94229333 0-48.27249778l152.60558222-152.60558222-152.60558222-152.60444444c-13.32906667-13.33020445-13.32906667-34.94115555 0-48.27136 6.66510222-6.66510222 15.40096-9.99765333 24.13568-9.99765334s17.47057778 3.33255111 24.13568 9.99765334l152.60558222 152.60558222 152.60558222-152.60558222c6.66396445-6.66510222 15.39982222-9.99765333 24.13568-9.99765334s17.47057778 3.33255111 24.13568 9.99765334c13.33020445 13.33020445 13.33020445 34.94115555 0 48.27136L562.01784889 382.25351111 714.62343111 534.85795555c13.33020445 13.33020445 13.33020445 34.94229333 0 48.27249778z"  horiz-adv-x="1024" />

    
    <glyph glyph-name="gongshi" unicode="&#59165;" d="M870.080-66.134h-716.16c-31.573 0-57.28 25.707-57.28 57.28v487.040c0 31.573 25.707 57.28 57.28 57.28h716.16c31.573 0 57.28-25.707 57.28-57.28v-487.040c0-31.573-25.707-57.28-57.28-57.28M153.92 478.186v-487.040h716.267v487.040h-716.267M153.92 478.186zM841.173 483.946l-329.173 306.24-329.173-306.24-29.227 31.467 358.4 333.44 358.4-333.44-29.227-31.467M841.173 483.946zM454.72 819.52c0-15.040 6.187-29.867 16.747-40.533 10.56-10.56 25.493-16.747 40.533-16.747s29.867 6.187 40.533 16.747c10.56 10.56 16.747 25.493 16.747 40.533 0 15.040-6.187 29.867-16.747 40.533-10.667 10.56-25.493 16.747-40.533 16.747s-29.867-6.187-40.533-16.747c-10.56-10.667-16.747-25.6-16.747-40.533M454.72 819.52zM282.773 234.666c0-11.307 4.587-22.4 12.587-30.4s19.093-12.587 30.4-12.587c11.2 0 22.4 4.587 30.4 12.587 8 8 12.587 19.093 12.587 30.4 0 11.2-4.587 22.4-12.587 30.4-8 8-19.093 12.587-30.4 12.587-11.2 0-22.4-4.587-30.4-12.587-7.893-8-12.587-19.2-12.587-30.4M282.773 234.666zM469.013 234.666c0-11.307 4.587-22.4 12.587-30.4s19.093-12.587 30.4-12.587c11.2 0 22.4 4.587 30.4 12.587 8 8 12.587 19.093 12.587 30.4 0 11.2-4.587 22.4-12.587 30.4-8 8-19.093 12.587-30.4 12.587-11.2 0-22.4-4.587-30.4-12.587-7.893-8-12.587-19.2-12.587-30.4M469.013 234.666zM655.253 234.666c0-11.307 4.587-22.4 12.587-30.4s19.093-12.587 30.4-12.587 22.4 4.587 30.4 12.587c8 8 12.587 19.093 12.587 30.4 0 11.2-4.587 22.4-12.587 30.4-8 8-19.093 12.587-30.4 12.587s-22.4-4.587-30.4-12.587c-8-8-12.587-19.2-12.587-30.4M655.253 234.666z"  horiz-adv-x="1024" />

    
    <glyph glyph-name="jiantou" unicode="&#58898;" d="M511.31 226.6a61.19 61.19 0 0 0-43.25 17.79l-237.12 237.2a35 35 0 0 0 49.55 49.55l230.89-230.9 230.9 230.89a35 35 0 1 0 49.55-49.55L554.7 244.46a61.41 61.41 0 0 0-43.39-17.86z"  horiz-adv-x="1024" />

    
    <glyph glyph-name="B-jiemi" unicode="&#58956;" d="M950.4-57.6H401.6c-41.6 0-76.8 35.2-76.8 78.4V419.2c0 43.2 35.2 78.4 76.8 78.4h548.8c41.6 0 76.8-35.2 76.8-78.4v-398.4c0-43.2-35.2-78.4-76.8-78.4zM401.6 448c-14.4 0-27.2-12.8-27.2-28.8v-398.4c0-14.4 11.2-28.8 27.2-28.8h548.8c14.4 0 27.2 12.8 27.2 28.8V419.2c0 14.4-11.2 28.8-27.2 28.8H401.6zM112 460.8H60.8v124.8c0 64 24 123.2 68.8 168C176 800 238.4 825.6 302.4 825.6c68.8 0 131.2-27.2 176-76.8 44.8-48 68.8-110.4 65.6-176V480h-49.6v92.8c3.2 52.8-14.4 104-51.2 139.2-35.2 41.6-84.8 64-139.2 64-52.8 0-102.4-20.8-137.6-56C131.2 684.8 112 636.8 112 587.2V460.8zM648 321.6h54.4v-203.2h-54.4z"  horiz-adv-x="1027" />

    
    <glyph glyph-name="huifu" unicode="&#58930;" d="M250.181679 450.784746a52.29731 52.29731 0 1 1 52.272733 54.066767 53.23119 53.23119 0 0 1-52.272733-54.066767z m209.115511 0a52.29731 52.29731 0 1 1 52.272733 54.066767 53.23119 53.23119 0 0 1-52.272733-54.066767z m209.115511 0a52.29731 52.29731 0 1 1 52.272734 54.066767 53.23119 53.23119 0 0 1-52.272734-54.066767z m155.958048 326.440396H198.744522a106.683563 106.683563 0 0 1-104.545468-109.091991v-407.958336a113.638515 113.638515 0 0 1 107.076776-115.113063h158.513932c27.819809-30.056208 142.53966-149.470036 142.539659-149.470037a13.049752 13.049752 0 0 1 18.554732 0s84.319581 95.354117 139.123623 149.470037h162.74097a113.638515 113.638515 0 0 1 107.027624 115.014759v407.958337a107.936929 107.936929 0 0 1-105.405621 109.190294z m52.272734-517.148631a62.029328 62.029328 0 0 0-54.804042-61.857297h-160.185086a60.628507 60.628507 0 0 1-37.109463-19.660642l-111.303814-116.808794-113.048696 117.668947a74.538412 74.538412 0 0 1-39.616195 19.660642H200.440252a62.029328 62.029328 0 0 0-54.804041 61.857298V668.133151a53.255766 53.255766 0 0 0 52.272734 54.066767H823.535172a53.23119 53.23119 0 0 0 52.272734-54.066767v-407.958336h0.835577z"  horiz-adv-x="1024" />

    
    <glyph glyph-name="gongzuohuibao" unicode="&#58907;" d="M862.048-30.048c0-19.2-15.136-34.336-34.304-34.336H92.352c-19.2 0-34.368 15.168-34.368 34.336V801.248c0 19.232 15.168 34.4 34.368 34.4h507.552v-187.872c0-53.568 43.968-96.704 97.568-96.704h27.936l63.168 63.136h-91.104a34.144 34.144 0 0 0-34.4 34.4v135.04l143.104-151.872 43.936 43.968L643.904 895.552H92.352C40.384 895.552 0.448 854.784 0.448 801.216V-30.08c0-55.168 39.968-97.504 91.904-97.504h735.392c52.704 0 94.272 42.336 94.272 97.504V345.664l-60.704-64 0.736-311.712zM1001.984 594.208l-21.6 21.6a79.84 79.84 0 0 1-48.736 23.2 71.68 71.68 0 0 1-56.704-21.568l-255.808-256.608-52.768-137.44c-9.6-24.8 14.4-48.8 39.232-39.968l139.872 50.336 256.576 256.576a73.344 73.344 0 0 1-0.064 103.872z m-144.704-61.536l59.968-59.168-163.872-164.672-59.904 60 163.808 163.84z m111.936-8l-18.4-18.4-59.936 59.168 18.4 18.4a25.184 25.184 0 0 0 18.336 7.2c7.232 0 13.6-2.4 18.368-7.2l23.232-23.2c4.768-4.8 7.136-11.168 7.136-18.4a23.456 23.456 0 0 0-7.136-17.568z m-309.376-189.408l60-59.936-95.904-35.2 35.904 95.136zM171.488 17.12h588.288c19.2 0 35.2 15.968 35.2 35.168s-16 35.168-35.2 35.168H171.488c-19.168 0-35.168-15.968-35.168-35.168s16-35.168 35.168-35.168z m0 187.04h278.176c19.168 0 35.136 16 35.136 35.168 0 19.2-15.968 35.2-35.136 35.2H171.488c-19.168 0-35.168-16-35.168-35.2 0-19.168 16-35.168 35.168-35.168z m278.176 266.176H171.488c-19.168 0-35.168-16-35.168-35.168 0-19.2 16-35.2 35.168-35.2h278.176c19.168 0 35.136 16 35.136 35.2 0 19.168-15.968 35.168-35.136 35.168zM171.488 602.208h278.176c19.168 0 35.136 16 35.136 35.2s-15.968 35.168-35.136 35.168H171.488c-19.168 0-35.168-16-35.168-35.168s16-35.2 35.168-35.2z"  horiz-adv-x="1024" />

    
    <glyph glyph-name="peixunjilu" unicode="&#59143;" d="M273.445283 811.836487v-97.598932a84.13701 84.13701 0 0 0-84.13701-84.13701H84.13701a84.13701 84.13701 0 0 0-84.13701 84.13701V811.836487a84.13701 84.13701 0 0 0 84.13701 84.13701h103.067838A84.13701 84.13701 0 0 0 273.445283 811.836487zM967.575618 895.973497H436.671083a84.13701 84.13701 0 0 1-84.13701-84.13701v-98.019617a84.13701 84.13701 0 0 1 84.13701-84.137011H967.575618a84.13701 84.13701 0 0 1 86.240435 84.137011V811.836487A84.13701 84.13701 0 0 1 967.575618 895.973497zM187.204848 517.356951H84.13701a84.13701 84.13701 0 0 1-84.13701-84.13701v-98.440302a84.13701 84.13701 0 0 1 84.13701-84.137011h103.067838a84.13701 84.13701 0 0 1 86.240435 84.137011V433.219941a84.13701 84.13701 0 0 1-84.13701 84.13701zM967.575618 517.356951H436.671083a84.13701 84.13701 0 0 1-84.13701-84.13701v-98.440302a84.13701 84.13701 0 0 1 84.13701-84.137011H967.575618a84.13701 84.13701 0 0 1 86.240435 84.137011V433.219941A84.13701 84.13701 0 0 1 967.575618 517.356951zM187.204848 138.740405H84.13701a84.13701 84.13701 0 0 1-84.13701-84.13701v-98.440302a84.13701 84.13701 0 0 1 84.13701-84.137011h103.067838a84.13701 84.13701 0 0 1 86.240435 84.137011V54.60339499999998a84.13701 84.13701 0 0 1-84.13701 84.13701zM967.575618 138.740405H436.671083a84.13701 84.13701 0 0 1-84.13701-84.13701v-98.440302a84.13701 84.13701 0 0 1 84.13701-84.137011H967.575618a84.13701 84.13701 0 0 1 86.240435 84.137011V54.60339499999998A84.13701 84.13701 0 0 1 967.575618 138.740405z"  horiz-adv-x="1056" />

    
    <glyph glyph-name="liebiao" unicode="&#58880;" d="M341.333 725.333h568.89v-113.777h-568.89z m-227.555 0h113.778v-113.777H113.778z m0-284.444h113.778V327.11H113.778z m0-284.445h113.778v-113.777H113.778z m227.555 0h568.89v-113.777h-568.89z m0 284.445h568.89V327.11h-568.89z"  horiz-adv-x="1024" />

    
    <glyph glyph-name="shujuzidian" unicode="&#58904;" d="M882.682828-61.414141h-157.737373c-10.731313 0-19.652525 8.921212-19.652526 20.040404V809.244444c0 10.60202 8.921212 19.523232 19.652526 19.523233h157.60808c10.731313 0 19.911111-8.921212 19.911111-19.523233v-850.230303c0.129293-11.377778-9.438384-20.428283-19.781818-20.428282m-138.084848 39.951515h118.173737V789.462626h-118.173737v-810.925252z m0 0M589.963636-61.414141H432.355556c-10.731313 0-19.911111 8.921212-19.911112 20.040404V320.905051c0 11.377778 9.179798 19.911111 19.911112 19.911111h157.478787c10.989899 0 19.911111-8.533333 19.911112-19.911111v-362.020203c0.129293-11.248485-8.921212-20.29899-19.781819-20.298989m-137.696969 39.951515h117.656565V301.511111h-117.656565v-322.973737z m-154.634344-39.951515h-157.737374c-10.731313 0-19.523232 8.921212-19.523232 20.040404V499.2c0 10.731313 8.791919 19.523232 19.523232 19.523232h157.608081c10.731313 0 19.523232-8.921212 19.523233-19.523232V-41.373737c0.129293-10.989899-8.921212-20.040404-19.39394-20.040404M159.418182-21.462626h118.173737V479.547475H159.418182v-501.010101z m0 0"  horiz-adv-x="1024" />

    
    <glyph glyph-name="gonggao" unicode="&#58887;" d="M567.750465 730.355071c-15.72202 0-31.899152-4.156768-48.076283-12.378505L128.892768 519.623111v-272.535273l390.782707-198.353454c16.177131-8.22303 32.349091-12.379798 48.076283-12.379798 24.080808 0 45.631354 9.945212 60.656484 28.015192 14.050263 16.899879 21.484606 39.757576 21.484606 66.055757v505.858586c0 55.394263-33.777778 94.070949-82.142383 94.07095z m14.187313-599.929536c0-9.530182-1.989818-17.348525-5.444525-21.505293-1.470061-1.807515-3.640889-3.616323-8.74796-3.616323-3.475394 0-9.373737 0.905051-17.661414 5.15103L196.846545 289.648485V476.970667l353.238627 179.282747c8.287677 4.248566 14.187313 5.152323 17.661414 5.152323 11.726869 0 14.187313-13.646869 14.187313-25.121616v-505.858586h0.003879zM706.594263 511.491879c22.186667-36.869172 33.909657-79.247515 33.909656-122.713212 0-39.672242-9.874101-78.802747-28.534949-113.318788l59.575596-33.16493c24.151919 44.550465 36.914424 95.247515 36.914424 146.483718 0 56.11701-15.181576 111.056162-43.893657 158.677333l-57.97107-35.964121zM858.563879 681.465535l-57.969778-36.004202c47.374222-78.66699 72.429899-169.298747 72.429899-262.016 0-84.580848-21.055354-168.256646-60.903434-241.904485l59.55103-33.207595c45.337859 83.767596 69.307475 178.874182 69.307475 275.110787-0.001293 105.456485-28.485818 208.471919-82.415192 298.021495z"  horiz-adv-x="1024" />

    
    <glyph glyph-name="bianji" unicode="&#59041;" d="M319.199265 328.864372c-0.685614-0.913811-1.371228-1.828645-1.600448-2.857065l-51.542807-195.292481c-2.971675-11.427237 0.11461-23.654699 8.228389-32.224871 6.056937-6.170524 14.057129-9.485006 22.628324-9.485006 2.857065 0 5.59952 0.342807 8.457609 1.14303l187.542999 52.907895c0.342807 0 0.457417-0.228197 0.685614-0.228197 2.171451 0 4.342903 0.800224 5.82874 2.514258l501.484527 518.341416c14.857353 15.427333 23.085742 36.453164 23.085741 59.307639 0 25.939737-10.628037 51.765887-29.257289 70.963073l-47.314514 48.794212c-18.628229 19.198209-43.657225 30.28264-68.685198 30.28264-22.057321 0-42.399584-8.456586-57.371547-23.882896l-501.484527-518.569612c-0.457417-0.456394-0.342807-1.142007-0.685613-1.714035z m632.684398 385.328249l-49.828772-51.42308-80.685486 84.789959 49.143158 50.737466c7.770972 8.113779 22.857545 6.856138 31.771548-2.399648l47.428101-49.023432c4.913907-5.142103 7.770972-11.884654 7.770971-18.626182-0.228197-5.3703-2.171451-10.398817-5.59952-14.055083zM408.341336 320.637007l361.942679 374.129208 80.800096-84.904569-361.257065-373.328984-81.48571 84.104345z m-65.942743-151.640373l26.171004 99.188872 69.714642-72.106104-95.885646-27.082768z m641.256617 339.847496c-18.971036 0-34.514002-15.998337-34.628612-35.881137v-483.259479c0-25.368733-19.88587-45.93817-44.457449-45.93817H113.713651c-24.571579 0-44.457449 20.569437-44.457449 45.93817V778.527753c0 25.368733 19.999456 45.937147 44.457449 45.937147h509.370108c19.085646 0 34.628613 15.998337 34.628613 35.76755 0 19.654603-15.542967 35.76755-34.628613 35.76755H108.456937c-59.771196 0-108.456937-50.28005-108.456937-112.101947v-799.795083c0-61.821897 48.685742-112.101947 108.456937-112.101947h801.369949c59.771196 0 108.456937 50.28005 108.456937 112.101947v489.08822c-0.11461 19.654603-15.657577 35.65294-34.628613 35.65294z"  horiz-adv-x="1024" />

    
    <glyph glyph-name="fabu" unicode="&#58911;" d="M946.672 785.515c0 0.043-0.003 0.085-0.003 0.13a29.858 29.858 0 0 1-0.105 2.472c-0.018 0.236-0.044 0.47-0.067 0.705a29.857 29.857 0 0 1-0.286 2.057c-0.033 0.191-0.058 0.382-0.095 0.572a30.726 30.726 0 0 1-0.579 2.437c-0.07 0.248-0.153 0.492-0.23 0.737a29.942 29.942 0 0 1-0.582 1.706c-0.112 0.295-0.222 0.59-0.342 0.884a30.143 30.143 0 0 1-0.945 2.079c-0.135 0.268-0.287 0.527-0.43 0.793a30.678 30.678 0 0 1-1.442 2.396 29.652 29.652 0 0 1-1.185 1.645c-0.129 0.167-0.248 0.336-0.38 0.5a29.565 29.565 0 0 1-2.198 2.42 29.452 29.452 0 0 1-1.761 1.628c-0.07 0.061-0.132 0.128-0.204 0.187-0.02 0.019-0.043 0.033-0.064 0.05a29.815 29.815 0 0 1-1.777 1.37c-0.123 0.087-0.252 0.163-0.376 0.248-0.221 0.152-0.445 0.294-0.668 0.442a30.068 30.068 0 0 1-1.69 1.02c-0.235 0.133-0.467 0.273-0.705 0.398-0.723 0.38-1.46 0.728-2.206 1.047-0.29 0.125-0.587 0.234-0.883 0.348a29.576 29.576 0 0 1-1.584 0.568c-0.316 0.103-0.63 0.208-0.948 0.3a30.31 30.31 0 0 1-2.323 0.584c-0.22 0.045-0.44 0.073-0.66 0.113a29.561 29.561 0 0 1-2.772 0.377 30.173 30.173 0 0 1-2.173 0.116c-0.126 0.002-0.252 0.013-0.379 0.013a30.616 30.616 0 0 1-2.565-0.108c-0.219-0.018-0.436-0.045-0.654-0.067-0.685-0.07-1.368-0.167-2.05-0.284-0.205-0.036-0.41-0.066-0.615-0.105-0.832-0.163-1.66-0.356-2.48-0.59-0.193-0.055-0.382-0.124-0.574-0.182a30.47 30.47 0 0 1-2.737-0.983c-0.555-0.231-1.102-0.126-1.646-0.392-0.245-0.12-0.496 0.005-0.74 0.005L93.52 390.091c-10.017-5.235-16.266-15.812-16.187-27.114 0.08-11.3 6.474-21.699 16.563-26.791l217.27-109.707c14.863-7.507 32.998-1.56 40.5 13.308 7.502 14.863 1.535 32.986-13.33 40.487L173.472 363.48l623.153 325.577-384.13-460.475a30.147 30.147 0 0 1-6.998-19.314v-230.244c0-16.65 13.497-30.15 30.148-30.15 16.652 0 30.15 13.498 30.15 30.15v219.32l405.212 485.74-92.305-623.733-217.41 107.905c-14.914 7.4-33.007 1.31-40.409-13.604-7.403-14.915-1.313-33.007 13.602-40.41l254.567-126.346a30.146 30.146 0 0 1 27.368 0.286 30.15 30.15 0 0 1 15.86 22.305l114.068 770.809c0.04 0.273 0.06 0.547 0.092 0.82 0.035 0.288 0.07 0.574 0.096 0.862 0.077 0.849 0.13 1.695 0.135 2.537z"  horiz-adv-x="1024" />

    
    <glyph glyph-name="daochu" unicode="&#58881;" d="M910.222222-127.943111H113.777778c-62.577778 0-113.777778 51.143111-113.777778 113.720889V782.222222C0 844.8 51.2 896 113.777778 896h284.444444c17.066667 0 28.444444-11.377778 28.444445-28.444444S415.288889 839.111111 398.222222 839.111111H113.777778c-31.288889 0-56.888889-25.6-56.888889-56.888889v-796.444444c0-31.288889 25.6-56.832 56.888889-56.832h796.444444c31.288889 0 56.888889 25.543111 56.888889 56.832V355.555556c0 17.066667 11.377778 28.444444 28.444445 28.444444s28.444444-11.377778 28.444444-28.444444V-14.222222c0-62.577778-51.2-113.720889-113.777778-113.720889zM1006.933333 614.4l-244.622222-221.866667c-11.377778-11.377778-31.288889-11.377778-42.666667 0-11.377778 11.377778-11.377778 28.444444 0 36.977778l199.111112 182.044445H483.555556c-17.066667 0-28.444444 11.377778-28.444445 28.444444s11.377778 28.444444 28.444445 28.444444h438.044444L722.488889 850.488889c-11.377778 11.377778-11.377778 28.444444 0 36.977778 11.377778 11.377778 31.288889 11.377778 42.666667 0L1012.622222 662.755556c5.688889-2.844444 8.533333-5.688889 11.377778-11.377778 0-8.533333 0-14.222222-2.844444-22.755556-2.844444-5.688889-8.533333-11.377778-14.222223-14.222222z"  horiz-adv-x="1024" />

    
    <glyph glyph-name="daibanshixiang" unicode="&#58959;" d="M64.8-55.136V823.072c0 4.864 3.936 8.832 8.8 8.832h736.352c4.864 0 8.8-3.968 8.8-8.832v-354.304h63.872V823.072A72.896 72.896 0 0 1 809.952 896H73.6A72.896 72.896 0 0 1 0.928 823.072v-878.208A72.832 72.832 0 0 1 73.6-128h412.256v64.096H73.6a8.8 8.8 0 0 0-8.8 8.768zM655.872 472.16a31.904 31.904 0 0 1-31.872 31.968H256.704a31.936 31.936 0 1 1 0-63.904H624a31.904 31.904 0 0 1 31.872 31.936zM256.704 331.328a31.968 31.968 0 0 1 0-63.872h127.52a31.936 31.936 0 0 1 0 63.872H256.704zM624 670.592H256.704a31.936 31.936 0 0 1 0-63.872H624a31.872 31.872 0 0 1 31.872 31.936 31.904 31.904 0 0 1-31.872 31.936zM866.24 141.44h-63.616v103.328a31.904 31.904 0 1 1-63.872 0v-135.264c0-17.6 14.304-31.904 31.936-31.904h95.552a31.904 31.904 0 1 1 0 63.84zM772.8 374.432a251.296 251.296 0 0 1-251.328-251.264A251.296 251.296 0 0 1 1024 123.232a251.232 251.232 0 0 1-251.2 251.2z m0-438.592c-103.36 0-187.36 84.032-187.36 187.328s84 187.328 187.36 187.328a187.584 187.584 0 0 0 187.328-187.328 187.552 187.552 0 0 0-187.328-187.328z"  horiz-adv-x="1024" />

    
    <glyph glyph-name="cuiban" unicode="&#59248;" d="M384 670.016V704a32 32 0 0 0 64 0v-33.984c126.272-15.744 224-123.456 224-254.016v-352h64a32 32 0 0 0 0-64h-256a64 64 0 1 0-128 0H96a32 32 0 0 0 0 64h64V416a256.032 256.032 0 0 0 224 254.016zM224 64h384V416a192 192 0 1 1-384 0v-352z m736 512a32 32 0 0 0-64 0 192 192 0 0 1-192 192 32 32 0 0 0 0 64 256 256 0 0 0 256-256z m-128-32a32 32 0 0 0-64 0 96 96 0 0 1-96 96 32 32 0 0 0 0 64 160 160 0 0 0 160-160z"  horiz-adv-x="1024" />

    
    <glyph glyph-name="xiazai" unicode="&#58889;" d="M840.533333-128h-657.066666c-29.866667 0-55.466667 25.6-55.466667 59.733333v153.6c0 55.466667 81.066667 59.733333 85.333333 0v-128h597.333334v128c0 59.733333 85.333333 59.733333 85.333333 0v-153.6c0-34.133333-25.6-59.733333-55.466667-59.733333zM755.2 418.133333c-17.066667 17.066667-42.666667 17.066667-59.733333 0l-140.8-140.8v576c0 21.333333-21.333333 42.666667-42.666667 42.666667s-42.666667-21.333333-42.666667-42.666667v-576l-140.8 140.8c-17.066667 17.066667-42.666667 17.066667-59.733333 0-17.066667-17.066667-17.066667-42.666667 0-59.733333l213.333333-213.333333c17.066667-17.066667 42.666667-17.066667 59.733334 0l213.333333 213.333333c17.066667 12.8 17.066667 42.666667 0 59.733333z"  horiz-adv-x="1024" />

    
    <glyph glyph-name="lishi" unicode="&#60066;" d="M512.001023 833.610044c-247.917416 0-449.611068-201.693652-449.611067-449.611067 0-247.913323 201.693652-449.609021 449.611067-449.609021 247.913323 0 449.609021 201.695698 449.609021 449.609021 0 247.917416-201.695698 449.611068-449.609021 449.611067z m0-844.035232c-217.486336 0-394.423141 176.939875-394.423141 394.424165 0 217.486336 176.937828 394.423141 394.423141 394.423141 217.483266 0 394.424164-176.937828 394.424165-394.423141 0-217.483266-176.940898-394.424164-394.424165-394.424165zM739.242538 379.129062H507.131109V611.238444c0 15.216563-12.377912 27.595498-27.592428 27.595499-15.216563 0-27.595498-12.377912-27.595498-27.595499v-259.703856c0-15.21247 12.377912-27.590382 27.595498-27.590382h259.703857c15.21247 0 27.590382 12.377912 27.590381 27.590382 0 15.216563-12.377912 27.594475-27.590381 27.594474z"  horiz-adv-x="1024" />

    
    <glyph glyph-name="bujiaofei" unicode="&#59012;" d="M113.777778 298.780444c0 8.533333 0.967111 21.162667 2.958222 37.888 68.437333-187.164444 200.248889-274.375111 395.264-261.688888 195.072 12.686222 326.371556 102.286222 394.069333 268.8 2.787556-19.911111 4.152889-34.929778 4.152889-45.112889v-5.12c23.836444 46.250667 42.780444 99.271111 56.888889 159.061333V298.66666699999996c0-204.231111-203.776-369.777778-455.111111-369.777778s-455.111111 165.546667-455.111111 369.777778V452.608a796.842667 796.842667 0 0 1 56.888889-153.827556z m0 0v-0.113777C113.777778 128.79644399999995 289.792-14.222221999999988 512-14.222221999999988c219.989333 0 394.695111 140.174222 398.222222 307.768889-77.824-150.698667-207.473778-229.432889-389.063111-236.202667-187.050667-6.997333-322.844444 73.500444-407.381333 241.436444zM512 42.66666699999996c-251.335111 0-455.111111 178.289778-455.111111 398.222222s203.776 398.222222 455.111111 398.222222 455.111111-178.289778 455.111111-398.222222-203.776-398.222222-455.111111-398.222222z m0 56.888889c221.468444 0 398.222222 154.624 398.222222 341.333333s-176.753778 341.333333-398.222222 341.333333-398.222222-154.624-398.222222-341.333333 176.753778-341.333333 398.222222-341.333333z m138.581333 275.911111c0-29.980444-8.931556-55.125333-26.851555-75.093334-17.976889-20.081778-43.804444-31.971556-77.653334-35.555555V213.33333300000004H502.897778v51.256889C446.634667 270.44977800000004 411.648 303.21777799999995 398.222222 362.95111099999997l66.673778 17.464889c6.144-37.546667 26.567111-56.32 61.269333-56.32 16.270222 0 28.216889 3.982222 35.896889 12.003556a40.846222 40.846222 0 0 1 11.548445 29.127111c0 11.832889-3.868444 20.707556-11.548445 26.737777-7.566222 6.030222-24.632889 13.710222-50.972444 23.04-23.665778 8.248889-42.268444 16.384-55.580445 24.462223a91.818667 91.818667 0 0 0-32.483555 33.735111 99.555556 99.555556 0 0 0-12.458667 50.517333c0 25.144889 7.509333 47.900444 22.300445 68.039111 14.961778 20.138667 38.229333 32.540444 70.200888 36.977778V668.444444H546.133333v-39.765333c48.184889-5.745778 79.416889-32.995556 93.696-81.749333l-59.562666-24.462222c-11.605333 33.507556-29.411556 50.232889-53.76 50.232888a38.855111 38.855111 0 0 1-29.240889-11.207111 37.148444 37.148444 0 0 1-11.150222-27.136c0-10.865778 3.584-19.114667 10.695111-24.974222 7.168-5.745778 22.300444-12.970667 45.681777-21.447111 25.6-9.329778 45.738667-18.318222 60.245334-26.510222 14.563556-8.305778 26.055111-19.854222 34.872889-34.474667 8.533333-14.677333 12.970667-31.800889 12.970666-51.427555z"  horiz-adv-x="1024" />

    
    <glyph glyph-name="zhizhaodiaoxiao" unicode="&#59005;" d="M343.04 520.533333c2.56-12.612267 7.901867-24.2176 15.36-34.133333h-136.533333a17.066667 17.066667 0 0 1-17.066667-17.066667v-341.333333a17.066667 17.066667 0 0 1 17.066667-17.066667h580.266666a17.066667 17.066667 0 0 1 17.066667 17.066667V469.333333a17.066667 17.066667 0 0 1-17.066667 17.066667h-136.533333c7.458133 9.915733 12.8 21.521067 15.36 34.133333H819.2a34.133333 34.133333 0 0 0 34.133333-34.133333v-375.466667a34.133333 34.133333 0 0 0-34.133333-34.133333H204.8a34.133333 34.133333 0 0 0-34.133333 34.133333V486.4a34.133333 34.133333 0 0 0 34.133333 34.133333h138.24zM375.466667 349.866667m-85.333334 0a85.333333 85.333333 0 1 1 170.666667 0 85.333333 85.333333 0 1 1-170.666667 0ZM244.650667 162.133333h261.597866a5.888 5.888 0 0 1 5.751467 6.0416v21.623467a6.263467 6.263467 0 0 1-1.7408 4.334933c-25.1392 25.736533-55.842133 43.912533-88.849067 52.599467a5.7344 5.7344 0 0 1-2.730666 0.733867h-2.986667a5.5296 5.5296 0 0 1-2.730667-0.7168c-9.949867-5.632-23.637333-8.874667-37.512533-8.874667s-27.528533 3.242667-37.495467 8.874667A5.495467 5.495467 0 0 1 335.240533 247.466667h-2.167466a6.417067 6.417067 0 0 1-1.3312-0.1536c-33.877333-8.448-65.365333-26.8288-91.067734-53.179734A6.212267 6.212267 0 0 1 238.933333 189.781333v-21.623466c0-3.362133 2.56-6.0416 5.717334-6.0416zM580.266667 384h170.666666a17.066667 17.066667 0 0 0 0-34.133333H580.266667a17.066667 17.066667 0 0 0 0 34.133333z m0-85.333333h170.666666a17.066667 17.066667 0 0 0 0-34.133334H580.266667a17.066667 17.066667 0 0 0 0 34.133334z m0-85.333334h170.666666a17.066667 17.066667 0 0 0 0-34.133333H580.266667a17.066667 17.066667 0 0 0 0 34.133333zM477.866667 605.866667a34.133333 34.133333 0 1 1 68.266666 0h34.133334a68.266667 68.266667 0 1 0 0-136.533334h-136.533334a68.266667 68.266667 0 1 0 0 136.533334h34.133334zM512 537.6a68.266667 68.266667 0 1 0 0 136.533333 68.266667 68.266667 0 0 0 0-136.533333z m0 34.133333a34.133333 34.133333 0 1 1 0 68.266667 34.133333 34.133333 0 0 1 0-68.266667z"  horiz-adv-x="1024" />

    
    <glyph glyph-name="sousuo" unicode="&#59084;" d="M470.067 793.651A367.667 367.667 0 0 1 102.4 425.933a367.616 367.616 0 1 1 735.334 0A367.616 367.616 0 0 1 470.067 793.65z m0-676.557a308.838 308.838 0 1 0 0 617.728 308.89 308.89 0 0 0 0-617.728z m438.272-66.867l-80.077 78.541a45.926 45.926 0 0 1-64.05 0 43.878 43.878 0 0 1 0-62.822l80.076-78.541a45.926 45.926 0 0 1 64.051 0 43.878 43.878 0 0 1 0 62.822z"  horiz-adv-x="1024" />

    
    <glyph glyph-name="shanchu" unicode="&#58999;" d="M796.69226762 767.58431164H228.86506192c-52.27733902 0-94.63851488-42.35729225-94.63851488-94.63463128v-31.54530861h757.10294093v31.54530861c0.00129454 52.27733902-42.35729225 94.63463127-94.63722035 94.63463128m-165.30735914 63.08932266l13.92405365-99.56293847H380.24836741l13.92405366 99.56293847h237.21119288m7.57952157 63.08932267H386.59548855c-26.03057556 0-50.24491394-21.07119945-53.8799774-46.88558712L314.26186809 714.87589137c-3.60399455-25.78331875 14.7577363-46.85451821 40.78831186-46.85451821h315.45955872c26.03057556 0 44.39360095 21.06990491 40.75724293 46.88429259l-18.45364305 132.00277301c-3.60658363 25.78331875-27.81962747 46.85451821-53.85020303 46.85451821m173.5017864-315.44661333H213.09111309c-34.68715298 0-60.53390412-28.27918853-57.39205974-62.84206586l51.6947968-568.29712309c3.11077547-34.56417185 34.10331623-62.84206587 68.79176375-62.84206585h473.18869081c34.68715298 0 65.67969375 28.27918853 68.79176375 62.84206585l51.69350226 568.29712309c3.14054985 34.56287731-22.70620128 62.84206587-57.3946488 62.84206586M386.59548855 10.513734180000029h-94.63851488L260.41037053 452.13640375h126.18382349v-441.62396411z m189.27573524 0h-126.18382349V452.13640375h126.18382349v-441.62396411z m157.72913208 0h-94.63851489V452.13640375h126.1838235l-31.54530861-441.62396411z"  horiz-adv-x="1024" />

    
    <glyph glyph-name="yonghuguanli2" unicode="&#59023;" d="M665.570715 42.659158a34.131832 34.131832 0 0 1 34.131831-34.131832h375.450147a34.131832 34.131832 0 0 1 0 68.263663h-375.450147a34.131832 34.131832 0 0 1-34.131831-34.131831zM1075.152693-59.736337h-375.450147a34.131832 34.131832 0 0 1 0-68.263663h375.450147a34.131832 34.131832 0 0 1 0 68.263663zM887.42762 138.228286a34.131832 34.131832 0 1 1 58.024113 35.497105A508.56429 508.56429 0 0 1 662.157532 394.899659a273.054652 273.054652 0 1 1-300.360118 0A512.66011 512.66011 0 0 1 0-93.868168a34.131832 34.131832 0 0 1 68.263663 0 443.71381 443.71381 0 0 0 819.163957 232.096454zM307.186484 622.900294a204.790989 204.790989 0 1 0 204.790989-204.790989 204.790989 204.790989 0 0 0-204.790989 204.790989z"  horiz-adv-x="1109" />

    
    <glyph glyph-name="yanshouqueren" unicode="&#59001;" d="M351.12038367 759.38577089v-107.2530765h-107.14582446C214.69446905 652.13269439 190.24076735 628.05437795 190.24076735 598.39890252v-536.05088156C190.24076735 33.06793081000001 214.3190838 8.614229109999997 243.97455921 8.614229109999997h536.05088158c29.28009017 0 53.73379186 24.07831644 53.73379186 53.73379185v536.05088156c0 29.28009017-24.07831644 53.73379186-53.73379186 53.73379187H672.87961633V759.38577089h161.20137555C893.12381105 759.38577089 941.01231072 711.39001922 941.01231072 652.45445362v-644.16198375A106.98494483 106.98494483 0 0 0 834.08099188-98.63884895000001H189.91900812A106.98494483 106.98494483 0 0 0 82.98768928 8.29246986999999V652.45445362C82.98768928 711.49727281 130.98344255 759.38577089 189.91900812 759.38577089H351.12038367zM457.67631571 240.28087660999995l-72.55670698 72.93209221a50.99883838 50.99883838 0 0 1-72.55670695 0 51.53510322 51.53510322 0 0 1 0-72.93209221l108.86187424-109.29088706a50.94521236 50.94521236 0 0 1 72.39582734-0.10725204l217.83100048 218.79627821a51.80323646 51.80323646 0 0 1-0.10725359 72.77121257 50.94521236 50.94521236 0 0 1-72.39582734 0.10725362l-181.4722072-182.2766053zM243.86730561 705.7592326500001c0 88.85917422 72.34220133 160.87961633 160.87961633 160.8796163h214.50615612c88.85917422 0 160.87961633-72.23494772 160.87961633-160.8796163 0-88.85917422-72.34220133-160.87961633-160.87961633-160.87961632h-214.50615612c-88.85917422 0-160.87961633 72.23494772-160.87961633 160.87961632z m107.25307806 0c0-29.81635503 23.81018322-53.62653826 53.0902734-53.62653826h215.57868586A53.62653826 53.62653826 0 0 1 672.87961633 705.7592326500001c0 29.81635503-23.81018322 53.62653826-53.0902734 53.62653824h-215.57868586A53.62653826 53.62653826 0 0 1 351.12038367 705.7592326500001z"  horiz-adv-x="1024" />

    
    <glyph glyph-name="chouchajiancha1" unicode="&#58888;" d="M960.42793 364.81024c-6.38976-38.4-19.21024-83.18976-38.42048-121.58976-12.8-19.21024-25.6-25.6-44.81024-19.21024-19.21024 12.8-25.62048 25.6-19.21024 44.81024 19.21024 38.4 32.01024 76.77952 38.42048 115.17952 25.6 102.4 19.21024 198.38976 12.8 255.97952L512.22313 825.5488 115.25929 639.97952c-6.41024-57.58976-12.82048-147.18976 12.8-255.97952 44.81024-211.16928 179.28192-358.35904 384.16384-447.95904 64.04096 25.6 115.26144 57.58976 166.48192 95.98976 12.8 12.8 32.01024 6.41024 44.83072-6.38976 12.8-12.8 6.38976-32.01024-6.41024-44.78976-57.63072-44.81024-121.6512-76.8-192.08192-108.78976h-25.62048C262.51049-31.9488 115.25929 134.43072 64.01833 371.2a973.1072 973.1072 0 0 0-12.8 294.37952c6.41024 12.8 12.8 19.18976 19.21024 25.6L499.42313 895.93856h25.62048l428.99456-204.75904c12.8-6.41024 19.21024-12.8 19.21024-25.6 6.38976-57.58976 12.8-166.4-12.82048-300.76928z m-435.38432-191.97952c-51.22048 0-108.8512 25.6-147.27168 63.97952-83.23072 83.18976-83.23072 211.18976 0 294.37952 83.23072 83.18976 211.29216 83.18976 294.52288 0 70.43072-70.38976 76.84096-185.58976 19.21024-268.77952l134.47168-134.38976c12.8-12.8 12.8-31.98976 0-44.78976-6.41024-6.38976-12.8-6.38976-25.62048-6.38976-12.8 0-19.21024 0-25.6 6.38976l-128.06144 128c-38.42048-25.6-76.84096-38.4-121.6512-38.4zM627.48457 486.4c-25.62048 31.98976-64.04096 44.78976-102.44096 44.78976-38.42048 0-76.84096-19.21024-102.46144-44.78976-57.61024-57.61024-57.61024-147.18976 0-204.77952 57.63072-51.2 147.27168-51.2 204.9024 0 57.63072 57.58976 57.63072 147.16928 0 204.77952z"  horiz-adv-x="1024" />

    
    <glyph glyph-name="dian" unicode="&#59301;" d="M512 384m-160 0a160 160 0 1 1 320 0 160 160 0 1 1-320 0Z"  horiz-adv-x="1024" />

    
    <glyph glyph-name="jinyong" unicode="&#59004;" d="M973.6704 383.73888c-1.72032-235.30496-184.59648-435.44064-420.08064-454.38976-236.288-19.00544-446.88896 152.38656-486.01088 383.81056C28.12928 546.50368 187.136 772.08064 413.48096 827.39712c229.44256 56.07424 467.44064-83.50208 539.0848-306.1248 14.336-44.53888 20.76672-90.83392 21.10464-137.53344 0.24064-33.00864 51.44064-33.02912 51.2 0-1.69984 232.576-162.41664 437.71392-388.76672 493.0304C409.10848 932.24448 168.92928 817.41312 64.36864 610.03776c-105.40032-209.0496-47.52384-470.0416 132.2752-618.15808 180.43392-148.64896 447.95904-151.72608 632.22272-8.26368 123.2896 95.98976 194.86208 244.16256 195.99872 400.12288 0.24576 33.02912-50.95424 33.00864-51.19488 0zM145.05984 690.77504l540.89216-540.88192 139.0336-139.0336c23.36256-23.36768 59.5712 12.83584 36.1984 36.1984L320.29696 587.94496 181.26336 726.97856c-23.36768 23.36256-59.5712-12.84096-36.20352-36.20352z"  horiz-adv-x="1024" />

    
    <glyph glyph-name="zhuanzheng" unicode="&#58903;" d="M689.9 405.8c-121.6 0-220.3-98.7-220.4-220.4-0.1-121.6 98.9-220.6 220.7-220.5 121.3 0 220.1 98.9 220.2 220.2 0.2 121.7-98.7 220.7-220.5 220.7z m-21.1-347.5l-3.6-3.6H664c-8.1-6-19.1-6-27.2 0l-74.6 75.1c-9.8 9.9-9.8 25.9 0 35.8 9.8 9.9 25.7 9.9 35.5 0l53.3-53.7 159.8 172.9c9.5 9.5 26.1 9.5 35.5 0 9.5-10 9.5-25.8 0-35.8L668.8 58.3zM417.2 217.3l-0.1-0.1c9.6 58.5 35.6 108.8 75.8 151.6 27.9 30.1 61.8 53.9 99.4 69.8 2 0.9 3.5 2.6 4.4 4.6 3.2 8.6 5.8 17.3 9 25.9 0.9 2.1 2.5 3.9 4.6 4.9 7.7 3.5 14.3 9.1 19 16.2 8.6 12.5 10.4 27 10.9 41.6 0.4 13.5-3 25.9-13.2 35.6-0.9 1.2-1.5 2.8-1.4 4.4-0.6 11.6-1 23.2-1.7 34.8-1.6 32.6-8.5 64.6-20.4 94.9-11.9 30.2-31 54.4-59 70.9-49 28.8-101.5 38-156.8 27.4-51.3-9.7-89.7-38.6-114.7-85.4-12.4-23.3-18.1-48.7-21.6-74.5-2.9-22-3.4-44.3-5.1-66.4 0-2.1-0.5-4.1-1.6-5.9-18.1-23.6-16.8-48.4-4-73.5 4.5-9.2 12.2-16.5 21.5-20.4 1.9-1.1 3.3-2.8 4-4.9 3.6-9.5 6.6-19.2 10.2-28.6 5.2-13.3 12.8-24.8 24.4-33.3 5.3-4.2 10.5-8.7 15.3-13.5 7.4-6.8 12.3-15.2 13.3-25.4 0.9-8.4 1.4-16.9 1.7-25.4 0.4-11.6-3.1-22.9-10-32.1-12.9-17.8-30.6-29.7-50.4-37.5-19.3-7.7-39.3-13.4-59.1-19.7-18.7-5.9-37.9-10.4-54.9-21.1-19.7-12.5-34.3-28.7-37.8-53-1.9-13.4-3.3-27-4.4-40.4-1.9-22.8-0.7-45.4 5.5-67.6 2.8-10 8.1-17 18.5-18.9 22.7-4.3 45.4-9.4 68.3-12.5 33.5-4.5 67.2-7.9 100.7-11.2 46.1-4.7 92.5-7 138.8-6.7 1.7 0 3.3 0.3 5.8 0.5-1.4 2.9-2.4 5.1-3.6 7.2-31 58.8-42.1 121.4-31.3 187.7z"  horiz-adv-x="1024" />

    
    <glyph glyph-name="daoru" unicode="&#59479;" d="M564.41195724 811.1055887800001v-321.91558376h165.04580255L512 169.04385866999996l-217.45775979 320.14614635h164.98478744V811.1055887800001zM1000.12067293-43.10558877999995H23.87932707v255.59218732h67.11659252v-187.74341381h842.00816082v187.74341381H1000.12067293z"  horiz-adv-x="1024" />

    
    <glyph glyph-name="shangchuanzhaopian" unicode="&#59057;" d="M972.26752 140.6976h-122.18368v117.9648c0 26.2144-20.39808 45.8752-47.5136 45.8752-27.19744 0-47.55456-19.6608-47.55456-45.8752v-124.5184h-135.82336c-27.15648 0-47.5136-19.6608-47.5136-45.8752 0-26.2144 20.35712-45.8752 47.5136-45.8752h129.024v-124.5184c0-26.2144 20.35712-45.8752 47.5136-45.8752 27.15648 0 47.5136 19.6608 47.5136 45.8752v124.5184h129.024c27.15648 0 47.5136 19.6608 47.5136 45.8752 6.79936 26.2144-20.35712 52.4288-47.5136 52.4288zM498.2784 7.168H84.45952a26.0096 26.0096 0 0 0-26.86976 26.4192V772.05504c0 15.07328 11.50976 26.37824 26.86976 26.37824h733.30688c15.31904 0 26.8288-11.30496 26.8288-26.37824v-399.11424c0-15.07328 11.55072-26.4192 26.91072-26.4192a26.0096 26.0096 0 0 1 26.8288 26.4192V798.43328c0 30.18752-26.8288 56.60672-57.58976 56.60672H57.58976C26.86976 855.04 0 828.6208 0 798.43328v-791.22432c0-30.14656 26.86976-56.56576 57.58976-56.56576h440.68864a26.0096 26.0096 0 0 1 26.8288 26.4192c0 18.8416-11.4688 30.14656-26.8288 30.14656z m-9.6256 140.04224c19.98848 38.74816 66.60096 64.55296 113.21344 64.55296h53.248v58.12224c0 51.6096 33.30048 96.82944 79.872 116.20352L668.4672 579.7888l-233.02144-290.48832-66.56 103.26016L122.4704 147.2512h366.1824zM367.49312 560.128c0 32.1536-27.8528 58.9824-61.2352 58.9824-33.42336 0-61.2352-26.8288-61.2352-58.9824 0-32.1536 27.8528-58.9824 61.2352-58.9824 33.42336 0 61.2352 26.8288 61.2352 58.9824z"  horiz-adv-x="1024" />

    
    <glyph glyph-name="qiyong" unicode="&#58902;" d="M495.3884448 229.48977813l253.22382187 348.6151104a22.7555552 22.7555552 0 0 0 36.864-26.76053333l-267.51431147-368.18488853a22.66453333 22.66453333 0 0 0-14.336-9.05671147 22.7555552 22.7555552 0 0 0-19.79733333 5.41582293l-196.0163552 167.29884374a22.7555552 22.7555552 0 1 0 30.4924448 33.81475626l177.03822186-151.1424zM512-116.62222186999998C235.52-116.62222186999998 11.37777813 107.51999999999998 11.37777813 384S235.52 884.62222187 512 884.62222187s500.62222187-224.14222187 500.62222187-500.62222187-224.14222187-500.62222187-500.62222187-500.62222187z m0 41.73368854c253.45137813 0 458.88853333 205.4371552 458.88853333 458.88853333S765.49688853 842.88853333 512 842.88853333 53.11146667 637.49688853 53.11146667 384 258.50311147-74.88853332999997 512-74.88853332999997z"  horiz-adv-x="1024" />

    
    <glyph glyph-name="shenpi" unicode="&#59419;" d="M885.19111111-51.20000001000005a27.30666667 27.30666667 0 0 0 0-54.61333333h-728.17777778a27.30666667 27.30666667 0 0 0 0 54.61333333h728.17777778z m72.81777778 309.47555557c35.13457778 0 63.71555555-28.58097778 63.71555556-63.71555557v-109.22666666c0-35.13457778-28.58097778-63.71555555-63.71555556-63.71555556h-873.81333334C49.06097778 21.617777769999975 20.48 50.198755559999995 20.48 85.33333332999996v109.22666666C20.48 229.69457777000002 49.06097778 258.27555556000004 84.19555555 258.27555556000004H402.77333333v62.3866311c-75.49383111 83.35815111-127.43111111 237.60440889-127.43111111 329.00892445C275.34222222 785.1849955600001 385.58833778 895.43111111 521.10222222 895.43111111S766.86222222 785.1849955600001 766.86222222 649.67111111c0-91.40451555-51.93728-245.65077333-127.43111111-329.00892445V258.27555556000004h318.57777778z m9.10222222-172.94222223v109.22666666c0 5.00622222-4.096 9.10222222-9.10222222 9.10222223h-345.88444444a27.30666667 27.30666667 0 0 0-27.30666667 27.30666667v100.52494222c0 7.17255111 2.80348445 14.05383111 7.84611555 19.15107555C661.0944 420.22229333 712.24888889 565.89425777 712.24888889 649.67111111 712.24888889 755.07484444 626.50595555 840.81777777 521.10222222 840.81777777S329.95555555 755.07484444 329.95555555 649.67111111c0-83.77685333 51.15448889-229.44881778 119.58499556-299.02620445 5.04263111-5.09724445 7.84611555-11.97852445 7.84611556-19.15107555V230.96888889000002a27.30666667 27.30666667 0 0 0-27.30666667-27.30666667h-345.88444445c-5.00622222 0-9.10222222-4.096-9.10222222-9.10222223v-109.22666666c0-5.00622222 4.096-9.10222222 9.10222222-9.10222222h873.81333334c5.00622222 0 9.10222222 4.096 9.10222222 9.10222222z"  horiz-adv-x="1024" />

    
    <glyph glyph-name="yanqi" unicode="&#59009;" d="M874.1 532c-3.9 15.6-31.1 50.6-42.8 58.4l50.6 38.9c19.5-11.7 42.8-58.4 46.7-77.9L874.1 532zM652.2-44.3L632.7 18c23.4 7.8 50.6 19.5 70.1 31.2l31.1-54.5c-23.3-15.6-50.6-27.3-81.7-39z m159.6 93.4L769 95.9c19.5 19.5 38.9 38.9 54.5 58.4l50.6-38.9c-19.5-23.4-38.9-46.8-62.3-66.3z m109 148l-58.4 27.3c11.7 23.4 19.5 50.6 27.3 74l62.3-15.6c-7.8-27.3-19.5-58.4-31.2-85.7z m39 179.1h-62.3V384c0 23.4-3.9 46.7-7.8 70.1l62.3 11.7c3.9-27.3 7.8-54.5 7.8-81.8v-7.8zM512-63.8v62.3c15.6 0 31.1 0 42.8 3.9l7.8-62.3c-15.6-3.9-35-3.9-50.6-3.9zM827.4 824l-7.8-167.4-167.4 7.8L827.4 824zM527.6 676C368 676 239.5 547.5 239.5 387.9S368 99.8 527.6 99.8c159.6 0 288.1 128.5 288.1 288.1S687.2 676 527.6 676z m183-358.2H480.9V567h62.3v-186.9h167.4v-62.3zM512-63.8C262.8-63.8 64.2 134.8 64.2 384S262.8 831.8 512 831.8c85.7 0 171.3-23.4 245.3-74l-35-54.5C660 742.2 586 765.6 512 765.6c-214.2 0-385.5-171.3-385.5-385.5S297.8-5.4 512-5.4v-58.4z"  horiz-adv-x="1024" />

    
    <glyph glyph-name="wenjianjia" unicode="&#58920;" d="M859.5 703H446.939c-1.851 53.25-45.747 96-99.439 96h-183C109.635 799 65 754.365 65 699.5v-632c0-54.864 44.635-99.5 99.5-99.5h695c54.864 0 99.5 44.636 99.5 99.5v536c0 54.865-44.636 99.5-99.5 99.5z m-695 33h183c20.126 0 36.5-16.374 36.5-36.5v-28c0-17.397 14.103-31.5 31.5-31.5h444c20.126 0 36.5-16.374 36.5-36.5V575H128V699.5c0 20.126 16.374 36.5 36.5 36.5z m695-705h-695c-20.126 0-36.5 16.374-36.5 36.5V512h768v-444.5c0-20.126-16.374-36.5-36.5-36.5z"  horiz-adv-x="1024" />

    
    <glyph glyph-name="banli" unicode="&#58908;" d="M803.221-29.573H224.356c-68.568 0-124.352 55.784-124.352 124.353V673.644c0 68.568 55.784 124.352 124.352 124.352h355.311v-64H224.356c-33.278 0-60.352-27.074-60.352-60.352V94.78c0-33.278 27.074-60.353 60.352-60.353H803.22c33.278 0 60.353 27.074 60.353 60.353V447.792h64V94.78c0-68.569-55.784-124.353-124.352-124.353zM300.357 139.084l35.024 195.867L770.117 811.596c10.05 11.02 25.015 18.052 41.058 19.293 16.017 1.247 31.987-3.379 43.841-12.667l83.662-65.549c21.643-16.956 24.254-45.964 5.942-66.038l-437.613-479.8-206.65-67.751z m104.994 170.751l-13.14-73.487 69.671 22.842 415.465 455.517-59.909 46.939-412.087-451.811zM732.25 675.103l41.144 49.023 81.151-68.11-41.145-49.023z"  horiz-adv-x="1024" />

    
    <glyph glyph-name="tijiao" unicode="&#59065;" d="M512-128C229.226667-128 0 101.226667 0 384S229.226667 896 512 896s512-229.226667 512-512-229.226667-512-512-512z m0 40.149333c260.586667 0 471.850667 211.264 471.850667 471.850667 0 260.586667-211.264 471.850667-471.850667 471.850667C251.413333 855.850667 40.149333 644.586667 40.149333 384c0-260.586667 211.264-471.850667 471.850667-471.850667zM463.232 337.365333l208.832 203.52a48.512 48.512 0 0 0 68.138667-0.426666 47.274667 47.274667 0 0 0-0.426667-67.285334L501.226667 240.682667a50.197333 50.197333 0 0 0-76.586667-6.677334l-148.906667 148.906667a50.197333 50.197333 0 1 0 70.976 70.997333l116.522667-116.544z"  horiz-adv-x="1024" />

    
    <glyph glyph-name="kaiqi" unicode="&#59008;" d="M951.4496-47.17056c-2.3808-32.43008-74.51136-20.46976-95.232-20.46976H127.43168c-11.89888 0-27.55072-2.50368-35.70688 8.30464-7.90528 10.48064-3.92704 33.53088-3.92704 45.44v93.02016 244.864 91.20256c0 13.5936-4.17792 37.72416 8.30464 47.14496 8.22272 6.20544 23.40864 3.92704 33.0496 3.92704h730.12224c19.36384 0 81.77152 10.58816 91.136-13.97248 4.24448-11.14112 1.03424-28.3648 1.03424-39.77728v-93.02016l0.00512-366.66368c0-33.01376 51.2-33.01376 51.2 0v379.99616 87.41888c0 19.26144 1.91488 40.41728-7.7824 57.89184-25.55904 46.10048-74.14784 39.32672-118.3744 39.32672H108.93824c-39.99744 0-72.33536-32.96256-72.33536-72.77568V-30.4896c0-26.34752 3.33312-49.54112 23.34208-69.55008 16.20992-16.20992 38.41024-18.80064 59.93984-18.80064h810.42944c41.28256 0 69.44768 32.38912 72.33536 71.66976 2.42176 32.95744-48.79872 32.72704-51.2 0zM248.05888 496.22528c0 53.02784-1.78688 104.19712 15.11424 155.36128C287.22688 724.40832 346.55232 784.69632 417.06496 813.568c155.10016 63.49824 329.25696-32.128 367.67744-192.49152 7.69024-32.1024 57.0624-18.4832 49.37216 13.60896-44.52864 185.8816-243.74272 295.0144-424.27392 230.69696-82.99008-29.568-150.9888-94.43328-186.13248-174.92992-27.42784-62.81728-26.84928-127.30368-26.84928-194.23232 0-33.01376 51.2-33.01376 51.2 0.00512zM494.02368 258.19136v-117.76c0-33.01376 51.2-33.01376 51.2 0v117.76c0 33.01376-51.2 33.01376-51.2 0z"  horiz-adv-x="1024" />

    
    <glyph glyph-name="guihuan" unicode="&#58962;" d="M798.213 781.679C786.412 810 759.271 810 759.271 810H243.584c-37.762-9.44-48.383-55.463-48.383-55.463L89.023 306.114v-280.855c0-54.283 75.496-68.715 75.496-68.715h706.857c56.643 0 69.624 66.355 69.624 66.355V303.754S810.013 753.357 798.213 781.679z m-546.369-40.123c3.54 15.341 24.781 15.341 24.781 15.341h453.537c18.094 0 24.388-24.388 24.388-24.388l125.873-404.368H665.652c-14.161 0-16.521-22.028-16.521-22.028s0.787-71.59 0-86.538c-0.787-14.947-25.961-25.175-25.961-25.175s-199.037-0.787-218.705 0c-19.668 0.787-24.388 32.255-24.388 32.255s3.147 59.003 0 83.391c-3.147 24.388-27.535 17.308-27.535 17.308H149.179c0 0.001 99.125 398.862 102.665 414.202z m635.66-678.535s-3.147-53.496-46.416-54.283c-43.269-0.787-640.38 0-640.38 0s-56.643 4.72-57.43 54.283c-0.787 49.563 0 213.198 0 213.198h184.876v-91.258s14.161-40.122 39.335-40.122h289.508s44.056 11.014 44.056 43.269v88.111h186.45v-213.198zM490.639 532.365c81.735 0 131.384-5.506 193.023-62.791 0-0.089-9.119 127.092-193.023 127.092v50.446l-179.345-84.284 179.345-87.392v56.929z"  horiz-adv-x="1024" />

    
    <glyph glyph-name="biangeng" unicode="&#58896;" d="M837.888 545.664H205.952c-14.08 0-25.6 11.52-25.6 25.6s11.52 25.6 25.6 25.6h631.936c14.08 0 25.6-11.52 25.6-25.6s-11.52-25.6-25.6-25.6zM666.496 403.84c-7.424 0-14.72 3.2-19.712 9.216-8.96 10.88-7.552 27.008 3.328 36.096l147.456 122.24L650.24 693.504c-10.88 8.96-12.416 25.216-3.328 36.096 8.96 10.88 25.216 12.416 36.096 3.328l171.264-141.952c5.888-4.864 9.216-12.032 9.216-19.712s-3.456-14.848-9.216-19.712L682.88 409.728c-4.736-3.968-10.624-5.888-16.384-5.888z m151.552-232.704H186.112c-14.08 0-25.6 11.52-25.6 25.6s11.52 25.6 25.6 25.6h631.936c14.08 0 25.6-11.52 25.6-25.6s-11.392-25.6-25.6-25.6zM357.504 29.184c-5.76 0-11.52 1.92-16.256 5.888L169.856 177.024c-5.888 4.864-9.216 12.032-9.216 19.712s3.456 14.848 9.216 19.712L341.12 358.4c10.88 8.96 27.008 7.552 36.096-3.328 8.96-10.88 7.552-27.008-3.328-36.096l-147.456-122.24 147.328-122.24c10.88-8.96 12.416-25.216 3.328-36.096a25.505 25.505 0 0 0-19.584-9.216z"  horiz-adv-x="1024" />

    
    <glyph glyph-name="chuli" unicode="&#59021;" d="M879.171718 890.278764H145.030803A139.334883 139.334883 0 0 1 5.797182 751.0451419999999V587.1545120000001c0-20.960989 17.011817-36.858937 37.972806-36.858937s37.972806 18.176316 37.972806 39.137305V751.0451419999999c0 34.884351 28.403659 63.28801 63.288009 63.28801h734.140915c34.884351 0 63.28801-28.403659 63.28801-63.28801v-734.140915c0-34.884351-28.403659-63.28801-63.28801-63.288009H145.030803c-34.884351 0-63.28801 28.403659-63.288009 63.288009v330.414042h595.616118a37.972806 37.972806 0 0 1 37.972806 37.972806c0 0.405043-0.253152 0.810087-0.253152 1.21513a37.567763 37.567763 0 0 1-10.885538 28.099877l-172.801582 172.801582A37.972806 37.972806 0 1 1 477.672583 533.688801l110.47555-110.47555H49.08618c-0.961978 0-1.721434-0.455674-2.632781-0.556935-0.961978 0.202522-1.721434 0.658195-2.683411 0.658196a37.972806 37.972806 0 0 1-37.972806-37.972806v-368.386848a139.334883 139.334883 0 0 1 139.233621-139.233622h734.140915a139.334883 139.334883 0 0 1 139.233622 139.233622v734.140915A139.334883 139.334883 0 0 1 879.171718 890.278764z"  horiz-adv-x="1024" />

    
    <glyph glyph-name="x_nav_pingshenkaohe" unicode="&#59006;" d="M231.849057 896h96.603773v-96.603774h-96.603773zM347.773585 896h96.603773v-96.603774h-96.603773zM231.849057 780.075472h96.603773v-96.603774h-96.603773zM0-29.464151h96.603774v-96.603774H0zM927.396226-29.464151h96.603774v-96.603774h-96.603774zM115.924528 780.075472h96.603774v-96.603774H115.924528zM347.773585 780.075472h96.603773v-96.603774h-96.603773zM463.698113 780.075472h96.603774v-96.603774h-96.603774zM231.849057 664.150943h96.603773v-96.603773h-96.603773zM347.773585 664.150943h96.603773v-96.603773h-96.603773zM463.698113 664.150943h96.603774v-96.603773h-96.603774zM231.849057 548.226415h96.603773v-96.603773h-96.603773zM347.773585 548.226415h96.603773v-96.603773h-96.603773zM231.849057 432.301887h96.603773v-96.603774h-96.603773zM347.773585 432.301887h96.603773v-96.603774h-96.603773zM463.698113 432.301887h96.603774v-96.603774h-96.603774zM695.54717 432.301887h96.603773v-96.603774h-96.603773zM231.849057 316.377358h96.603773v-96.603773h-96.603773zM347.773585 316.377358h96.603773v-96.603773h-96.603773zM579.622642 316.377358h96.603773v-96.603773h-96.603773zM695.54717 316.377358h96.603773v-96.603773h-96.603773zM231.849057 200.45283h96.603773v-96.603773h-96.603773zM347.773585 200.45283h96.603773v-96.603773h-96.603773zM579.622642 200.45283h96.603773v-96.603773h-96.603773zM695.54717 200.45283h96.603773v-96.603773h-96.603773zM231.849057-31.396226h96.603773v-96.603774h-96.603773zM115.924528-31.396226h96.603774v-96.603774H115.924528zM347.773585-31.396226h96.603773v-96.603774h-96.603773zM579.622642-31.396226h96.603773v-96.603774h-96.603773zM687.818868-31.396226h96.603774v-96.603774h-96.603774zM803.743396-31.396226h96.603774v-96.603774h-96.603774zM695.54717 84.528302h96.603773v-96.603774h-96.603773zM811.471698 84.528302h96.603774v-96.603774h-96.603774zM0 103.849057v96.603773h96.603774v-96.603773zM0 219.773585v96.603773h96.603774v-96.603773zM115.924528 103.849057v96.603773h96.603774v-96.603773zM115.924528 219.773585v96.603773h96.603774v-96.603773zM115.924528 335.698113v96.603774h96.603774v-96.603774zM115.924528 567.54717v96.603773h96.603774v-96.603773zM927.396226 103.849057v96.603773h96.603774v-96.603773zM927.396226 219.773585v96.603773h96.603774v-96.603773zM811.471698 103.849057v96.603773h96.603774v-96.603773zM811.471698 219.773585v96.603773h96.603774v-96.603773zM811.471698 335.698113v96.603774h96.603774v-96.603774z"  horiz-adv-x="1024" />

    
    <glyph glyph-name="tupian" unicode="&#58912;" d="M847.657 831.984H175.703c-61.766 0-111.993-50.227-111.993-111.992v-671.954c0-61.765 50.226-111.993 111.993-111.993h671.954c61.765 0 111.992 50.228 111.992 111.993V719.99c0 61.765-50.227 111.993-111.992 111.993z m55.995-783.946c0-30.87-25.127-55.997-55.996-55.997H175.703c-30.87 0-55.996 25.127-55.996 55.997V719.99c0 30.87 25.128 55.996 55.996 55.996h671.954c30.87 0 55.996-25.127 55.996-55.996v-671.953zM835.19 351.314l-83.995 55.996c-10.444 6.945-23.54 5.688-32.782-1.722l-0.246 0.3-133.184-106.551-197.435 135.752c-0.083 0.055-0.164 0.055-0.218 0.11-2.297 1.53-4.895 2.379-7.52 3.199-0.874 0.273-1.666 0.875-2.57 1.04-2.378 0.492-4.811 0.218-7.273 0.081-1.121-0.082-2.27 0.218-3.363 0-1.23-0.218-2.35-0.984-3.554-1.394-2.27-0.739-4.566-1.367-6.616-2.707-0.083-0.055-0.192-0.055-0.274-0.11L188.17 323.316c-12.878-8.585-16.35-25.946-7.765-38.824 5.386-8.094 14.273-12.47 23.323-12.47 5.332 0 10.718 1.533 15.503 4.704L371.444 378.19 803.8 80.958a27.793 27.793 0 0 1 15.831-4.923c8.913 0 17.663 4.238 23.105 12.14 8.749 12.74 5.523 30.156-7.219 38.934L633.214 266.198l103.956 83.147 66.959-44.621c4.786-3.172 10.171-4.704 15.503-4.704 9.05 0 17.937 4.374 23.323 12.469 8.584 12.877 5.112 30.24-7.766 38.825zM581.674 468.009c69.476 0 125.992 56.516 125.992 125.99 0 69.477-56.516 125.993-125.992 125.993-69.475 0-125.99-56.516-125.99-125.992s56.516-125.991 125.99-125.991z m0 195.985c38.607 0 69.995-31.387 69.995-69.994s-31.388-69.995-69.995-69.995c-38.606 0-69.995 31.39-69.995 69.995 0 38.607 31.39 69.994 69.995 69.994z"  horiz-adv-x="1024" />

    
    <glyph glyph-name="bangongyongpinguanli" unicode="&#58913;" d="M512 570.2v-52c0-3.3 2.7-6 6-6h52c3.3 0 6 2.7 6 6v52c0 3.3-2.7 6-6 6h-52c-3.3 0-6-2.7-6-6z m128.1 0v-52c0-3.3 2.7-6 6-6h52c3.3 0 6 2.7 6 6v52c0 3.3-2.7 6-6 6h-52c-3.3 0-6-2.7-6-6z m186 6h-52c-3.3 0-6-2.7-6-6v-52c0-3.3 2.7-6 6-6h52c3.3 0 6 2.7 6 6v52c0 3.3-2.7 6-6 6zM641 198v52c0 3.3-2.7 6-6 6H385v-64h250c3.3 0 6 2.7 6 6z m-7.7-69.9h-244c-3.3 0-6-2.7-6-6v-52c0-3.3 2.7-6 6-6h244c3.3 0 6 2.7 6 6v52c0 3.3-2.7 6-6 6zM948.4 703.9H774.1c-3.3 0-6 2.7-6 6V820.1c0 6.6-5.4 12-12 12H268c-6.6 0-12-5.4-12-12v-110.2c0-3.3-2.7-6-6-6H76.5c-6.6 0-12-5.4-12-12v-551.7c0-6.6 5.4-12 12-12H250c3.3 0 6-2.7 6-6v-173.8c0-6.6 5.4-12 12-12h488.1c6.6 0 12 5.4 12 12V122.2c0 3.3 2.7 6 6 6h174.2c6.6 0 12 5.4 12 12V691.9c0.1 6.7-5.3 12-11.9 12zM326 768.1h372.1c3.3 0 6-2.7 6-6V710c0-3.3-2.7-6-6-6H326c-3.3 0-6 2.7-6 6v52.1c0 3.3 2.7 6 6 6z m372.1-767.7H326c-3.3 0-6 2.7-6 6V314c0 3.3 2.7 6 6 6h372.1c3.3 0 6-2.7 6-6v-307.6c0-3.4-2.6-6-6-6z m192.3 191.8H774.1c-3.3 0-6 2.7-6 6V313.9c0 3.3 2.7 6 6 6H826c3.3 0 6 2.7 6 6v52c0 3.3-2.7 6-6 6H199.9c-3.3 0-6-2.7-6-6v-52c0-3.3 2.7-6 6-6H250c3.3 0 6-2.7 6-6v-115.7c0-3.3-2.7-6-6-6H134.5c-3.3 0-6 2.7-6 6V633.9c0 3.3 2.7 6 6 6h755.9c3.3 0 6-2.7 6-6v-435.7c0-3.3-2.7-6-6-6z"  horiz-adv-x="1024" />

    
    <glyph glyph-name="bangongxitong" unicode="&#58914;" d="M897.444 757.808H139.136c-33.055 0-58.332-25.277-58.332-58.331v-486.095c0-33.055 25.277-58.332 58.332-58.332h194.438l-29.166-116.662h-58.331V-0.5h524.982v38.888h-60.276L681.618 155.05h215.826c33.054 0 58.331 25.277 58.331 58.332V699.477c0 33.054-25.277 58.331-58.331 58.331z m-758.308-38.887h758.308c11.666 0 19.444-7.778 19.444-19.444V310.6H119.692V699.477c0 11.666 7.777 19.444 19.444 19.444zM669.95 38.388H343.296L372.46 155.05h268.325l29.165-116.662z m227.493 155.55H139.136c-11.667 0-19.444 7.777-19.444 19.444v58.331h797.196v-58.331c0-11.667-7.778-19.444-19.444-19.444zM479.402 641.145h330.545v-38.887H479.402z m0-116.662h330.545v-38.888H479.402z m0-116.663h217.77v-38.888h-217.77z"  horiz-adv-x="1024" />

    
    <glyph glyph-name="bumenguanli" unicode="&#58915;" d="M608 467.2H416c-51.2 0-96 44.8-96 96v192c0 51.2 44.8 96 96 96h192c51.2 0 96-44.8 96-96v-192c0-57.6-44.8-96-96-96z m-192 320c-19.2 0-32-12.8-32-32v-192c0-19.2 12.8-32 32-32h192c19.2 0 32 12.8 32 32v192c0 19.2-12.8 32-32 32H416z m-192-864h-64c-51.2 0-96 44.8-96 96v64c0 51.2 44.8 96 96 96h64c51.2 0 96-44.8 96-96v-64c0-57.6-44.8-96-96-96z m-64 192c-19.2 0-32-12.8-32-32v-64c0-19.2 12.8-32 32-32h64c19.2 0 32 12.8 32 32v64c0 19.2-12.8 32-32 32h-64z m704-192h-64c-51.2 0-96 44.8-96 96v64c0 51.2 44.8 96 96 96h64c51.2 0 96-44.8 96-96v-64c0-57.6-44.8-96-96-96z m-64 192c-19.2 0-32-12.8-32-32v-64c0-19.2 12.8-32 32-32h64c19.2 0 32 12.8 32 32v64c0 19.2-12.8 32-32 32h-64z m-256-192h-64c-51.2 0-96 44.8-96 96v64c0 51.2 44.8 96 96 96h64c51.2 0 96-44.8 96-96v-64c0-57.6-44.8-96-96-96z m-64 192c-19.2 0-32-12.8-32-32v-64c0-19.2 12.8-32 32-32h64c19.2 0 32 12.8 32 32v64c0 19.2-12.8 32-32 32h-64zM224 115.2h-64v128c0 51.2 44.8 96 96 96h512c51.2 0 96-44.8 96-96v-128h-64v128c0 19.2-12.8 32-32 32H256c-19.2 0-32-12.8-32-32v-128zM480 499.2h64v-320h-64z"  horiz-adv-x="1024" />

    
    <glyph glyph-name="beian" unicode="&#58916;" d="M781.4 475.1V784.7H251.9v-309.6H133.4v-480.7H892V475.1H781.4zM287.3 749.3H746v-272.6H287.3V749.3z m569.3-719.5H168.8V439.7h687.8v-409.9z m-49.9 379.8h-588V393h588v16.6zM349.8 622.3h322.8v35.4H349.8v-35.4z m-37 89.3H722v16.3H312.8v-16.3z m37-177.7h322.8v35.4H349.8v-35.4zM505.1 349c-69.8 0-126.6-56.8-126.6-126.6s56.8-126.6 126.6-126.6 126.6 56.8 126.6 126.6S574.9 349 505.1 349z m0-221c-52 0-94.3 42.3-94.3 94.3s42.3 94.3 94.3 94.3 94.3-42.3 94.3-94.3-42.3-94.3-94.3-94.3z m0 170.2v-16.3c32 0 58.1-26.1 58.1-58.1s-26.1-58.1-58.1-58.1v-16.3c41 0 74.4 33.4 74.4 74.4s-33.4 74.4-74.4 74.4z"  horiz-adv-x="1024" />

    
    <glyph glyph-name="caiwuguanli" unicode="&#58917;" d="M921.6 607.915H102.4A102.4 102.4 0 0 1 0 505.515V-25.6A102.4 102.4 0 0 1 102.4-128h819.2A102.4 102.4 0 0 1 1024-25.6V505.515a102.4 102.4 0 0 1-102.4 102.4zM955.733-25.6a34.133 34.133 0 0 0-34.133-34.133H102.4A34.133 34.133 0 0 0 68.267-25.6V505.515a34.133 34.133 0 0 0 34.133 34.133h819.2a34.133 34.133 0 0 0 34.133-34.133zM648.533 242.005h-102.4V281.6h79.872a34.133 34.133 0 1 1 0 68.267h-33.45l49.152 50.517a34.133 34.133 0 1 1-49.152 47.787L512 365.568l-81.237 83.285a34.133 34.133 0 0 1-49.152-47.786l49.834-51.2h-33.45a34.133 34.133 0 1 1 0-68.267h79.872v-40.277h-102.4a34.133 34.133 0 1 1 0-68.267h102.4v-119.467a34.133 34.133 0 0 1 68.266 0V173.74h102.4a34.133 34.133 0 1 1 0 68.266z m-544.085 437.59h819.2a34.133 34.133 0 0 1 0 68.266h-819.2a34.133 34.133 0 0 1 0-68.266z m66.219 148.138h682.666a34.133 34.133 0 0 1 0 68.267H170.667a34.133 34.133 0 0 1 0-68.267z"  horiz-adv-x="1024" />

    
    <glyph glyph-name="caiwu" unicode="&#58919;" d="M954.112 552.13v-466.856c0-21.78 0.717-42.855-8.335-63.478-26.604-60.61-85.863-58.803-140.662-58.803h-609.68c-64.107 0-108.595 43.202-108.595 107.73V669.409c0 11.94-0.133 23.885 0.2 35.82 1.439 51.625 49.47 91.863 99.241 91.863h610.616c55.225 0 97.649-44.79 99.16-98.934 0.92-32.947 52.12-33.04 51.2 0-2.535 90.916-74.476 150.134-162.166 150.134H197.806c-87.685 0-159.626-59.218-162.16-150.134-1.04-37.314 0-74.808 0-112.133v-459.233c0-51.59-4.373-102.339 25.226-148.101 27.018-41.76 75.986-66.898 125.363-66.898h651.464c19.845 0 38.968 0.686 58.48 5.662 54.595 13.947 95.785 62.603 106.48 116.788 9.145 46.356 2.658 99.03 2.658 145.797V552.136c-0.005 33.013-51.205 33.013-51.205-0.005zM279.04 654.47h576.072c55.157 0 97.49-44.919 98.995-98.93 0.921-32.947 52.121-33.034 51.2 0-2.555 91.505-74.998 150.13-162.944 150.13H279.035c-33.014 0-33.014-51.2 0.005-51.2z m74.148-145.225a641855.693 641855.693 0 0 1 156.242-156.19c9.86-9.867 26.342-9.867 36.198 0C597.852 405.238 650.076 457.457 702.3 509.67c23.368 23.363-12.836 59.572-36.198 36.204L509.43 389.222h36.198L389.391 545.45c-23.367 23.368-59.57-12.841-36.203-36.204z m-43.515-243.502h430.09c33.014 0 33.014 51.2 0 51.2h-430.09c-33.014 0-33.014-51.2 0-51.2z m0-131.517h430.09c33.014 0 33.014 51.2 0 51.2h-430.09c-33.014 0-33.014-51.2 0-51.2zM503.188 372.393v-308.198c0-33.014 51.2-33.014 51.2 0V372.393c0 33.019-51.2 33.019-51.2 0z"  horiz-adv-x="1024" />

    
    <glyph glyph-name="bianmaguize" unicode="&#58921;" d="M725.333 618.667H393.387A23.467 23.467 0 0 1 369.92 595.2a23.467 23.467 0 0 1 23.467-23.467h331.946a23.467 23.467 0 1 1 0 46.934z m-426.666 0a23.893 23.893 0 0 1-23.894-23.467 23.893 23.893 0 0 1 23.894-23.467 23.467 23.467 0 0 1 23.466 23.467 23.467 23.467 0 0 1-23.466 23.467z m426.666-140.8H393.387A23.467 23.467 0 0 1 369.92 454.4a23.467 23.467 0 0 1 23.467-23.467h331.946a23.467 23.467 0 0 1 0 46.934z m-426.666 0a23.893 23.893 0 0 1-23.894-23.467 23.893 23.893 0 0 1 23.894-23.467 23.467 23.467 0 0 1 23.466 23.467 23.467 23.467 0 0 1-23.466 23.467z m426.666-140.8H393.387A23.467 23.467 0 0 1 369.92 313.6a23.467 23.467 0 0 1 23.467-23.467h331.946a23.467 23.467 0 0 1 0 46.934z m-426.666 0a23.893 23.893 0 0 1-23.894-23.467 23.893 23.893 0 0 1 23.894-23.467 23.467 23.467 0 0 1 23.466 23.467 23.467 23.467 0 0 1-23.466 23.467z m426.666-140.8H393.387A23.467 23.467 0 0 1 369.92 172.8a23.467 23.467 0 0 1 23.467-23.467h331.946a23.467 23.467 0 0 1 0 46.934z m-426.666 0a23.893 23.893 0 0 1-23.894-23.467 23.893 23.893 0 0 1 23.894-23.467 23.467 23.467 0 0 1 23.466 21.334 23.467 23.467 0 0 1-23.466 25.6zM820.053 853.333H203.947A118.187 118.187 0 0 1 85.333 736v-704a118.187 118.187 0 0 1 118.614-117.333h616.106A118.187 118.187 0 0 1 938.667 32V736A118.187 118.187 0 0 1 820.053 853.333z m-675.84-810.666V725.333a68.693 68.693 0 0 0 69.12 69.547h597.334a68.693 68.693 0 0 0 69.12-69.547v-682.666a69.12 69.12 0 0 0-69.12-69.547H213.333a68.693 68.693 0 0 0-69.12 69.547z"  horiz-adv-x="1024" />

    
    </font>
</defs>
</svg>
